Lexend-SemiBold.ufo
<glyph name="exclam" format="2">
  <advance width="278.6666666666667"/>
  <unicode hex="0021"/>
  <outline>
    <contour>
      <point x="97.0" y="249.33333333333334" type="curve"/>
      <point x="180.33333333333331" y="249.33333333333334" type="line"/>
      <point x="196.33366666666666" y="365.7776666666667"/>
      <point x="210.33333333333331" y="509.889"/>
      <point x="210.33333333333331" y="631.6666666666666" type="curve" smooth="yes"/>
      <point x="210.33333333333331" y="706.6666666666666" type="line"/>
      <point x="67.0" y="706.6666666666666" type="line"/>
      <point x="67.0" y="631.6666666666666" type="line" smooth="yes"/>
      <point x="67.0" y="513.889"/>
      <point x="80.99966666666667" y="372.44433333333336"/>
    </contour>
    <contour>
      <point x="137.0" y="-11.0" type="curve" smooth="yes"/>
      <point x="184.111" y="-11.0"/>
      <point x="216.0" y="23.444333333333333"/>
      <point x="216.0" y="72.33333333333333" type="curve" smooth="yes"/>
      <point x="216.0" y="125.66666666666667"/>
      <point x="187.22233333333332" y="155.66666666666666"/>
      <point x="137.0" y="155.66666666666666" type="curve" smooth="yes"/>
      <point x="89.889" y="155.66666666666666"/>
      <point x="58.0" y="121.22233333333334"/>
      <point x="58.0" y="72.33333333333333" type="curve" smooth="yes"/>
      <point x="58.0" y="19.0"/>
      <point x="86.77766666666666" y="-11.0"/>
    </contour>
  </outline>
</glyph>
<glyph name="quotedbl" format="2">
  <advance width="450.0"/>
  <unicode hex="0022"/>
  <outline>
    <contour>
      <point x="260.0" y="438.6666666666667" type="line"/>
      <point x="343.3333333333333" y="438.6666666666667" type="line"/>
      <point x="425.3333333333333" y="700.0" type="line"/>
      <point x="282.0" y="700.0" type="line"/>
    </contour>
    <contour>
      <point x="41.333333333333336" y="438.6666666666667" type="line"/>
      <point x="124.66666666666666" y="438.6666666666667" type="line"/>
      <point x="207.33333333333334" y="700.0" type="line"/>
      <point x="62.666666666666664" y="700.0" type="line"/>
    </contour>
  </outline>
</glyph>
<glyph name="dollar" format="2">
  <advance width="630.0"/>
  <unicode hex="0024"/>
  <outline>
    <contour>
      <point x="317.6666666666667" y="-10.0" type="curve" smooth="yes"/>
      <point x="475.88866666666667" y="-10.0"/>
      <point x="583.3333333333334" y="73.33366666666667"/>
      <point x="583.3333333333334" y="213.33333333333334" type="curve" smooth="yes"/>
      <point x="583.3333333333334" y="325.7776666666667"/>
      <point x="491.0003333333333" y="391.88866666666667"/>
      <point x="344.3333333333333" y="421.6666666666667" type="curve" smooth="yes"/>
      <point x="263.44466666666665" y="437.88866666666667"/>
      <point x="213.33333333333334" y="463.77799999999996"/>
      <point x="213.33333333333334" y="513.3333333333334" type="curve" smooth="yes"/>
      <point x="213.33333333333334" y="559.9996666666666"/>
      <point x="257.667" y="589.0"/>
      <point x="324.3333333333333" y="589.0" type="curve" smooth="yes"/>
      <point x="395.0" y="589.0"/>
      <point x="458.3333333333333" y="558.6663333333333"/>
      <point x="506.3333333333333" y="500.0" type="curve"/>
      <point x="579.6666666666666" y="599.6666666666666" type="line"/>
      <point x="519.222" y="676.111"/>
      <point x="433.7776666666667" y="713.3333333333334"/>
      <point x="322.6666666666667" y="713.3333333333334" type="curve" smooth="yes"/>
      <point x="184.0" y="713.3333333333334"/>
      <point x="68.33333333333334" y="628.333"/>
      <point x="68.33333333333334" y="507.0" type="curve" smooth="yes"/>
      <point x="68.33333333333334" y="390.111"/>
      <point x="140.889" y="320.44433333333336"/>
      <point x="290.6666666666667" y="289.3333333333333" type="curve" smooth="yes"/>
      <point x="378.3333333333333" y="272.11133333333333"/>
      <point x="439.0" y="242.88866666666667"/>
      <point x="439.0" y="188.0" type="curve" smooth="yes"/>
      <point x="439.0" y="142.222"/>
      <point x="390.2223333333333" y="113.66666666666666"/>
      <point x="326.6666666666667" y="113.66666666666666" type="curve" smooth="yes"/>
      <point x="247.54233333333335" y="113.66666666666666"/>
      <point x="185.222" y="143.00033333333334"/>
      <point x="115.0" y="227.0" type="curve"/>
      <point x="37.333333333333336" y="116.0" type="line"/>
      <point x="102.667" y="33.333"/>
      <point x="193.10466666666667" y="-10.0"/>
    </contour>
    <contour>
      <point x="257.3333333333333" y="-91.0" type="line"/>
      <point x="358.0" y="-91.0" type="line"/>
      <point x="351.3333333333333" y="336.6666666666667" type="line"/>
      <point x="264.0" y="369.6666666666667" type="line"/>
    </contour>
    <contour>
      <point x="382.6666666666667" y="336.0" type="line"/>
      <point x="389.3333333333333" y="785.3333333333334" type="line"/>
      <point x="288.6666666666667" y="785.3333333333334" type="line"/>
      <point x="295.3333333333333" y="369.0" type="line"/>
    </contour>
  </outline>
</glyph>
<glyph name="percent" format="2">
  <advance width="914.0"/>
  <unicode hex="0025"/>
  <outline>
    <contour>
      <point x="153.33333333333334" y="0.0" type="line"/>
      <point x="278.0" y="0.0" type="line"/>
      <point x="746.0" y="700.0" type="line"/>
      <point x="616.3333333333334" y="700.0" type="line"/>
    </contour>
    <contour>
      <point x="206.33333333333334" y="329.0" type="curve" smooth="yes"/>
      <point x="301.44433333333336" y="329.0"/>
      <point x="372.6666666666667" y="412.44433333333336"/>
      <point x="372.6666666666667" y="521.3333333333334" type="curve" smooth="yes"/>
      <point x="372.6666666666667" y="634.2223333333334"/>
      <point x="305.2223333333333" y="715.3333333333334"/>
      <point x="207.0" y="715.3333333333334" type="curve" smooth="yes"/>
      <point x="108.333" y="715.3333333333334"/>
      <point x="40.0" y="634.2223333333334"/>
      <point x="40.0" y="521.3333333333334" type="curve" smooth="yes"/>
      <point x="40.0" y="410.667"/>
      <point x="108.99966666666667" y="329.0"/>
    </contour>
    <contour>
      <point x="207.0" y="420.0" type="curve" smooth="yes"/>
      <point x="168.77766666666668" y="420.0"/>
      <point x="146.0" y="460.0003333333333"/>
      <point x="146.0" y="521.3333333333334" type="curve" smooth="yes"/>
      <point x="146.0" y="583.111"/>
      <point x="169.44433333333333" y="623.6666666666666"/>
      <point x="206.33333333333334" y="623.6666666666666" type="curve" smooth="yes"/>
      <point x="244.11100000000002" y="623.6666666666666"/>
      <point x="266.0" y="584.0003333333334"/>
      <point x="266.0" y="521.3333333333334" type="curve" smooth="yes"/>
      <point x="266.0" y="459.111"/>
      <point x="243.889" y="420.0"/>
    </contour>
    <contour>
      <point x="701.6666666666666" y="-9.333333333333334" type="curve" smooth="yes"/>
      <point x="796.7776666666666" y="-9.333333333333334"/>
      <point x="867.3333333333334" y="74.111"/>
      <point x="867.3333333333334" y="183.0" type="curve" smooth="yes"/>
      <point x="867.3333333333334" y="295.889"/>
      <point x="799.889" y="377.0"/>
      <point x="701.6666666666666" y="377.0" type="curve" smooth="yes"/>
      <point x="602.9996666666666" y="377.0"/>
      <point x="534.6666666666666" y="295.889"/>
      <point x="534.6666666666666" y="183.0" type="curve" smooth="yes"/>
      <point x="534.6666666666666" y="73.22233333333334"/>
      <point x="605.2223333333334" y="-9.333333333333334"/>
    </contour>
    <contour>
      <point x="701.6666666666666" y="81.0" type="curve" smooth="yes"/>
      <point x="663.4443333333334" y="81.0"/>
      <point x="640.6666666666666" y="121.667"/>
      <point x="640.6666666666666" y="183.0" type="curve" smooth="yes"/>
      <point x="640.6666666666666" y="245.667"/>
      <point x="663.889" y="285.3333333333333"/>
      <point x="701.6666666666666" y="285.3333333333333" type="curve" smooth="yes"/>
      <point x="738.5556666666666" y="285.3333333333333"/>
      <point x="761.3333333333334" y="244.77766666666668"/>
      <point x="761.3333333333334" y="183.0" type="curve" smooth="yes"/>
      <point x="761.3333333333334" y="121.667"/>
      <point x="738.5556666666666" y="81.0"/>
    </contour>
  </outline>
</glyph>
<glyph name="ampersand" format="2">
  <advance width="760.6666666666666"/>
  <unicode hex="0026"/>
  <outline>
    <contour>
      <point x="577.6666666666666" y="0.0" type="line"/>
      <point x="749.0" y="0.0" type="line"/>
      <point x="597.0" y="163.33333333333334" type="line"/>
      <point x="544.6666666666666" y="213.33333333333334" type="line"/>
      <point x="443.0" y="325.3333333333333" type="line" smooth="yes"/>
      <point x="397.44433333333336" y="373.3333333333333"/>
      <point x="307.0" y="468.889"/>
      <point x="307.0" y="525.3333333333334" type="curve" smooth="yes"/>
      <point x="307.0" y="570.222"/>
      <point x="336.11133333333333" y="594.6666666666666"/>
      <point x="386.3333333333333" y="594.6666666666666" type="curve" smooth="yes"/>
      <point x="430.77799999999996" y="594.6666666666666"/>
      <point x="459.77799999999996" y="573.9996666666666"/>
      <point x="483.3333333333333" y="516.6666666666666" type="curve"/>
      <point x="589.6666666666666" y="581.3333333333334" type="line"/>
      <point x="563.4446666666666" y="659.9996666666666"/>
      <point x="478.88866666666667" y="713.3333333333334"/>
      <point x="383.3333333333333" y="713.3333333333334" type="curve" smooth="yes"/>
      <point x="255.778" y="713.3333333333334"/>
      <point x="166.33333333333334" y="635.4446666666666"/>
      <point x="166.33333333333334" y="529.6666666666666" type="curve" smooth="yes"/>
      <point x="166.33333333333334" y="467.889"/>
      <point x="210.33333333333334" y="389.3333333333333"/>
      <point x="299.6666666666667" y="294.3333333333333" type="curve" smooth="yes"/>
      <point x="457.3333333333333" y="122.66666666666667" type="line"/>
      <point x="499.3333333333333" y="82.66666666666667" type="line"/>
    </contour>
    <contour>
      <point x="318.0" y="-10.0" type="curve" smooth="yes"/>
      <point x="508.2223333333333" y="-10.0"/>
      <point x="646.111" y="130.55533333333332"/>
      <point x="675.0" y="339.0" type="curve"/>
      <point x="549.6666666666666" y="339.0" type="line"/>
      <point x="532.333" y="198.55533333333332"/>
      <point x="447.11133333333333" y="105.0"/>
      <point x="336.0" y="105.0" type="curve" smooth="yes"/>
      <point x="241.77766666666668" y="105.0"/>
      <point x="186.0" y="154.0"/>
      <point x="186.0" y="228.66666666666666" type="curve" smooth="yes"/>
      <point x="186.0" y="292.66633333333334"/>
      <point x="225.33366666666666" y="331.9996666666667"/>
      <point x="304.0" y="349.3333333333333" type="curve"/>
      <point x="219.33333333333334" y="438.0" type="line"/>
      <point x="107.77766666666666" y="397.11133333333333"/>
      <point x="50.0" y="316.111"/>
      <point x="50.0" y="215.66666666666666" type="curve" smooth="yes"/>
      <point x="50.0" y="90.77766666666666"/>
      <point x="166.88866666666667" y="-10.0"/>
    </contour>
  </outline>
</glyph>
<glyph name="parenleft" format="2">
  <advance width="379.6666666666667"/>
  <unicode hex="0028"/>
  <outline>
    <contour>
      <point x="290.0" y="-186.0" type="curve"/>
      <point x="366.3333333333333" y="-110.66666666666667" type="line"/>
      <point x="237.88899999999998" y="-21.77766666666667"/>
      <point x="172.66666666666666" y="111.33333333333333"/>
      <point x="172.66666666666666" y="258.0" type="curve" smooth="yes"/>
      <point x="172.66666666666666" y="404.6666666666667"/>
      <point x="237.88899999999998" y="537.7776666666666"/>
      <point x="366.3333333333333" y="626.6666666666666" type="curve"/>
      <point x="291.0" y="702.0" type="line"/>
      <point x="128.333" y="600.667"/>
      <point x="40.0" y="443.333"/>
      <point x="40.0" y="258.0" type="curve" smooth="yes"/>
      <point x="40.0" y="71.333"/>
      <point x="127.333" y="-84.667"/>
    </contour>
  </outline>
</glyph>
<glyph name="parenright" format="2">
  <advance width="379.6666666666667"/>
  <unicode hex="0029"/>
  <outline>
    <contour>
      <point x="88.66666666666667" y="-186.0" type="line"/>
      <point x="251.66666666666666" y="-85.0"/>
      <point x="339.6666666666667" y="73.0"/>
      <point x="339.6666666666667" y="258.0" type="curve" smooth="yes"/>
      <point x="339.6666666666667" y="445.0"/>
      <point x="252.66666666666666" y="601.0"/>
      <point x="89.66666666666667" y="702.0" type="curve"/>
      <point x="13.333333333333334" y="626.6666666666666" type="line"/>
      <point x="141.66666666666666" y="537.6666666666666"/>
      <point x="207.0" y="404.6666666666667"/>
      <point x="207.0" y="258.0" type="curve" smooth="yes"/>
      <point x="207.0" y="111.33333333333333"/>
      <point x="141.66666666666666" y="-21.666666666666668"/>
      <point x="13.333333333333334" y="-110.66666666666667" type="curve"/>
    </contour>
  </outline>
</glyph>
<glyph name="asterisk" format="2">
  <advance width="418.0"/>
  <unicode hex="002A"/>
  <outline>
    <contour>
      <point x="163.0" y="362.6666666666667" type="line"/>
      <point x="261.0" y="362.6666666666667" type="line"/>
      <point x="248.66666666666666" y="489.6666666666667" type="line"/>
      <point x="235.0" y="491.0" type="line"/>
      <point x="347.3333333333333" y="410.6666666666667" type="line"/>
      <point x="394.0" y="490.6666666666667" type="line"/>
      <point x="267.6666666666667" y="545.0" type="line"/>
      <point x="267.6666666666667" y="534.3333333333334" type="line"/>
      <point x="395.3333333333333" y="593.0" type="line"/>
      <point x="348.6666666666667" y="674.3333333333334" type="line"/>
      <point x="235.0" y="590.6666666666666" type="line"/>
      <point x="247.66666666666666" y="583.6666666666666" type="line"/>
      <point x="260.0" y="720.6666666666666" type="line"/>
      <point x="162.0" y="720.6666666666666" type="line"/>
      <point x="174.66666666666666" y="591.3333333333334" type="line"/>
      <point x="188.0" y="591.3333333333334" type="line"/>
      <point x="70.0" y="675.6666666666666" type="line"/>
      <point x="22.666666666666668" y="595.0" type="line"/>
      <point x="148.0" y="537.0" type="line"/>
      <point x="149.33333333333334" y="544.0" type="line"/>
      <point x="24.0" y="490.0" type="line"/>
      <point x="70.66666666666667" y="409.3333333333333" type="line"/>
      <point x="186.66666666666666" y="488.0" type="line"/>
      <point x="174.66666666666666" y="489.6666666666667" type="line"/>
    </contour>
  </outline>
</glyph>
<glyph name="plus" format="2">
  <advance width="594.3333333333334"/>
  <unicode hex="002B"/>
  <outline>
    <contour>
      <point x="233.33333333333334" y="40.333333333333336" type="line"/>
      <point x="359.6666666666667" y="40.333333333333336" type="line"/>
      <point x="359.6666666666667" y="526.6666666666666" type="line"/>
      <point x="233.33333333333334" y="526.6666666666666" type="line"/>
    </contour>
    <contour>
      <point x="46.666666666666664" y="225.33333333333334" type="line"/>
      <point x="547.6666666666666" y="225.33333333333334" type="line"/>
      <point x="547.6666666666666" y="338.6666666666667" type="line"/>
      <point x="46.666666666666664" y="338.6666666666667" type="line"/>
    </contour>
  </outline>
</glyph>
<glyph name="comma" format="2">
  <advance width="278.6666666666667"/>
  <unicode hex="002C"/>
  <outline>
    <contour>
      <point x="86.0" y="-191.0" type="line"/>
      <point x="171.77766666666668" y="-162.11133333333333"/>
      <point x="234.66666666666666" y="-79.667"/>
      <point x="234.66666666666666" y="4.333333333333333" type="curve" smooth="yes"/>
      <point x="234.66666666666666" y="75.44466666666666"/>
      <point x="192.778" y="124.66666666666667"/>
      <point x="137.66666666666666" y="124.66666666666667" type="curve" smooth="yes"/>
      <point x="95.0" y="124.66666666666667"/>
      <point x="65.0" y="100.66666666666667"/>
      <point x="65.0" y="63.333333333333336" type="curve" smooth="yes"/>
      <point x="65.0" y="39.333333333333336"/>
      <point x="72.44433333333333" y="21.666333333333334"/>
      <point x="101.33333333333333" y="-2.333333333333333" type="curve" smooth="yes"/>
      <point x="123.99966666666667" y="-22.33366666666667"/>
      <point x="128.0" y="-33.778"/>
      <point x="128.0" y="-46.666666666666664" type="curve" smooth="yes"/>
      <point x="128.0" y="-72.44433333333333"/>
      <point x="94.00033333333333" y="-113.66633333333333"/>
      <point x="43.333333333333336" y="-139.0" type="curve"/>
    </contour>
  </outline>
</glyph>
<glyph name="hyphen" format="2">
  <advance width="425.3333333333333"/>
  <unicode hex="002D"/>
  <outline>
    <contour>
      <point x="52.0" y="222.66666666666666" type="line"/>
      <point x="373.3333333333333" y="222.66666666666666" type="line"/>
      <point x="373.3333333333333" y="350.6666666666667" type="line"/>
      <point x="52.0" y="350.6666666666667" type="line"/>
    </contour>
  </outline>
</glyph>
<glyph name="period" format="2">
  <advance width="244.66666666666666"/>
  <unicode hex="002E"/>
  <outline>
    <contour>
      <point x="122.33333333333333" y="-11.0" type="curve" smooth="yes"/>
      <point x="169.44433333333333" y="-11.0"/>
      <point x="201.33333333333334" y="23.444333333333333"/>
      <point x="201.33333333333334" y="72.33333333333333" type="curve" smooth="yes"/>
      <point x="201.33333333333334" y="125.66666666666667"/>
      <point x="172.55566666666667" y="155.66666666666666"/>
      <point x="122.33333333333333" y="155.66666666666666" type="curve" smooth="yes"/>
      <point x="75.22233333333334" y="155.66666666666666"/>
      <point x="43.333333333333336" y="121.22233333333334"/>
      <point x="43.333333333333336" y="72.33333333333333" type="curve" smooth="yes"/>
      <point x="43.333333333333336" y="19.0"/>
      <point x="72.111" y="-11.0"/>
    </contour>
  </outline>
</glyph>
<glyph name="slash" format="2">
  <advance width="579.0"/>
  <unicode hex="002F"/>
  <outline>
    <contour>
      <point x="12.0" y="-137.66666666666666" type="line"/>
      <point x="147.33333333333334" y="-137.66666666666666" type="line"/>
      <point x="560.3333333333334" y="700.0" type="line"/>
      <point x="426.3333333333333" y="700.0" type="line"/>
    </contour>
  </outline>
</glyph>
<glyph name="zero" format="2">
  <advance width="646.3333333333334"/>
  <unicode hex="0030"/>
  <outline>
    <contour>
      <point x="322.6666666666667" y="-10.0" type="curve" smooth="yes"/>
      <point x="499.5556666666667" y="-10.0"/>
      <point x="604.0" y="125.55566666666667"/>
      <point x="604.0" y="350.0" type="curve" smooth="yes"/>
      <point x="604.0" y="574.4443333333334"/>
      <point x="499.5556666666667" y="710.0"/>
      <point x="322.6666666666667" y="710.0" type="curve" smooth="yes"/>
      <point x="145.77766666666668" y="710.0"/>
      <point x="42.333333333333336" y="574.4443333333334"/>
      <point x="42.333333333333336" y="350.0" type="curve" smooth="yes"/>
      <point x="42.333333333333336" y="125.55566666666667"/>
      <point x="145.77766666666668" y="-10.0"/>
    </contour>
    <contour>
      <point x="322.6666666666667" y="114.66666666666666" type="curve" smooth="yes"/>
      <point x="231.55566666666667" y="114.66666666666666"/>
      <point x="179.66666666666666" y="199.77766666666668"/>
      <point x="179.66666666666666" y="350.0" type="curve" smooth="yes"/>
      <point x="179.66666666666666" y="502.4446666666667"/>
      <point x="231.55566666666667" y="588.6666666666666"/>
      <point x="322.6666666666667" y="588.6666666666666" type="curve" smooth="yes"/>
      <point x="413.7776666666667" y="588.6666666666666"/>
      <point x="465.6666666666667" y="502.4446666666667"/>
      <point x="465.6666666666667" y="350.0" type="curve" smooth="yes"/>
      <point x="465.6666666666667" y="199.77766666666668"/>
      <point x="413.7776666666667" y="114.66666666666666"/>
    </contour>
  </outline>
</glyph>
<glyph name="one" format="2">
  <advance width="535.6666666666666"/>
  <unicode hex="0031"/>
  <outline>
    <contour>
      <point x="213.66666666666666" y="49.0" type="line"/>
      <point x="356.0" y="49.0" type="line"/>
      <point x="356.0" y="710.0" type="line"/>
      <point x="270.6666666666667" y="710.0" type="line"/>
      <point x="76.66666666666667" y="611.6666666666666" type="line"/>
      <point x="105.66666666666667" y="484.3333333333333" type="line"/>
      <point x="250.66666666666666" y="555.6666666666666" type="line"/>
      <point x="213.66666666666666" y="617.0" type="line"/>
    </contour>
    <contour>
      <point x="92.66666666666667" y="0.0" type="line"/>
      <point x="480.0" y="0.0" type="line"/>
      <point x="480.0" y="130.66666666666666" type="line"/>
      <point x="92.66666666666667" y="130.66666666666666" type="line"/>
    </contour>
  </outline>
</glyph>
<glyph name="two" format="2">
  <advance width="548.0"/>
  <unicode hex="0032"/>
  <outline>
    <contour>
      <point x="73.33333333333334" y="0.0" type="line"/>
      <point x="529.3333333333334" y="0.0" type="line"/>
      <point x="529.3333333333334" y="130.66666666666666" type="line"/>
      <point x="182.0" y="130.66666666666666" type="line"/>
      <point x="202.0" y="74.0" type="line"/>
      <point x="361.0" y="247.0" type="line" smooth="yes"/>
      <point x="462.871" y="358.55566666666664"/>
      <point x="502.0" y="440.55566666666664"/>
      <point x="502.0" y="514.3333333333334" type="curve" smooth="yes"/>
      <point x="502.0" y="632.5556666666666"/>
      <point x="410.44466666666665" y="712.889"/>
      <point x="288.6666666666667" y="713.3333333333334" type="curve" smooth="yes"/>
      <point x="172.222" y="713.7776666666666"/>
      <point x="74.44433333333333" y="638.0"/>
      <point x="36.66666666666667" y="522.0" type="curve"/>
      <point x="144.33333333333334" y="460.6666666666667" type="line"/>
      <point x="173.222" y="536.667"/>
      <point x="222.667" y="580.0"/>
      <point x="273.3333333333333" y="580.0" type="curve" smooth="yes"/>
      <point x="330.8516666666667" y="580.0"/>
      <point x="362.6666666666667" y="548.0"/>
      <point x="362.6666666666667" y="498.6666666666667" type="curve" smooth="yes"/>
      <point x="362.6666666666667" y="444.0"/>
      <point x="293.2223333333333" y="362.2223333333333"/>
      <point x="248.33333333333334" y="312.6666666666667" type="curve" smooth="yes"/>
      <point x="40.0" y="82.0" type="line"/>
    </contour>
  </outline>
</glyph>
<glyph name="three" format="2">
  <advance width="565.0"/>
  <unicode hex="0033"/>
  <outline>
    <contour>
      <point x="272.0" y="-10.0" type="curve" smooth="yes"/>
      <point x="415.55566666666664" y="-10.0"/>
      <point x="528.3333333333334" y="92.55566666666667"/>
      <point x="528.3333333333334" y="230.33333333333334" type="curve" smooth="yes"/>
      <point x="528.3333333333334" y="353.44433333333336"/>
      <point x="427.88866666666667" y="449.6666666666667"/>
      <point x="307.0" y="449.6666666666667" type="curve" smooth="yes"/>
      <point x="287.0" y="449.6666666666667"/>
      <point x="257.667" y="443.9996666666667"/>
      <point x="247.0" y="438.6666666666667" type="curve"/>
      <point x="280.3333333333333" y="400.3333333333333" type="line"/>
      <point x="511.0" y="650.6666666666666" type="line"/>
      <point x="484.6666666666667" y="703.3333333333334" type="line"/>
      <point x="66.66666666666667" y="703.3333333333334" type="line"/>
      <point x="66.66666666666667" y="578.3333333333334" type="line"/>
      <point x="361.0" y="575.0" type="line"/>
      <point x="325.3333333333333" y="602.6666666666666" type="line"/>
      <point x="136.0" y="395.3333333333333" type="line"/>
      <point x="170.33333333333334" y="305.0" type="line"/>
      <point x="214.33933333333334" y="324.09766666666667"/>
      <point x="252.32500000000002" y="334.0"/>
      <point x="283.0" y="334.0" type="curve" smooth="yes"/>
      <point x="352.64733333333334" y="334.0"/>
      <point x="394.0" y="295.889"/>
      <point x="394.0" y="227.0" type="curve" smooth="yes"/>
      <point x="394.0" y="159.44433333333333"/>
      <point x="340.889" y="111.66666666666666"/>
      <point x="278.6666666666667" y="111.66666666666666" type="curve" smooth="yes"/>
      <point x="222.667" y="111.66666666666666"/>
      <point x="173.77766666666668" y="140.111"/>
      <point x="128.0" y="211.66666666666666" type="curve"/>
      <point x="21.666666666666668" y="144.0" type="line"/>
      <point x="88.77766666666666" y="31.555333333333333"/>
      <point x="164.88866666666667" y="-10.0"/>
    </contour>
  </outline>
</glyph>
<glyph name="four" format="2">
  <advance width="644.3333333333334"/>
  <unicode hex="0034"/>
  <outline>
    <contour>
      <point x="350.3333333333333" y="0.0" type="line"/>
      <point x="489.3333333333333" y="0.0" type="line"/>
      <point x="489.3333333333333" y="703.3333333333334" type="line"/>
      <point x="374.6666666666667" y="703.3333333333334" type="line"/>
      <point x="23.333333333333336" y="277.3333333333333" type="line"/>
      <point x="82.66666666666667" y="163.33333333333334" type="line"/>
      <point x="606.3333333333334" y="163.33333333333334" type="line"/>
      <point x="606.3333333333334" y="286.0" type="line"/>
      <point x="154.66666666666666" y="286.0" type="line"/>
      <point x="170.33333333333334" y="263.6666666666667" type="line"/>
      <point x="413.6666666666667" y="561.3333333333334" type="line"/>
      <point x="350.3333333333333" y="565.3333333333334" type="line"/>
    </contour>
  </outline>
</glyph>
<glyph name="five" format="2">
  <advance width="584.3333333333334"/>
  <unicode hex="0035"/>
  <outline>
    <contour>
      <point x="271.6666666666667" y="-7.0" type="curve" smooth="yes"/>
      <point x="417.889" y="-7.0"/>
      <point x="529.3333333333334" y="99.333"/>
      <point x="529.3333333333334" y="238.0" type="curve" smooth="yes"/>
      <point x="529.3333333333334" y="375.77799999999996"/>
      <point x="431.111" y="473.0"/>
      <point x="300.0" y="473.0" type="curve" smooth="yes"/>
      <point x="241.33366666666666" y="473.0"/>
      <point x="171.55566666666667" y="448.111"/>
      <point x="141.33333333333334" y="421.0" type="curve"/>
      <point x="186.33333333333334" y="397.0" type="line"/>
      <point x="219.33333333333334" y="619.0" type="line"/>
      <point x="185.0" y="578.3333333333334" type="line"/>
      <point x="501.6666666666667" y="578.3333333333334" type="line"/>
      <point x="501.6666666666667" y="703.3333333333334" type="line"/>
      <point x="109.66666666666667" y="703.3333333333334" type="line"/>
      <point x="67.33333333333333" y="399.3333333333333" type="line"/>
      <point x="133.33333333333334" y="311.3333333333333" type="line"/>
      <point x="201.77766666666668" y="348.2223333333333"/>
      <point x="230.11133333333333" y="355.0"/>
      <point x="272.3333333333333" y="355.0" type="curve" smooth="yes"/>
      <point x="341.66633333333334" y="355.0"/>
      <point x="394.3333333333333" y="303.7776666666667"/>
      <point x="394.3333333333333" y="235.33333333333334" type="curve" smooth="yes"/>
      <point x="394.3333333333333" y="170.0"/>
      <point x="340.77799999999996" y="119.0"/>
      <point x="268.3333333333333" y="119.0" type="curve" smooth="yes"/>
      <point x="212.333" y="119.0"/>
      <point x="170.778" y="138.33366666666666"/>
      <point x="113.0" y="202.33333333333334" type="curve"/>
      <point x="34.666666666666664" y="116.0" type="line"/>
      <point x="88.44433333333333" y="36.44433333333333"/>
      <point x="171.66666666666666" y="-7.0"/>
    </contour>
  </outline>
</glyph>
<glyph name="six" format="2">
  <advance width="570.0"/>
  <unicode hex="0036"/>
  <outline>
    <contour>
      <point x="289.3333333333333" y="0.0" type="curve" smooth="yes"/>
      <point x="434.6666666666667" y="0.0"/>
      <point x="540.0" y="111.11133333333333"/>
      <point x="540.0" y="260.0" type="curve" smooth="yes"/>
      <point x="540.0" y="384.0"/>
      <point x="441.0" y="489.0"/>
      <point x="323.6666666666667" y="489.0" type="curve" smooth="yes"/>
      <point x="241.889" y="489.0"/>
      <point x="155.889" y="433.2223333333333"/>
      <point x="119.0" y="343.0" type="curve"/>
      <point x="147.66666666666666" y="260.0" type="line"/>
      <point x="172.0" y="333.88866666666667"/>
      <point x="204.66666666666666" y="408.11133333333333"/>
      <point x="260.0" y="499.3333333333333" type="curve" smooth="yes"/>
      <point x="385.0" y="701.3333333333334" type="line"/>
      <point x="381.0" y="711.3333333333334" type="line"/>
      <point x="245.66666666666666" y="711.3333333333334" type="line"/>
      <point x="150.66666666666666" y="551.3333333333334" type="line" smooth="yes"/>
      <point x="79.44466666666666" y="432.44466666666665"/>
      <point x="36.666666666666664" y="336.889"/>
      <point x="36.666666666666664" y="250.66666666666666" type="curve" smooth="yes"/>
      <point x="36.666666666666664" y="108.44433333333333"/>
      <point x="147.111" y="0.0"/>
    </contour>
    <contour>
      <point x="290.6666666666667" y="123.33333333333333" type="curve" smooth="yes"/>
      <point x="219.11133333333333" y="123.33333333333333"/>
      <point x="168.33333333333334" y="177.889"/>
      <point x="168.33333333333334" y="250.33333333333334" type="curve" smooth="yes"/>
      <point x="168.33333333333334" y="318.33366666666666"/>
      <point x="219.55533333333332" y="372.3333333333333"/>
      <point x="292.0" y="372.3333333333333" type="curve" smooth="yes"/>
      <point x="357.333" y="372.3333333333333"/>
      <point x="410.3333333333333" y="314.11133333333333"/>
      <point x="410.3333333333333" y="249.66666666666666" type="curve" smooth="yes"/>
      <point x="410.3333333333333" y="174.99966666666666"/>
      <point x="359.55533333333335" y="123.33333333333333"/>
    </contour>
  </outline>
</glyph>
<glyph name="seven" format="2">
  <advance width="548.3333333333334"/>
  <unicode hex="0037"/>
  <outline>
    <contour>
      <point x="96.0" y="0.0" type="line"/>
      <point x="243.33333333333334" y="0.0" type="line"/>
      <point x="513.3333333333334" y="627.3333333333334" type="line"/>
      <point x="498.3333333333333" y="703.3333333333334" type="line"/>
      <point x="51.66666666666667" y="703.3333333333334" type="line"/>
      <point x="51.66666666666667" y="575.3333333333334" type="line"/>
      <point x="412.6666666666667" y="575.3333333333334" type="line"/>
      <point x="380.0" y="635.3333333333334" type="line"/>
    </contour>
  </outline>
</glyph>
<glyph name="eight" format="2">
  <advance width="590.3333333333334"/>
  <unicode hex="0038"/>
  <outline>
    <contour>
      <point x="294.6666666666667" y="-3.0" type="curve" smooth="yes"/>
      <point x="434.2223333333333" y="-3.0"/>
      <point x="545.0" y="86.11133333333333"/>
      <point x="545.0" y="203.0" type="curve" smooth="yes"/>
      <point x="545.0" y="294.6093333333333"/>
      <point x="484.889" y="363.86966666666666"/>
      <point x="397.6666666666667" y="391.0" type="curve"/>
      <point x="404.0" y="362.6666666666667" type="line"/>
      <point x="481.79766666666666" y="394.04833333333335"/>
      <point x="523.6666666666666" y="446.515"/>
      <point x="523.6666666666666" y="515.6666666666666" type="curve" smooth="yes"/>
      <point x="523.6666666666666" y="623.6663333333333"/>
      <point x="421.333" y="706.6666666666666"/>
      <point x="294.6666666666667" y="706.6666666666666" type="curve" smooth="yes"/>
      <point x="168.00033333333334" y="706.6666666666666"/>
      <point x="65.66666666666667" y="623.6663333333333"/>
      <point x="65.66666666666667" y="515.6666666666666" type="curve" smooth="yes"/>
      <point x="65.66666666666667" y="446.515"/>
      <point x="111.367" y="390.967"/>
      <point x="184.33333333333334" y="362.6666666666667" type="curve"/>
      <point x="193.66666666666666" y="395.0" type="line"/>
      <point x="97.48133333333334" y="361.18233333333336"/>
      <point x="45.333333333333336" y="298.47433333333333"/>
      <point x="45.333333333333336" y="203.0" type="curve" smooth="yes"/>
      <point x="45.333333333333336" y="87.44433333333333"/>
      <point x="156.44433333333333" y="-3.0"/>
    </contour>
    <contour>
      <point x="294.6666666666667" y="116.66666666666666" type="curve" smooth="yes"/>
      <point x="232.00033333333332" y="116.66666666666666"/>
      <point x="183.66666666666666" y="157.66666666666666"/>
      <point x="183.66666666666666" y="211.0" type="curve" smooth="yes"/>
      <point x="183.66666666666666" y="267.88866666666667"/>
      <point x="232.00033333333332" y="310.0"/>
      <point x="294.6666666666667" y="310.0" type="curve" smooth="yes"/>
      <point x="359.11133333333333" y="310.0"/>
      <point x="406.3333333333333" y="267.88866666666667"/>
      <point x="406.3333333333333" y="211.0" type="curve" smooth="yes"/>
      <point x="406.3333333333333" y="156.33366666666666"/>
      <point x="358.667" y="116.66666666666666"/>
    </contour>
    <contour>
      <point x="294.6666666666667" y="428.3333333333333" type="curve" smooth="yes"/>
      <point x="239.11100000000002" y="428.3333333333333"/>
      <point x="198.0" y="462.44466666666665"/>
      <point x="198.0" y="510.0" type="curve" smooth="yes"/>
      <point x="198.0" y="557.5553333333334"/>
      <point x="239.11100000000002" y="593.6666666666666"/>
      <point x="294.6666666666667" y="593.6666666666666" type="curve" smooth="yes"/>
      <point x="350.2223333333333" y="593.6666666666666"/>
      <point x="391.3333333333333" y="557.5553333333334"/>
      <point x="391.3333333333333" y="510.0" type="curve" smooth="yes"/>
      <point x="391.3333333333333" y="462.44466666666665"/>
      <point x="350.2223333333333" y="428.3333333333333"/>
    </contour>
  </outline>
</glyph>
<glyph name="nine" format="2">
  <advance width="566.0"/>
  <unicode hex="0039"/>
  <outline>
    <contour>
      <point x="216.33333333333334" y="0.0" type="line"/>
      <point x="352.3333333333333" y="0.0" type="line"/>
      <point x="438.6666666666667" y="174.0" type="line" smooth="yes"/>
      <point x="504.88899999999995" y="310.44466666666665"/>
      <point x="536.0" y="392.88866666666667"/>
      <point x="536.0" y="476.0" type="curve" smooth="yes"/>
      <point x="536.0" y="607.111"/>
      <point x="422.72066666666666" y="714.6666666666666"/>
      <point x="284.0" y="714.6666666666666" type="curve" smooth="yes"/>
      <point x="139.431" y="714.6666666666666"/>
      <point x="30.0" y="604.4446666666666"/>
      <point x="30.0" y="460.0" type="curve" smooth="yes"/>
      <point x="30.0" y="339.55533333333335"/>
      <point x="126.333" y="236.33333333333334"/>
      <point x="241.0" y="236.33333333333334" type="curve" smooth="yes"/>
      <point x="319.621" y="236.33333333333334"/>
      <point x="410.7753333333334" y="294.75100000000003"/>
      <point x="445.0" y="382.3333333333333" type="curve"/>
      <point x="427.0" y="452.0" type="line"/>
      <point x="212.33333333333334" y="10.0" type="line"/>
    </contour>
    <contour>
      <point x="274.3333333333333" y="356.3333333333333" type="curve" smooth="yes"/>
      <point x="213.47966666666667" y="356.3333333333333"/>
      <point x="164.33333333333334" y="411.44466666666665"/>
      <point x="164.33333333333334" y="472.3333333333333" type="curve" smooth="yes"/>
      <point x="164.33333333333334" y="543.4443333333334"/>
      <point x="211.307" y="592.0"/>
      <point x="275.6666666666667" y="592.0" type="curve" smooth="yes"/>
      <point x="344.6513333333333" y="592.0"/>
      <point x="393.0" y="540.5556666666666"/>
      <point x="393.0" y="471.6666666666667" type="curve" smooth="yes"/>
      <point x="393.0" y="407.2223333333333"/>
      <point x="343.318" y="356.3333333333333"/>
    </contour>
  </outline>
</glyph>
<glyph name="less" format="2">
  <advance width="524.6666666666666"/>
  <unicode hex="003C"/>
  <outline>
    <contour>
      <point x="421.6666666666667" y="-6.0" type="line"/>
      <point x="479.6666666666667" y="99.0" type="line"/>
      <point x="132.0" y="289.0" type="line"/>
      <point x="132.0" y="220.66666666666666" type="line"/>
      <point x="479.6666666666667" y="410.6666666666667" type="line"/>
      <point x="421.6666666666667" y="515.6666666666666" type="line"/>
      <point x="45.0" y="300.0" type="line"/>
      <point x="45.0" y="209.66666666666666" type="line"/>
    </contour>
  </outline>
</glyph>
<glyph name="equal" format="2">
  <advance width="599.3333333333334"/>
  <unicode hex="003D"/>
  <outline>
    <contour>
      <point x="60.0" y="327.6666666666667" type="line"/>
      <point x="539.3333333333334" y="327.6666666666667" type="line"/>
      <point x="539.3333333333334" y="441.0" type="line"/>
      <point x="60.0" y="441.0" type="line"/>
    </contour>
    <contour>
      <point x="60.0" y="122.0" type="line"/>
      <point x="539.3333333333334" y="122.0" type="line"/>
      <point x="539.3333333333334" y="234.66666666666666" type="line"/>
      <point x="60.0" y="234.66666666666666" type="line"/>
    </contour>
  </outline>
</glyph>
<glyph name="greater" format="2">
  <advance width="525.0"/>
  <unicode hex="003E"/>
  <outline>
    <contour>
      <point x="108.33333333333333" y="-6.0" type="line"/>
      <point x="485.0" y="209.66666666666666" type="line"/>
      <point x="485.0" y="300.0" type="line"/>
      <point x="108.33333333333333" y="515.6666666666666" type="line"/>
      <point x="50.333333333333336" y="410.6666666666667" type="line"/>
      <point x="398.0" y="220.66666666666666" type="line"/>
      <point x="398.0" y="289.0" type="line"/>
      <point x="50.333333333333336" y="99.0" type="line"/>
    </contour>
  </outline>
</glyph>
<glyph name="question" format="2">
  <advance width="525.3333333333334"/>
  <unicode hex="003F"/>
  <outline>
    <contour>
      <point x="194.33333333333334" y="227.66666666666666" type="line"/>
      <point x="276.6666666666667" y="227.66666666666666" type="line"/>
      <point x="289.6186666666667" y="287.5026666666667" type="line"/>
      <point x="402.536" y="324.144"/>
      <point x="485.3333333333333" y="415.97200000000004"/>
      <point x="485.3333333333333" y="511.0" type="curve" smooth="yes"/>
      <point x="485.3333333333333" y="625.2223333333334"/>
      <point x="385.55533333333335" y="712.6666666666666"/>
      <point x="256.6666666666667" y="712.6666666666666" type="curve" smooth="yes"/>
      <point x="167.333" y="712.6666666666666"/>
      <point x="82.111" y="660.6666666666666"/>
      <point x="23.0" y="570.0" type="curve"/>
      <point x="118.0" y="484.6666666666667" type="line"/>
      <point x="154.889" y="553.5556666666666"/>
      <point x="203.11133333333333" y="586.3333333333334"/>
      <point x="251.33333333333334" y="586.3333333333334" type="curve" smooth="yes"/>
      <point x="305.889" y="586.3333333333334"/>
      <point x="345.6666666666667" y="553.778"/>
      <point x="345.6666666666667" y="506.3333333333333" type="curve" smooth="yes"/>
      <point x="345.6666666666667" y="434.88866666666667"/>
      <point x="276.11133333333333" y="391.77799999999996"/>
      <point x="164.66666666666666" y="363.0" type="curve"/>
    </contour>
    <contour>
      <point x="158.66666666666666" y="72.33333333333333" type="curve" smooth="yes"/>
      <point x="158.66666666666666" y="19.0"/>
      <point x="187.44433333333333" y="-11.0"/>
      <point x="237.66666666666666" y="-11.0" type="curve" smooth="yes"/>
      <point x="284.7776666666667" y="-11.0"/>
      <point x="316.6666666666667" y="23.444333333333333"/>
      <point x="316.6666666666667" y="72.33333333333333" type="curve" smooth="yes"/>
      <point x="316.6666666666667" y="125.66666666666667"/>
      <point x="287.889" y="155.66666666666666"/>
      <point x="237.66666666666666" y="155.66666666666666" type="curve" smooth="yes"/>
      <point x="190.55566666666667" y="155.66666666666666"/>
      <point x="158.66666666666666" y="121.22233333333334"/>
    </contour>
  </outline>
</glyph>
<glyph name="at" format="2">
  <advance width="965.0"/>
  <unicode hex="0040"/>
  <outline>
    <contour>
      <point x="414.0" y="-162.0" type="curve" smooth="yes"/>
      <point x="494.0" y="-162.0"/>
      <point x="551.667" y="-149.0"/>
      <point x="669.0" y="-89.0" type="curve"/>
      <point x="632.0" y="-22.0" type="line"/>
      <point x="556.0" y="-63.0"/>
      <point x="511.0" y="-82.0"/>
      <point x="417.0" y="-82.0" type="curve" smooth="yes"/>
      <point x="229.0" y="-82.0"/>
      <point x="124.0" y="26.333"/>
      <point x="124.0" y="209.0" type="curve" smooth="yes"/>
      <point x="124.0" y="472.42699999999996"/>
      <point x="297.37266666666665" y="631.0"/>
      <point x="570.6666666666666" y="631.0" type="curve" smooth="yes"/>
      <point x="740.8356666666666" y="631.0"/>
      <point x="842.0" y="540.958"/>
      <point x="842.0" y="391.0" type="curve" smooth="yes"/>
      <point x="842.0" y="257.2223333333333"/>
      <point x="783.0036666666666" y="143.66666666666666"/>
      <point x="706.6666666666666" y="143.66666666666666" type="curve" smooth="yes"/>
      <point x="682.667" y="143.66666666666666"/>
      <point x="661.0" y="158.66666666666666"/>
      <point x="667.0" y="193.33333333333334" type="curve" smooth="yes"/>
      <point x="722.6666666666666" y="506.3333333333333" type="line"/>
      <point x="596.6666666666666" y="506.3333333333333" type="line"/>
      <point x="569.0" y="351.0" type="line"/>
      <point x="596.6666666666666" y="391.6666666666667" type="line"/>
      <point x="589.9993333333333" y="466.3403333333333"/>
      <point x="543.9996666666666" y="516.6666666666666"/>
      <point x="482.6666666666667" y="516.6666666666666" type="curve" smooth="yes"/>
      <point x="343.3333333333333" y="516.6666666666666"/>
      <point x="241.66666666666666" y="364.3333333333333"/>
      <point x="241.66666666666666" y="237.0" type="curve" smooth="yes"/>
      <point x="241.66666666666666" y="127.22233333333334"/>
      <point x="307.30966666666666" y="51.666666666666664"/>
      <point x="396.3333333333333" y="51.666666666666664" type="curve" smooth="yes"/>
      <point x="476.3333333333333" y="51.666666666666664"/>
      <point x="539.222" y="105.55533333333334"/>
      <point x="570.3333333333334" y="202.0" type="curve"/>
      <point x="549.6666666666666" y="222.0" type="line"/>
      <point x="547.6666666666666" y="198.0"/>
      <point x="543.3333333333334" y="175.0"/>
      <point x="543.3333333333334" y="153.66666666666666" type="curve" smooth="yes"/>
      <point x="543.039" y="92.10766666666666"/>
      <point x="595.301" y="51.666666666666664"/>
      <point x="669.0" y="51.666666666666664" type="curve" smooth="yes"/>
      <point x="813.0" y="51.666666666666664"/>
      <point x="925.0" y="212.889"/>
      <point x="925.0" y="396.0" type="curve" smooth="yes"/>
      <point x="925.0" y="582.667"/>
      <point x="788.0" y="710.0"/>
      <point x="576.0" y="710.0" type="curve" smooth="yes"/>
      <point x="279.0" y="710.0"/>
      <point x="40.0" y="519.0"/>
      <point x="40.0" y="206.0" type="curve" smooth="yes"/>
      <point x="40.0" y="-14.0"/>
      <point x="180.667" y="-162.0"/>
    </contour>
    <contour>
      <point x="430.3333333333333" y="157.33333333333334" type="curve" smooth="yes"/>
      <point x="394.7776666666667" y="157.33333333333334"/>
      <point x="372.6666666666667" y="187.72333333333333"/>
      <point x="372.6666666666667" y="237.66666666666666" type="curve" smooth="yes"/>
      <point x="372.6666666666667" y="327.44466666666665"/>
      <point x="427.825" y="414.6666666666667"/>
      <point x="497.0" y="414.6666666666667" type="curve" smooth="yes"/>
      <point x="541.778" y="414.6666666666667"/>
      <point x="566.3333333333334" y="387.0"/>
      <point x="566.3333333333334" y="342.3333333333333" type="curve" smooth="yes"/>
      <point x="566.3333333333334" y="327.3333333333333"/>
      <point x="563.658" y="311.9493333333333"/>
      <point x="560.0" y="291.0" type="curve" smooth="yes"/>
      <point x="548.804" y="220.93966666666668"/>
      <point x="488.7246666666667" y="157.33333333333334"/>
    </contour>
  </outline>
</glyph>
<glyph name="A" format="2">
  <advance width="696.6666666666666"/>
  <unicode hex="0041"/>
  <anchor x="348.3333333333333" y="0.0" name="bottom"/>
  <anchor x="660.3333333333334" y="0.0" name="ogonek"/>
  <anchor x="348.3333333333333" y="700.0" name="top"/>
  <outline>
    <contour>
      <point x="10.0" y="0.0" type="line"/>
      <point x="153.33333333333334" y="0.0" type="line"/>
      <point x="296.6666666666667" y="380.6666666666667" type="line" smooth="yes"/>
      <point x="318.0" y="437.3333333333333"/>
      <point x="343.889" y="516.0"/>
      <point x="360.3333333333333" y="574.0" type="curve"/>
      <point x="333.6666666666667" y="573.3333333333334" type="line"/>
      <point x="344.7343333333333" y="530.5206666666667"/>
      <point x="380.0" y="423.6666666666667"/>
      <point x="394.6666666666667" y="383.3333333333333" type="curve" smooth="yes"/>
      <point x="538.6666666666666" y="0.0" type="line"/>
      <point x="686.6666666666666" y="0.0" type="line"/>
      <point x="414.3333333333333" y="700.0" type="line"/>
      <point x="284.3333333333333" y="700.0" type="line"/>
    </contour>
    <contour>
      <point x="136.66666666666666" y="150.66666666666666" type="line"/>
      <point x="554.3333333333334" y="150.66666666666666" type="line"/>
      <point x="504.6666666666667" y="269.0" type="line"/>
      <point x="184.33333333333334" y="269.0" type="line"/>
    </contour>
  </outline>
</glyph>
<glyph name="B" format="2">
  <advance width="692.3333333333334"/>
  <unicode hex="0042"/>
  <anchor x="346.6666666666667" y="0.0" name="bottom"/>
  <anchor x="346.6666666666667" y="700.0" name="top"/>
  <outline>
    <contour>
      <point x="92.0" y="0.0" type="line"/>
      <point x="404.0" y="0.0" type="line" smooth="yes"/>
      <point x="550.667" y="0.0"/>
      <point x="647.0" y="71.55566666666667"/>
      <point x="647.0" y="209.33333333333334" type="curve" smooth="yes"/>
      <point x="647.0" y="304.3333333333333"/>
      <point x="584.6666666666666" y="370.3333333333333"/>
      <point x="492.3333333333333" y="391.6666666666667" type="curve"/>
      <point x="493.3333333333333" y="372.0" type="line"/>
      <point x="567.6666666666666" y="391.6666666666667"/>
      <point x="610.0" y="447.6666666666667"/>
      <point x="610.0" y="526.3333333333334" type="curve" smooth="yes"/>
      <point x="610.0" y="637.0003333333334"/>
      <point x="534.4446666666666" y="700.0"/>
      <point x="394.0" y="700.0" type="curve" smooth="yes"/>
      <point x="92.0" y="700.0" type="line"/>
    </contour>
    <contour>
      <point x="230.66666666666666" y="126.0" type="line"/>
      <point x="230.66666666666666" y="298.0" type="line"/>
      <point x="393.0" y="298.0" type="line" smooth="yes"/>
      <point x="460.9996666666667" y="298.0"/>
      <point x="503.6666666666667" y="267.889"/>
      <point x="503.6666666666667" y="215.0" type="curve" smooth="yes"/>
      <point x="503.6666666666667" y="157.66633333333334"/>
      <point x="464.66633333333334" y="126.0"/>
      <point x="398.0" y="126.0" type="curve" smooth="yes"/>
    </contour>
    <contour>
      <point x="230.66666666666666" y="415.3333333333333" type="line"/>
      <point x="230.66666666666666" y="574.0" type="line"/>
      <point x="369.0" y="574.0" type="line" smooth="yes"/>
      <point x="434.77799999999996" y="574.0"/>
      <point x="468.6666666666667" y="544.889"/>
      <point x="468.6666666666667" y="494.6666666666667" type="curve" smooth="yes"/>
      <point x="468.6666666666667" y="447.111"/>
      <point x="433.2223333333333" y="415.3333333333333"/>
      <point x="377.6666666666667" y="415.3333333333333" type="curve" smooth="yes"/>
    </contour>
  </outline>
</glyph>
<glyph name="C" format="2">
  <advance width="687.6666666666666"/>
  <unicode hex="0043"/>
  <anchor x="388.3333333333333" y="0.0" name="bottom"/>
  <anchor x="402.0" y="700.0" name="top"/>
  <outline>
    <contour>
      <point x="396.0" y="-10.0" type="curve" smooth="yes"/>
      <point x="496.88899999999995" y="-10.0"/>
      <point x="602.5553333333334" y="31.221999999999998"/>
      <point x="651.0" y="86.33333333333333" type="curve"/>
      <point x="580.6666666666666" y="199.0" type="line"/>
      <point x="539.778" y="155.88866666666667"/>
      <point x="479.77799999999996" y="127.33333333333333"/>
      <point x="415.3333333333333" y="127.33333333333333" type="curve" smooth="yes"/>
      <point x="282.0" y="127.33333333333333"/>
      <point x="192.66666666666666" y="214.667"/>
      <point x="192.66666666666666" y="350.6666666666667" type="curve" smooth="yes"/>
      <point x="192.66666666666666" y="483.55566666666664"/>
      <point x="285.55533333333335" y="573.6666666666666"/>
      <point x="403.3333333333333" y="573.6666666666666" type="curve" smooth="yes"/>
      <point x="466.889" y="573.6666666666666"/>
      <point x="521.4446666666666" y="545.0003333333334"/>
      <point x="569.0" y="494.3333333333333" type="curve"/>
      <point x="660.0" y="594.6666666666666" type="line"/>
      <point x="604.0003333333334" y="665.778"/>
      <point x="503.99966666666666" y="710.6666666666666"/>
      <point x="404.0" y="710.6666666666666" type="curve" smooth="yes"/>
      <point x="200.44433333333333" y="710.6666666666666"/>
      <point x="45.333333333333336" y="556.111"/>
      <point x="45.333333333333336" y="351.6666666666667" type="curve" smooth="yes"/>
      <point x="45.333333333333336" y="139.22233333333332"/>
      <point x="191.111" y="-10.0"/>
    </contour>
  </outline>
</glyph>
<glyph name="D" format="2">
  <advance width="762.0"/>
  <unicode hex="0044"/>
  <anchor x="381.0" y="0.0" name="bottom"/>
  <anchor x="195.0" y="350.0" name="center"/>
  <anchor x="381.0" y="700.0" name="top"/>
  <outline>
    <contour>
      <point x="92.0" y="0.0" type="line"/>
      <point x="377.3333333333333" y="0.0" type="line" smooth="yes"/>
      <point x="581.7776666666666" y="0.0"/>
      <point x="716.6666666666666" y="142.44466666666668"/>
      <point x="716.6666666666666" y="350.0" type="curve" smooth="yes"/>
      <point x="716.6666666666666" y="556.6666666666666"/>
      <point x="580.889" y="700.0"/>
      <point x="377.3333333333333" y="700.0" type="curve" smooth="yes"/>
      <point x="92.0" y="700.0" type="line"/>
    </contour>
    <contour>
      <point x="236.0" y="106.33333333333333" type="line"/>
      <point x="236.0" y="591.6666666666666" type="line"/>
      <point x="218.66666666666666" y="569.3333333333334" type="line"/>
      <point x="372.3333333333333" y="569.3333333333334" type="line" smooth="yes"/>
      <point x="494.55566666666664" y="569.3333333333334"/>
      <point x="570.6666666666666" y="483.3333333333333"/>
      <point x="570.6666666666666" y="350.0" type="curve" smooth="yes"/>
      <point x="570.6666666666666" y="215.778"/>
      <point x="495.44433333333336" y="130.66666666666666"/>
      <point x="372.3333333333333" y="130.66666666666666" type="curve" smooth="yes"/>
      <point x="221.66666666666666" y="130.66666666666666" type="line"/>
    </contour>
  </outline>
</glyph>
<glyph name="E" format="2">
  <advance width="632.0"/>
  <unicode hex="0045"/>
  <anchor x="316.0" y="0.0" name="bottom"/>
  <anchor x="529.6666666666666" y="0.0" name="ogonek"/>
  <anchor x="336.0" y="700.0" name="top"/>
  <anchor x="20.0" y="700.0" name="topleft"/>
  <outline>
    <contour>
      <point x="92.0" y="0.0" type="line"/>
      <point x="566.3333333333334" y="0.0" type="line"/>
      <point x="566.3333333333334" y="127.66666666666666" type="line"/>
      <point x="233.0" y="127.66666666666666" type="line"/>
      <point x="233.0" y="572.3333333333334" type="line"/>
      <point x="560.3333333333334" y="572.3333333333334" type="line"/>
      <point x="560.3333333333334" y="700.0" type="line"/>
      <point x="92.0" y="700.0" type="line"/>
    </contour>
    <contour>
      <point x="159.0" y="295.3333333333333" type="line"/>
      <point x="511.3333333333333" y="295.3333333333333" type="line"/>
      <point x="511.3333333333333" y="419.3333333333333" type="line"/>
      <point x="159.0" y="419.3333333333333" type="line"/>
    </contour>
  </outline>
</glyph>
<glyph name="F" format="2">
  <advance width="611.3333333333334"/>
  <unicode hex="0046"/>
  <anchor x="305.6666666666667" y="0.0" name="bottom"/>
  <anchor x="305.6666666666667" y="700.0" name="top"/>
  <outline>
    <contour>
      <point x="92.0" y="0.0" type="line"/>
      <point x="236.0" y="0.0" type="line"/>
      <point x="236.0" y="700.0" type="line"/>
      <point x="92.0" y="700.0" type="line"/>
    </contour>
    <contour>
      <point x="158.33333333333334" y="280.6666666666667" type="line"/>
      <point x="520.0" y="280.6666666666667" type="line"/>
      <point x="520.0" y="406.6666666666667" type="line"/>
      <point x="158.33333333333334" y="406.6666666666667" type="line"/>
    </contour>
    <contour>
      <point x="158.33333333333334" y="569.3333333333334" type="line"/>
      <point x="562.3333333333334" y="569.3333333333334" type="line"/>
      <point x="562.3333333333334" y="700.0" type="line"/>
      <point x="158.33333333333334" y="700.0" type="line"/>
    </contour>
  </outline>
</glyph>
<glyph name="G" format="2">
  <advance width="775.0"/>
  <unicode hex="0047"/>
  <anchor x="387.6666666666667" y="0.0" name="bottom"/>
  <anchor x="408.0" y="700.0" name="top"/>
  <outline>
    <contour>
      <point x="412.0" y="-10.0" type="curve" smooth="yes"/>
      <point x="594.357" y="-10.0"/>
      <point x="733.0" y="116.50733333333334"/>
      <point x="733.0" y="299.0" type="curve" smooth="yes"/>
      <point x="733.0" y="317.667"/>
      <point x="731.5556666666666" y="355.9996666666667"/>
      <point x="728.0" y="378.6666666666667" type="curve"/>
      <point x="406.6666666666667" y="378.6666666666667" type="line"/>
      <point x="406.6666666666667" y="256.6666666666667" type="line"/>
      <point x="608.6666666666666" y="256.6666666666667" type="line"/>
      <point x="589.3333333333334" y="282.0" type="line"/>
      <point x="589.3333333333334" y="259.0" type="line" smooth="yes"/>
      <point x="589.3333333333334" y="181.66666666666666"/>
      <point x="514.222" y="121.33333333333333"/>
      <point x="421.3333333333333" y="121.33333333333333" type="curve" smooth="yes"/>
      <point x="294.2223333333333" y="121.33333333333333"/>
      <point x="192.66666666666666" y="223.22233333333332"/>
      <point x="192.66666666666666" y="351.6666666666667" type="curve" smooth="yes"/>
      <point x="192.66666666666666" y="481.889"/>
      <point x="288.9996666666667" y="579.3333333333334"/>
      <point x="415.6666666666667" y="579.3333333333334" type="curve" smooth="yes"/>
      <point x="483.667" y="579.3333333333334"/>
      <point x="542.6666666666666" y="550.333"/>
      <point x="596.0" y="499.6666666666667" type="curve"/>
      <point x="685.3333333333334" y="593.6666666666666" type="line"/>
      <point x="630.2223333333334" y="662.1113333333334"/>
      <point x="528.2223333333334" y="710.6666666666666"/>
      <point x="416.6666666666667" y="710.6666666666666" type="curve" smooth="yes"/>
      <point x="202.44433333333333" y="710.6666666666666"/>
      <point x="45.333333333333336" y="556.5553333333334"/>
      <point x="45.333333333333336" y="351.6666666666667" type="curve" smooth="yes"/>
      <point x="45.333333333333336" y="145.88866666666667"/>
      <point x="196.0" y="-10.0"/>
    </contour>
  </outline>
</glyph>
<glyph name="H" format="2">
  <advance width="771.6666666666666"/>
  <unicode hex="0048"/>
  <anchor x="386.3333333333333" y="0.0" name="bottom"/>
  <anchor x="386.3333333333333" y="350.0" name="center"/>
  <anchor x="386.3333333333333" y="700.0" name="top"/>
  <anchor x="20.0" y="700.0" name="topleft"/>
  <outline>
    <contour>
      <point x="535.6666666666666" y="0.0" type="line"/>
      <point x="679.6666666666666" y="0.0" type="line"/>
      <point x="679.6666666666666" y="700.0" type="line"/>
      <point x="535.6666666666666" y="700.0" type="line"/>
    </contour>
    <contour>
      <point x="92.0" y="0.0" type="line"/>
      <point x="236.0" y="0.0" type="line"/>
      <point x="236.0" y="700.0" type="line"/>
      <point x="92.0" y="700.0" type="line"/>
    </contour>
    <contour>
      <point x="150.33333333333334" y="283.0" type="line"/>
      <point x="608.3333333333334" y="283.0" type="line"/>
      <point x="608.3333333333334" y="415.0" type="line"/>
      <point x="150.66666666666666" y="415.0" type="line"/>
    </contour>
  </outline>
</glyph>
<glyph name="I" format="2">
  <advance width="522.6666666666666"/>
  <unicode hex="0049"/>
  <anchor x="261.3333333333333" y="0.0" name="bottom"/>
  <anchor x="374.3333333333333" y="0.0" name="ogonek"/>
  <anchor x="261.3333333333333" y="700.0" name="top"/>
  <anchor x="20.0" y="700.0" name="topleft"/>
  <outline>
    <contour>
      <point x="73.0" y="0.0" type="line"/>
      <point x="449.6666666666667" y="0.0" type="line"/>
      <point x="449.6666666666667" y="125.0" type="line"/>
      <point x="333.3333333333333" y="125.0" type="line"/>
      <point x="333.3333333333333" y="575.0" type="line"/>
      <point x="449.6666666666667" y="575.0" type="line"/>
      <point x="449.6666666666667" y="700.0" type="line"/>
      <point x="73.0" y="700.0" type="line"/>
      <point x="73.0" y="575.0" type="line"/>
      <point x="189.33333333333334" y="575.0" type="line"/>
      <point x="189.33333333333334" y="125.0" type="line"/>
      <point x="73.0" y="125.0" type="line"/>
    </contour>
  </outline>
</glyph>
<glyph name="J" format="2">
  <advance width="655.3333333333334"/>
  <unicode hex="004A"/>
  <anchor x="327.6666666666667" y="0.0" name="bottom"/>
  <anchor x="414.3333333333333" y="700.0" name="top"/>
  <outline>
    <contour>
      <point x="259.0" y="-10.0" type="curve" smooth="yes"/>
      <point x="391.0003333333333" y="-10.0"/>
      <point x="487.3333333333333" y="80.99966666666667"/>
      <point x="487.3333333333333" y="213.0" type="curve" smooth="yes"/>
      <point x="487.3333333333333" y="572.0" type="line"/>
      <point x="595.3333333333334" y="572.0" type="line"/>
      <point x="595.3333333333334" y="700.0" type="line"/>
      <point x="217.66666666666666" y="700.0" type="line"/>
      <point x="217.66666666666666" y="572.0" type="line"/>
      <point x="346.0" y="572.0" type="line"/>
      <point x="346.0" y="228.66666666666666" type="line" smooth="yes"/>
      <point x="346.0" y="166.44433333333333"/>
      <point x="307.0" y="123.0"/>
      <point x="248.33333333333334" y="123.0" type="curve" smooth="yes"/>
      <point x="204.778" y="123.0"/>
      <point x="174.44433333333333" y="140.66633333333334"/>
      <point x="128.66666666666666" y="204.66666666666666" type="curve"/>
      <point x="43.666666666666664" y="116.33333333333333" type="line"/>
      <point x="84.11133333333333" y="39.0"/>
      <point x="160.77766666666668" y="-10.0"/>
    </contour>
  </outline>
</glyph>
<glyph name="K" format="2">
  <advance width="736.0"/>
  <unicode hex="004B"/>
  <anchor x="368.0" y="0.0" name="bottom"/>
  <anchor x="368.0" y="700.0" name="top"/>
  <outline>
    <contour>
      <point x="202.0" y="207.66666666666666" type="line"/>
      <point x="705.6666666666666" y="700.0" type="line"/>
      <point x="529.3333333333334" y="700.0" type="line"/>
      <point x="173.66666666666666" y="341.6666666666667" type="line"/>
    </contour>
    <contour>
      <point x="92.0" y="0.0" type="line"/>
      <point x="236.0" y="0.0" type="line"/>
      <point x="236.0" y="700.0" type="line"/>
      <point x="92.0" y="700.0" type="line"/>
    </contour>
    <contour>
      <point x="547.6666666666666" y="0.0" type="line"/>
      <point x="719.3333333333334" y="0.0" type="line"/>
      <point x="384.3333333333333" y="435.3333333333333" type="line"/>
      <point x="284.3333333333333" y="349.0" type="line"/>
    </contour>
  </outline>
</glyph>
<glyph name="L" format="2">
  <advance width="604.6666666666666"/>
  <unicode hex="004C"/>
  <anchor x="302.6666666666667" y="0.0" name="bottom"/>
  <anchor x="165.66666666666666" y="350.0" name="center"/>
  <anchor x="165.33333333333334" y="700.0" name="top"/>
  <anchor x="318.3333333333333" y="700.0" name="topright"/>
  <outline>
    <contour>
      <point x="92.0" y="0.0" type="line"/>
      <point x="554.6666666666666" y="0.0" type="line"/>
      <point x="554.6666666666666" y="130.66666666666666" type="line"/>
      <point x="236.0" y="130.66666666666666" type="line"/>
      <point x="236.0" y="700.0" type="line"/>
      <point x="92.0" y="700.0" type="line"/>
    </contour>
  </outline>
</glyph>
<glyph name="M" format="2">
  <advance width="872.0"/>
  <unicode hex="004D"/>
  <anchor x="436.0" y="0.0" name="bottom"/>
  <anchor x="436.0" y="700.0" name="top"/>
  <outline>
    <contour>
      <point x="92.0" y="0.0" type="line"/>
      <point x="233.33333333333334" y="0.0" type="line"/>
      <point x="233.33333333333334" y="247.0" type="line" smooth="yes"/>
      <point x="233.33333333333334" y="376.333"/>
      <point x="228.00033333333332" y="462.667"/>
      <point x="213.33333333333334" y="552.0" type="curve"/>
      <point x="197.66666666666666" y="503.6666666666667" type="line"/>
      <point x="401.0" y="183.0" type="line"/>
      <point x="467.0" y="183.0" type="line"/>
      <point x="676.0" y="506.3333333333333" type="line"/>
      <point x="658.6666666666666" y="552.0" type="line"/>
      <point x="643.9996666666666" y="457.333"/>
      <point x="638.6666666666666" y="367.0"/>
      <point x="638.6666666666666" y="247.0" type="curve" smooth="yes"/>
      <point x="638.6666666666666" y="0.0" type="line"/>
      <point x="780.0" y="0.0" type="line"/>
      <point x="780.0" y="700.0" type="line"/>
      <point x="653.3333333333334" y="700.0" type="line"/>
      <point x="395.3333333333333" y="286.0" type="line"/>
      <point x="479.6666666666667" y="285.0" type="line"/>
      <point x="224.66666666666666" y="700.0" type="line"/>
      <point x="92.0" y="700.0" type="line"/>
    </contour>
  </outline>
</glyph>
<glyph name="N" format="2">
  <advance width="801.0"/>
  <unicode hex="004E"/>
  <anchor x="401.0" y="0.0" name="bottom"/>
  <anchor x="401.0" y="700.0" name="top"/>
  <outline>
    <contour>
      <point x="92.0" y="0.0" type="line"/>
      <point x="233.33333333333334" y="0.0" type="line"/>
      <point x="233.33333333333334" y="257.6666666666667" type="line" smooth="yes"/>
      <point x="233.33333333333334" y="318.6683333333333"/>
      <point x="230.39666666666668" y="357.025"/>
      <point x="213.33333333333334" y="532.6666666666666" type="curve"/>
      <point x="179.0" y="531.3333333333334" type="line"/>
      <point x="578.0" y="0.0" type="line"/>
      <point x="709.0" y="0.0" type="line"/>
      <point x="709.0" y="700.0" type="line"/>
      <point x="567.6666666666666" y="700.0" type="line"/>
      <point x="567.6666666666666" y="503.3333333333333" type="line" smooth="yes"/>
      <point x="567.2223333333334" y="361.111"/>
      <point x="573.4446666666666" y="267.889"/>
      <point x="587.6666666666666" y="168.33333333333331" type="curve"/>
      <point x="613.6666666666666" y="169.66666666666666" type="line"/>
      <point x="221.0" y="700.0" type="line"/>
      <point x="92.0" y="700.0" type="line"/>
    </contour>
  </outline>
</glyph>
<glyph name="O" format="2">
  <advance width="799.3333333333334"/>
  <unicode hex="004F"/>
  <anchor x="399.6666666666667" y="0.0" name="bottom"/>
  <anchor x="399.6666666666667" y="350.0" name="center"/>
  <anchor x="625.6666666666666" y="3.333333333333333" name="ogonek"/>
  <anchor x="399.6666666666667" y="700.0" name="top"/>
  <anchor x="20.0" y="700.0" name="topleft"/>
  <anchor x="779.3333333333334" y="700.0" name="topright"/>
  <outline>
    <contour>
      <point x="399.6666666666667" y="-10.0" type="curve" smooth="yes"/>
      <point x="604.5553333333334" y="-10.0"/>
      <point x="754.0" y="144.11133333333333"/>
      <point x="754.0" y="351.6666666666667" type="curve" smooth="yes"/>
      <point x="754.0" y="559.222"/>
      <point x="604.5553333333334" y="713.3333333333334"/>
      <point x="399.6666666666667" y="713.3333333333334" type="curve" smooth="yes"/>
      <point x="194.778" y="713.3333333333334"/>
      <point x="45.333333333333336" y="560.1113333333334"/>
      <point x="45.333333333333336" y="351.6666666666667" type="curve" smooth="yes"/>
      <point x="45.333333333333336" y="143.222"/>
      <point x="194.778" y="-10.0"/>
    </contour>
    <contour>
      <point x="399.6666666666667" y="126.66666666666666" type="curve" smooth="yes"/>
      <point x="278.7776666666667" y="126.66666666666666"/>
      <point x="192.0" y="221.0"/>
      <point x="192.0" y="351.6666666666667" type="curve" smooth="yes"/>
      <point x="192.0" y="482.3333333333333"/>
      <point x="278.7776666666667" y="576.6666666666666"/>
      <point x="399.6666666666667" y="576.6666666666666" type="curve" smooth="yes"/>
      <point x="519.667" y="576.6666666666666"/>
      <point x="607.3333333333334" y="481.44466666666665"/>
      <point x="607.3333333333334" y="351.6666666666667" type="curve" smooth="yes"/>
      <point x="607.3333333333334" y="221.88866666666667"/>
      <point x="519.667" y="126.66666666666666"/>
    </contour>
  </outline>
</glyph>
<glyph name="P" format="2">
  <advance width="650.3333333333334"/>
  <unicode hex="0050"/>
  <anchor x="325.3333333333333" y="0.0" name="bottom"/>
  <anchor x="325.3333333333333" y="700.0" name="top"/>
  <outline>
    <contour>
      <point x="92.0" y="0.0" type="line"/>
      <point x="236.0" y="0.0" type="line"/>
      <point x="236.0" y="248.0" type="line"/>
      <point x="387.0" y="248.0" type="line" smooth="yes"/>
      <point x="510.55533333333335" y="248.0"/>
      <point x="607.0" y="347.7776666666667"/>
      <point x="607.0" y="476.6666666666667" type="curve" smooth="yes"/>
      <point x="607.0" y="603.3333333333334"/>
      <point x="510.55533333333335" y="700.0"/>
      <point x="387.0" y="700.0" type="curve" smooth="yes"/>
      <point x="92.0" y="700.0" type="line"/>
    </contour>
    <contour>
      <point x="234.66666666666666" y="378.6666666666667" type="line"/>
      <point x="234.66666666666666" y="569.3333333333334" type="line"/>
      <point x="372.3333333333333" y="569.3333333333334" type="line" smooth="yes"/>
      <point x="420.7776666666667" y="569.3333333333334"/>
      <point x="459.6666666666667" y="529.9996666666666"/>
      <point x="459.6666666666667" y="475.3333333333333" type="curve" smooth="yes"/>
      <point x="459.6666666666667" y="420.667"/>
      <point x="420.7776666666667" y="378.6666666666667"/>
      <point x="372.3333333333333" y="378.6666666666667" type="curve" smooth="yes"/>
    </contour>
  </outline>
</glyph>
<glyph name="Q" format="2">
  <advance width="799.3333333333334"/>
  <unicode hex="0051"/>
  <anchor x="399.6666666666667" y="0.0" name="bottom"/>
  <anchor x="399.6666666666667" y="700.0" name="top"/>
  <anchor x="399.6666666666667" y="350.0" name="center"/>
  <anchor x="625.6666666666666" y="3.333333333333333" name="ogonek"/>
  <anchor x="20.0" y="700.0" name="topleft"/>
  <anchor x="779.3333333333334" y="700.0" name="topright"/>
  <outline>
    <contour>
      <point x="614.3333333333334" y="-110.0" type="line"/>
      <point x="721.0" y="-31.666666666666668" type="line"/>
      <point x="457.3333333333333" y="321.3333333333333" type="line"/>
      <point x="347.6666666666667" y="246.0" type="line"/>
    </contour>
    <component base="O"/>
  </outline>
</glyph>
<glyph name="R" format="2">
  <advance width="699.0"/>
  <unicode hex="0052"/>
  <anchor x="350.0" y="0.0" name="bottom"/>
  <anchor x="326.6666666666667" y="700.0" name="top"/>
  <outline>
    <contour>
      <point x="92.0" y="0.0" type="line"/>
      <point x="231.33333333333334" y="0.0" type="line"/>
      <point x="231.33333333333334" y="253.0" type="line"/>
      <point x="400.0" y="253.0" type="line" smooth="yes"/>
      <point x="529.7776666666666" y="253.0"/>
      <point x="631.0" y="352.111"/>
      <point x="631.0" y="477.0" type="curve" smooth="yes"/>
      <point x="631.0" y="604.5556666666666"/>
      <point x="528.889" y="700.0"/>
      <point x="400.0" y="700.0" type="curve" smooth="yes"/>
      <point x="92.0" y="700.0" type="line"/>
    </contour>
    <contour>
      <point x="491.6666666666667" y="0.0" type="line"/>
      <point x="659.3333333333334" y="-0.6666666666666667" type="line"/>
      <point x="461.3333333333333" y="341.0" type="line"/>
      <point x="313.6666666666667" y="316.0" type="line"/>
    </contour>
    <contour>
      <point x="231.33333333333334" y="372.3333333333333" type="line"/>
      <point x="231.33333333333334" y="574.0" type="line"/>
      <point x="375.3333333333333" y="574.0" type="line" smooth="yes"/>
      <point x="442.889" y="574.0"/>
      <point x="487.6666666666667" y="532.8886666666666"/>
      <point x="487.6666666666667" y="472.0" type="curve" smooth="yes"/>
      <point x="487.6666666666667" y="414.22200000000004"/>
      <point x="450.889" y="372.3333333333333"/>
      <point x="395.3333333333333" y="372.3333333333333" type="curve" smooth="yes"/>
    </contour>
  </outline>
</glyph>
<glyph name="S" format="2">
  <advance width="629.6666666666666"/>
  <unicode hex="0053"/>
  <anchor x="335.0" y="0.0" name="bottom"/>
  <anchor x="331.6666666666667" y="700.0" name="top"/>
  <outline>
    <contour>
      <point x="317.6666666666667" y="-10.0" type="curve" smooth="yes"/>
      <point x="475.88866666666667" y="-10.0"/>
      <point x="583.3333333333334" y="73.33366666666667"/>
      <point x="583.3333333333334" y="213.33333333333334" type="curve" smooth="yes"/>
      <point x="583.3333333333334" y="325.7776666666667"/>
      <point x="491.0003333333333" y="391.88866666666667"/>
      <point x="344.3333333333333" y="421.6666666666667" type="curve" smooth="yes"/>
      <point x="263.44466666666665" y="437.88866666666667"/>
      <point x="213.33333333333334" y="463.77799999999996"/>
      <point x="213.33333333333334" y="513.3333333333334" type="curve" smooth="yes"/>
      <point x="213.33333333333334" y="559.9996666666666"/>
      <point x="257.58233333333334" y="589.0"/>
      <point x="324.3333333333333" y="589.0" type="curve" smooth="yes"/>
      <point x="386.3523333333333" y="589.0"/>
      <point x="441.12666666666667" y="558.9739999999999"/>
      <point x="482.3333333333333" y="501.3333333333333" type="curve"/>
      <point x="575.0" y="591.6666666666666" type="line"/>
      <point x="526.5553333333334" y="669.0"/>
      <point x="447.111" y="713.3333333333334"/>
      <point x="322.6666666666667" y="713.3333333333334" type="curve" smooth="yes"/>
      <point x="184.0" y="713.3333333333334"/>
      <point x="68.33333333333334" y="628.333"/>
      <point x="68.33333333333334" y="507.0" type="curve" smooth="yes"/>
      <point x="68.33333333333334" y="390.111"/>
      <point x="140.889" y="320.44433333333336"/>
      <point x="290.6666666666667" y="289.3333333333333" type="curve" smooth="yes"/>
      <point x="378.3333333333333" y="272.11133333333333"/>
      <point x="439.0" y="242.88866666666667"/>
      <point x="439.0" y="188.0" type="curve" smooth="yes"/>
      <point x="439.0" y="142.15833333333333"/>
      <point x="390.2223333333333" y="113.66666666666666"/>
      <point x="326.6666666666667" y="113.66666666666666" type="curve" smooth="yes"/>
      <point x="250.222" y="113.66666666666666"/>
      <point x="189.44433333333333" y="140.667"/>
      <point x="123.66666666666667" y="231.33333333333334" type="curve"/>
      <point x="32.66666666666667" y="128.0" type="line"/>
      <point x="98.44466666666666" y="38.666333333333334"/>
      <point x="188.333" y="-10.0"/>
    </contour>
  </outline>
</glyph>
<glyph name="T" format="2">
  <advance width="622.0"/>
  <unicode hex="0054"/>
  <anchor x="311.0" y="0.0" name="bottom"/>
  <anchor x="311.0" y="350.0" name="center"/>
  <anchor x="311.0" y="700.0" name="top"/>
  <outline>
    <contour>
      <point x="236.0" y="0.0" type="line"/>
      <point x="380.0" y="0.0" type="line"/>
      <point x="380.0" y="569.3333333333334" type="line"/>
      <point x="588.6666666666666" y="569.3333333333334" type="line"/>
      <point x="588.6666666666666" y="700.0" type="line"/>
      <point x="33.333333333333336" y="700.0" type="line"/>
      <point x="33.333333333333336" y="569.3333333333334" type="line"/>
      <point x="236.0" y="569.3333333333334" type="line"/>
    </contour>
  </outline>
</glyph>
<glyph name="U" format="2">
  <advance width="754.6666666666666"/>
  <unicode hex="0055"/>
  <anchor x="377.3333333333333" y="0.0" name="bottom"/>
  <anchor x="555.0" y="0.0" name="ogonek"/>
  <anchor x="377.3333333333333" y="700.0" name="top"/>
  <anchor x="734.6666666666666" y="700.0" name="topright"/>
  <outline>
    <contour>
      <point x="377.3333333333333" y="-6.0" type="curve" smooth="yes"/>
      <point x="546.2223333333334" y="-6.0"/>
      <point x="669.3333333333334" y="109.88866666666667"/>
      <point x="669.3333333333334" y="269.0" type="curve" smooth="yes"/>
      <point x="669.3333333333334" y="700.6666666666666" type="line"/>
      <point x="529.6666666666666" y="700.6666666666666" type="line"/>
      <point x="529.6666666666666" y="278.0" type="line" smooth="yes"/>
      <point x="529.6666666666666" y="190.889"/>
      <point x="463.111" y="124.66666666666666"/>
      <point x="377.3333333333333" y="124.66666666666666" type="curve" smooth="yes"/>
      <point x="295.9996666666667" y="124.66666666666666"/>
      <point x="230.0" y="190.889"/>
      <point x="230.0" y="278.0" type="curve" smooth="yes"/>
      <point x="230.0" y="700.6666666666666" type="line"/>
      <point x="85.33333333333333" y="700.6666666666666" type="line"/>
      <point x="85.33333333333333" y="269.0" type="line" smooth="yes"/>
      <point x="85.33333333333333" y="109.88866666666667"/>
      <point x="208.44433333333333" y="-6.0"/>
    </contour>
  </outline>
</glyph>
<glyph name="V" format="2">
  <advance width="713.3333333333334"/>
  <unicode hex="0056"/>
  <anchor x="357.0" y="0.0" name="bottom"/>
  <anchor x="357.0" y="700.0" name="top"/>
  <outline>
    <contour>
      <point x="292.3333333333333" y="0.0" type="line"/>
      <point x="419.0" y="0.0" type="line"/>
      <point x="700.6666666666666" y="700.0" type="line"/>
      <point x="547.0" y="700.0" type="line"/>
      <point x="406.3333333333333" y="314.6666666666667" type="line" smooth="yes"/>
      <point x="376.55566666666664" y="234.66633333333334"/>
      <point x="362.88866666666667" y="193.33333333333331"/>
      <point x="347.3333333333333" y="133.33333333333331" type="curve"/>
      <point x="376.3333333333333" y="134.0" type="line"/>
      <point x="360.333" y="193.11133333333333"/>
      <point x="346.889" y="231.99966666666666"/>
      <point x="315.3333333333333" y="314.6666666666667" type="curve" smooth="yes"/>
      <point x="166.66666666666666" y="700.0" type="line"/>
      <point x="12.666666666666668" y="700.0" type="line"/>
    </contour>
  </outline>
</glyph>
<glyph name="W" format="2">
  <advance width="994.0"/>
  <unicode hex="0057"/>
  <anchor x="497.0" y="0.0" name="bottom"/>
  <anchor x="497.0" y="700.0" name="top"/>
  <outline>
    <contour>
      <point x="227.66666666666666" y="0.0" type="line"/>
      <point x="336.3333333333333" y="0.0" type="line"/>
      <point x="500.0" y="415.0" type="line"/>
      <point x="485.0" y="417.6666666666667" type="line"/>
      <point x="659.0" y="0.0" type="line"/>
      <point x="765.6666666666666" y="0.0" type="line"/>
      <point x="981.3333333333334" y="700.0" type="line"/>
      <point x="834.3333333333334" y="700.0" type="line"/>
      <point x="718.3333333333334" y="304.6666666666667" type="line" smooth="yes"/>
      <point x="693.2223333333334" y="218.44433333333333"/>
      <point x="700.0" y="212.889"/>
      <point x="688.6666666666666" y="139.33333333333334" type="curve"/>
      <point x="711.0" y="144.0" type="line"/>
      <point x="701.6666666666666" y="196.0"/>
      <point x="692.0" y="244.0"/>
      <point x="669.3333333333334" y="303.3333333333333" type="curve" smooth="yes"/>
      <point x="559.0" y="596.3333333333334" type="line"/>
      <point x="439.3333333333333" y="596.3333333333334" type="line"/>
      <point x="326.3333333333333" y="303.3333333333333" type="line" smooth="yes"/>
      <point x="311.53933333333333" y="262.1816666666667"/>
      <point x="305.50466666666665" y="224.92033333333333"/>
      <point x="286.0" y="138.0" type="curve"/>
      <point x="310.6666666666667" y="137.33333333333334" type="line"/>
      <point x="306.0" y="170.44433333333333"/>
      <point x="295.7776666666667" y="245.77766666666668"/>
      <point x="278.6666666666667" y="302.6666666666667" type="curve" smooth="yes"/>
      <point x="161.33333333333334" y="700.0" type="line"/>
      <point x="12.666666666666668" y="700.0" type="line"/>
    </contour>
  </outline>
</glyph>
<glyph name="Y" format="2">
  <advance width="676.6666666666666"/>
  <unicode hex="0059"/>
  <anchor x="338.3333333333333" y="0.0" name="bottom"/>
  <anchor x="338.3333333333333" y="700.0" name="top"/>
  <anchor x="20.0" y="700.0" name="topleft"/>
  <outline>
    <contour>
      <point x="276.0" y="0.0" type="line"/>
      <point x="420.6666666666667" y="0.0" type="line"/>
      <point x="420.6666666666667" y="357.0" type="line"/>
      <point x="405.6666666666667" y="289.0" type="line"/>
      <point x="676.6666666666666" y="700.0" type="line"/>
      <point x="516.0" y="700.0" type="line"/>
      <point x="321.0" y="393.0" type="line"/>
      <point x="382.6666666666667" y="390.0" type="line"/>
      <point x="166.66666666666666" y="700.0" type="line"/>
      <point x="0.0" y="700.0" type="line"/>
      <point x="283.0" y="300.0" type="line"/>
      <point x="276.0" y="349.0" type="line"/>
    </contour>
  </outline>
</glyph>
<glyph name="Z" format="2">
  <advance width="673.0"/>
  <unicode hex="005A"/>
  <anchor x="337.0" y="0.0" name="bottom"/>
  <anchor x="337.0" y="350.0" name="center"/>
  <anchor x="337.0" y="700.0" name="top"/>
  <outline>
    <contour>
      <point x="60.0" y="0.0" type="line"/>
      <point x="616.3333333333334" y="0.0" type="line"/>
      <point x="616.3333333333334" y="130.0" type="line"/>
      <point x="180.0" y="130.0" type="line"/>
      <point x="221.66666666666666" y="87.0" type="line"/>
      <point x="605.3333333333334" y="602.0" type="line"/>
      <point x="605.3333333333334" y="700.0" type="line"/>
      <point x="86.0" y="700.0" type="line"/>
      <point x="86.0" y="566.0" type="line"/>
      <point x="486.3333333333333" y="566.0" type="line"/>
      <point x="445.6666666666667" y="613.0" type="line"/>
      <point x="60.0" y="99.0" type="line"/>
    </contour>
  </outline>
</glyph>
<glyph name="bracketleft" format="2">
  <advance width="412.6666666666667"/>
  <unicode hex="005B"/>
  <outline>
    <contour>
      <point x="80.0" y="-190.0" type="line"/>
      <point x="360.3333333333333" y="-190.0" type="line"/>
      <point x="360.3333333333333" y="-77.33333333333334" type="line"/>
      <point x="198.33333333333331" y="-77.33333333333334" type="line"/>
      <point x="208.33333333333331" y="-89.33333333333334" type="line"/>
      <point x="208.33333333333331" y="595.3333333333334" type="line"/>
      <point x="202.33333333333331" y="587.3333333333334" type="line"/>
      <point x="360.3333333333333" y="587.3333333333334" type="line"/>
      <point x="360.3333333333333" y="700.0" type="line"/>
      <point x="80.0" y="700.0" type="line"/>
    </contour>
  </outline>
</glyph>
<glyph name="backslash" format="2">
  <advance width="572.6666666666666"/>
  <unicode hex="005C"/>
  <outline>
    <contour>
      <point x="430.0" y="-107.0" type="line"/>
      <point x="566.0" y="-107.0" type="line"/>
      <point x="166.0" y="700.0" type="line"/>
      <point x="32.0" y="700.0" type="line"/>
    </contour>
  </outline>
</glyph>
<glyph name="bracketright" format="2">
  <advance width="412.6666666666667"/>
  <unicode hex="005D"/>
  <outline>
    <contour>
      <point x="52.333333333333336" y="-190.0" type="line"/>
      <point x="332.6666666666667" y="-190.0" type="line"/>
      <point x="332.6666666666667" y="700.0" type="line"/>
      <point x="52.333333333333336" y="700.0" type="line"/>
      <point x="52.333333333333336" y="587.3333333333334" type="line"/>
      <point x="214.33333333333334" y="587.3333333333334" type="line"/>
      <point x="204.33333333333334" y="599.3333333333334" type="line"/>
      <point x="204.33333333333334" y="-85.33333333333334" type="line"/>
      <point x="210.33333333333334" y="-77.33333333333334" type="line"/>
      <point x="52.333333333333336" y="-77.33333333333334" type="line"/>
    </contour>
  </outline>
</glyph>
<glyph name="asciicircum" format="2">
  <advance width="586.6666666666666"/>
  <unicode hex="005E"/>
  <outline>
    <contour>
      <point x="19.333333333333336" y="364.0" type="line"/>
      <point x="159.0" y="364.0" type="line"/>
      <point x="323.0" y="642.0" type="line"/>
      <point x="266.0" y="639.6666666666666" type="line"/>
      <point x="426.0" y="364.0" type="line"/>
      <point x="568.0" y="364.0" type="line"/>
      <point x="352.0" y="730.3333333333334" type="line"/>
      <point x="235.33333333333334" y="730.3333333333334" type="line"/>
    </contour>
  </outline>
</glyph>
<glyph name="underscore" format="2">
  <advance width="688.0"/>
  <unicode hex="005F"/>
  <outline>
    <contour>
      <point x="45.333333333333336" y="-178.66666666666666" type="line"/>
      <point x="642.6666666666666" y="-178.66666666666666" type="line"/>
      <point x="642.6666666666666" y="-70.0" type="line"/>
      <point x="45.333333333333336" y="-70.0" type="line"/>
    </contour>
  </outline>
</glyph>
<glyph name="a" format="2">
  <advance width="648.3333333333334"/>
  <unicode hex="0061"/>
  <anchor x="324.6666666666667" y="0.0" name="bottom"/>
  <anchor x="558.6666666666666" y="0.0" name="ogonek"/>
  <anchor x="324.6666666666667" y="528.3333333333334" name="top"/>
  <outline>
    <contour>
      <point x="269.6666666666667" y="-9.666666666666666" type="curve" smooth="yes"/>
      <point x="369.22200000000004" y="-9.666666666666666"/>
      <point x="450.6666666666667" y="56.55566666666667"/>
      <point x="470.6666666666667" y="130.33333333333334" type="curve"/>
      <point x="439.6666666666667" y="127.0" type="line"/>
      <point x="439.6666666666667" y="0.0" type="line"/>
      <point x="577.0" y="0.0" type="line"/>
      <point x="577.0" y="528.3333333333334" type="line"/>
      <point x="441.3333333333333" y="528.3333333333334" type="line"/>
      <point x="441.3333333333333" y="398.3333333333333" type="line"/>
      <point x="470.3333333333333" y="392.6666666666667" type="line"/>
      <point x="452.111" y="473.55533333333335"/>
      <point x="380.7776666666667" y="539.3333333333334"/>
      <point x="276.3333333333333" y="539.3333333333334" type="curve" smooth="yes"/>
      <point x="138.55566666666667" y="539.3333333333334"/>
      <point x="35.333333333333336" y="425.77799999999996"/>
      <point x="35.333333333333336" y="265.3333333333333" type="curve" smooth="yes"/>
      <point x="35.333333333333336" y="107.55566666666667"/>
      <point x="138.111" y="-9.666666666666666"/>
    </contour>
    <contour>
      <point x="307.0" y="108.66666666666666" type="curve" smooth="yes"/>
      <point x="226.55566666666667" y="108.66666666666666"/>
      <point x="171.66666666666666" y="172.0"/>
      <point x="171.66666666666666" y="265.3333333333333" type="curve" smooth="yes"/>
      <point x="171.66666666666666" y="357.77799999999996"/>
      <point x="226.55566666666667" y="421.0"/>
      <point x="307.0" y="421.0" type="curve" smooth="yes"/>
      <point x="388.7776666666667" y="421.0"/>
      <point x="444.0" y="357.77799999999996"/>
      <point x="444.0" y="265.3333333333333" type="curve" smooth="yes"/>
      <point x="444.0" y="172.0"/>
      <point x="388.7776666666667" y="108.66666666666666"/>
    </contour>
  </outline>
</glyph>
<glyph name="b" format="2">
  <advance width="646.3333333333334"/>
  <unicode hex="0062"/>
  <anchor x="323.3333333333333" y="0.0" name="bottom"/>
  <anchor x="323.3333333333333" y="740.0" name="top"/>
  <outline>
    <contour>
      <point x="372.3333333333333" y="-10.333333333333334" type="curve" smooth="yes"/>
      <point x="508.77799999999996" y="-10.333333333333334"/>
      <point x="609.6666666666666" y="105.44466666666666"/>
      <point x="609.6666666666666" y="265.0" type="curve" smooth="yes"/>
      <point x="609.6666666666666" y="424.55566666666664"/>
      <point x="508.06100000000004" y="539.3333333333334"/>
      <point x="368.6666666666667" y="539.3333333333334" type="curve" smooth="yes"/>
      <point x="281.55566666666664" y="539.3333333333334"/>
      <point x="196.111" y="479.7776666666667"/>
      <point x="182.33333333333334" y="415.3333333333333" type="curve"/>
      <point x="208.0" y="404.6666666666667" type="line"/>
      <point x="208.0" y="740.0" type="line"/>
      <point x="71.33333333333333" y="740.0" type="line"/>
      <point x="71.33333333333333" y="2.0" type="line"/>
      <point x="201.0" y="2.0" type="line"/>
      <point x="206.33333333333334" y="126.66666666666667" type="line"/>
      <point x="175.33333333333334" y="114.33333333333333" type="line"/>
      <point x="189.55566666666667" y="50.333666666666666"/>
      <point x="278.111" y="-10.333333333333334"/>
    </contour>
    <contour>
      <point x="340.6666666666667" y="107.33333333333333" type="curve" smooth="yes"/>
      <point x="258.889" y="107.33333333333333"/>
      <point x="203.0" y="171.66666666666666"/>
      <point x="203.0" y="265.0" type="curve" smooth="yes"/>
      <point x="203.0" y="357.44466666666665"/>
      <point x="258.889" y="421.3333333333333"/>
      <point x="340.6666666666667" y="421.3333333333333" type="curve" smooth="yes"/>
      <point x="421.9996666666667" y="421.3333333333333"/>
      <point x="477.3333333333333" y="357.44466666666665"/>
      <point x="477.3333333333333" y="265.0" type="curve" smooth="yes"/>
      <point x="477.3333333333333" y="171.66666666666666"/>
      <point x="421.111" y="107.33333333333333"/>
    </contour>
  </outline>
</glyph>
<glyph name="c" format="2">
  <advance width="541.0"/>
  <unicode hex="0063"/>
  <anchor x="301.3333333333333" y="0.0" name="bottom"/>
  <anchor x="300.3333333333333" y="528.3333333333334" name="top"/>
  <outline>
    <contour>
      <point x="300.3333333333333" y="-10.0" type="curve" smooth="yes"/>
      <point x="389.22200000000004" y="-10.0"/>
      <point x="475.7776666666667" y="28.77766666666667"/>
      <point x="520.6666666666666" y="87.0" type="curve"/>
      <point x="446.3333333333333" y="177.33333333333334" type="line"/>
      <point x="410.333" y="134.22233333333332"/>
      <point x="365.66633333333334" y="110.0"/>
      <point x="313.6666666666667" y="110.0" type="curve" smooth="yes"/>
      <point x="231.44433333333333" y="110.0"/>
      <point x="168.66666666666666" y="177.44466666666668"/>
      <point x="168.66666666666666" y="265.0" type="curve" smooth="yes"/>
      <point x="168.66666666666666" y="353.889"/>
      <point x="229.0" y="419.6666666666667"/>
      <point x="313.0" y="419.6666666666667" type="curve" smooth="yes"/>
      <point x="364.111" y="419.6666666666667"/>
      <point x="417.44433333333336" y="389.11133333333333"/>
      <point x="446.3333333333333" y="350.0" type="curve"/>
      <point x="521.0" y="440.0" type="line"/>
      <point x="477.44433333333336" y="502.22200000000004"/>
      <point x="394.55533333333335" y="539.3333333333334"/>
      <point x="300.3333333333333" y="539.3333333333334" type="curve" smooth="yes"/>
      <point x="149.22233333333332" y="539.3333333333334"/>
      <point x="36.666666666666664" y="421.55566666666664"/>
      <point x="36.666666666666664" y="264.6666666666667" type="curve" smooth="yes"/>
      <point x="36.666666666666664" y="107.77766666666666"/>
      <point x="149.22233333333332" y="-10.0"/>
    </contour>
  </outline>
</glyph>
<glyph name="d" format="2">
  <advance width="645.6666666666666"/>
  <unicode hex="0064"/>
  <anchor x="323.0" y="0.0" name="bottom"/>
  <anchor x="488.3333333333333" y="634.0" name="center"/>
  <anchor x="323.0" y="740.0" name="top"/>
  <anchor x="612.3333333333334" y="740.0" name="topright"/>
  <outline>
    <contour>
      <point x="280.0" y="-10.333333333333334" type="curve" smooth="yes"/>
      <point x="377.7776666666667" y="-10.333333333333334"/>
      <point x="466.55566666666664" y="54.77766666666667"/>
      <point x="471.0" y="119.66666666666667" type="curve"/>
      <point x="444.0" y="122.66666666666667" type="line"/>
      <point x="449.3333333333333" y="0.0" type="line"/>
      <point x="579.0" y="0.0" type="line"/>
      <point x="579.0" y="740.0" type="line"/>
      <point x="442.3333333333333" y="740.0" type="line"/>
      <point x="442.3333333333333" y="394.0" type="line"/>
      <point x="477.3333333333333" y="400.0" type="line"/>
      <point x="471.55566666666664" y="470.66633333333334"/>
      <point x="380.111" y="539.3333333333334"/>
      <point x="279.6666666666667" y="539.3333333333334" type="curve" smooth="yes"/>
      <point x="140.11133333333333" y="539.3333333333334"/>
      <point x="36.666666666666664" y="422.9996666666667"/>
      <point x="36.666666666666664" y="264.3333333333333" type="curve" smooth="yes"/>
      <point x="36.666666666666664" y="104.778"/>
      <point x="140.0" y="-10.333333333333334"/>
    </contour>
    <contour>
      <point x="309.6666666666667" y="104.0" type="curve" smooth="yes"/>
      <point x="228.33366666666666" y="104.0"/>
      <point x="173.0" y="169.222"/>
      <point x="173.0" y="264.3333333333333" type="curve" smooth="yes"/>
      <point x="173.0" y="359.44466666666665"/>
      <point x="228.33366666666666" y="424.6666666666667"/>
      <point x="309.6666666666667" y="424.6666666666667" type="curve" smooth="yes"/>
      <point x="391.44433333333336" y="424.6666666666667"/>
      <point x="446.6666666666667" y="359.44466666666665"/>
      <point x="446.6666666666667" y="264.3333333333333" type="curve" smooth="yes"/>
      <point x="446.6666666666667" y="169.222"/>
      <point x="391.44433333333336" y="104.0"/>
    </contour>
  </outline>
</glyph>
<glyph name="e" format="2">
  <advance width="586.0"/>
  <unicode hex="0065"/>
  <anchor x="321.0" y="0.0" name="bottom"/>
  <anchor x="508.3333333333333" y="3.333333333333333" name="ogonek"/>
  <anchor x="305.6666666666667" y="528.3333333333334" name="top"/>
  <outline>
    <contour>
      <point x="321.0" y="-10.0" type="curve" smooth="yes"/>
      <point x="394.366" y="-10.0"/>
      <point x="472.5563333333333" y="18.238333333333333"/>
      <point x="530.0" y="69.0" type="curve"/>
      <point x="464.3333333333333" y="161.33333333333334" type="line"/>
      <point x="419.0" y="123.55566666666667"/>
      <point x="383.3333333333333" y="110.66666666666666"/>
      <point x="335.3333333333333" y="110.66666666666666" type="curve" smooth="yes"/>
      <point x="231.35033333333334" y="110.66666666666666"/>
      <point x="166.33333333333334" y="173.778"/>
      <point x="166.33333333333334" y="270.6666666666667" type="curve" smooth="yes"/>
      <point x="166.33333333333334" y="368.44433333333336"/>
      <point x="215.44433333333333" y="422.3333333333333"/>
      <point x="307.0" y="422.3333333333333" type="curve" smooth="yes"/>
      <point x="367.889" y="422.3333333333333"/>
      <point x="416.55533333333335" y="380.7776666666667"/>
      <point x="421.0" y="324.3333333333333" type="curve"/>
      <point x="421.0" y="302.3333333333333" type="line"/>
      <point x="437.3333333333333" y="320.3333333333333" type="line"/>
      <point x="101.66666666666667" y="320.3333333333333" type="line"/>
      <point x="124.66666666666667" y="234.0" type="line"/>
      <point x="550.3333333333334" y="234.0" type="line"/>
      <point x="551.3333333333334" y="277.3333333333333" type="line" smooth="yes"/>
      <point x="554.6666666666666" y="429.0"/>
      <point x="448.7776666666667" y="539.1113333333334"/>
      <point x="305.6666666666667" y="540.0" type="curve" smooth="yes"/>
      <point x="149.22233333333332" y="539.1113333333334"/>
      <point x="36.666666666666664" y="424.66633333333334"/>
      <point x="36.666666666666664" y="260.6666666666667" type="curve" smooth="yes"/>
      <point x="36.666666666666664" y="102.889"/>
      <point x="150.333" y="-10.0"/>
    </contour>
  </outline>
</glyph>
<glyph name="f" format="2">
  <advance width="393.0"/>
  <unicode hex="0066"/>
  <anchor x="197.0" y="0.0" name="bottom"/>
  <anchor x="197.0" y="740.0" name="top"/>
  <outline>
    <contour>
      <point x="114.66666666666667" y="0.0" type="line"/>
      <point x="131.99966666666666" y="0.0"/>
      <point x="154.83366666666666" y="0.0"/>
      <point x="183.16666666666666" y="0.0" type="curve" smooth="yes"/>
      <point x="251.66666666666666" y="0.0" type="line"/>
      <point x="251.66666666666666" y="560.3333333333334" type="line" smooth="yes"/>
      <point x="251.66666666666666" y="597.667"/>
      <point x="269.88866666666667" y="617.0"/>
      <point x="309.0" y="617.0" type="curve" smooth="yes"/>
      <point x="324.55566666666664" y="617.0"/>
      <point x="343.667" y="609.0"/>
      <point x="361.0" y="597.0" type="curve"/>
      <point x="402.0" y="698.0" type="line"/>
      <point x="373.111" y="724.2223333333334"/>
      <point x="331.33366666666666" y="741.0"/>
      <point x="284.6666666666667" y="741.0" type="curve" smooth="yes"/>
      <point x="183.33333333333334" y="741.0"/>
      <point x="114.66666666666667" y="666.5556666666666"/>
      <point x="114.66666666666667" y="568.3333333333334" type="curve" smooth="yes"/>
    </contour>
    <contour>
      <point x="34.333333333333336" y="399.3333333333333" type="line"/>
      <point x="367.0" y="399.3333333333333" type="line"/>
      <point x="367.0" y="516.0" type="line"/>
      <point x="34.333333333333336" y="516.0" type="line"/>
    </contour>
  </outline>
</glyph>
<glyph name="g" format="2">
  <advance width="660.6666666666666"/>
  <unicode hex="0067"/>
  <anchor x="330.6666666666667" y="-230.0" name="bottom"/>
  <anchor x="330.6666666666667" y="528.3333333333334" name="top"/>
  <outline>
    <contour>
      <point x="311.0" y="-230.0" type="curve" smooth="yes"/>
      <point x="485.2223333333333" y="-230.0"/>
      <point x="591.0" y="-132.44466666666668"/>
      <point x="591.0" y="38.666666666666664" type="curve" smooth="yes"/>
      <point x="591.0" y="528.3333333333334" type="line"/>
      <point x="459.6666666666667" y="528.3333333333334" type="line"/>
      <point x="456.0" y="407.0" type="line"/>
      <point x="484.3333333333333" y="415.3333333333333" type="line"/>
      <point x="473.667" y="474.889"/>
      <point x="386.0003333333333" y="539.3333333333334"/>
      <point x="287.3333333333333" y="539.3333333333334" type="curve" smooth="yes"/>
      <point x="143.77766666666668" y="539.3333333333334"/>
      <point x="36.666666666666664" y="424.66633333333334"/>
      <point x="36.666666666666664" y="266.0" type="curve" smooth="yes"/>
      <point x="36.666666666666664" y="109.11133333333333"/>
      <point x="144.33366666666666" y="-1.6666666666666679"/>
      <point x="291.0" y="-1.6666666666666679" type="curve" smooth="yes"/>
      <point x="379.0003333333333" y="-1.6666666666666679"/>
      <point x="465.11133333333333" y="56.111333333333334"/>
      <point x="476.6666666666667" y="119.66666666666667" type="curve"/>
      <point x="454.3333333333333" y="125.66666666666667" type="line"/>
      <point x="454.3333333333333" y="31.666666666666664" type="line" smooth="yes"/>
      <point x="454.3333333333333" y="-65.94966666666667"/>
      <point x="402.9996666666667" y="-114.0"/>
      <point x="299.0" y="-114.0" type="curve" smooth="yes"/>
      <point x="239.88866666666667" y="-114.0"/>
      <point x="180.66666666666666" y="-95.11133333333333"/>
      <point x="139.33333333333334" y="-65.33333333333334" type="curve"/>
      <point x="91.0" y="-164.0" type="line"/>
      <point x="141.222" y="-203.111"/>
      <point x="229.222" y="-230.0"/>
    </contour>
    <contour>
      <point x="315.3333333333333" y="110.0" type="curve" smooth="yes"/>
      <point x="230.88899999999998" y="110.0"/>
      <point x="173.0" y="173.333"/>
      <point x="173.0" y="265.3333333333333" type="curve" smooth="yes"/>
      <point x="173.0" y="357.33366666666666"/>
      <point x="230.88899999999998" y="421.6666666666667"/>
      <point x="315.3333333333333" y="421.6666666666667" type="curve" smooth="yes"/>
      <point x="400.66633333333334" y="421.6666666666667"/>
      <point x="458.6666666666667" y="358.2223333333333"/>
      <point x="458.6666666666667" y="265.3333333333333" type="curve" smooth="yes"/>
      <point x="458.6666666666667" y="172.44433333333333"/>
      <point x="401.55566666666664" y="110.0"/>
    </contour>
  </outline>
</glyph>
<glyph name="h" format="2">
  <advance width="618.3333333333334"/>
  <unicode hex="0068"/>
  <anchor x="309.6666666666667" y="0.0" name="bottom"/>
  <anchor x="163.33333333333334" y="637.6666666666666" name="center"/>
  <anchor x="309.6666666666667" y="740.0" name="top"/>
  <outline>
    <contour>
      <point x="71.33333333333333" y="0.0" type="line"/>
      <point x="88.66633333333333" y="0.0"/>
      <point x="111.389" y="0.0"/>
      <point x="139.5" y="0.0" type="curve" smooth="yes"/>
      <point x="207.66666666666666" y="0.0" type="line"/>
      <point x="207.66666666666666" y="318.0" type="line" smooth="yes"/>
      <point x="207.66666666666666" y="376.22200000000004"/>
      <point x="256.55533333333335" y="421.6666666666667"/>
      <point x="322.3333333333333" y="421.6666666666667" type="curve" smooth="yes"/>
      <point x="385.0003333333333" y="424.3333333333333"/>
      <point x="416.6666666666667" y="388.11133333333333"/>
      <point x="416.6666666666667" y="313.0" type="curve" smooth="yes"/>
      <point x="416.6666666666667" y="0.0" type="line"/>
      <point x="553.0" y="0.0" type="line"/>
      <point x="553.0" y="323.3333333333333" type="line" smooth="yes"/>
      <point x="553.0" y="466.44433333333336"/>
      <point x="490.6666666666667" y="539.3333333333334"/>
      <point x="370.6666666666667" y="539.3333333333334" type="curve" smooth="yes"/>
      <point x="284.44433333333336" y="539.3333333333334"/>
      <point x="200.111" y="479.88866666666667"/>
      <point x="179.66666666666666" y="408.3333333333333" type="curve"/>
      <point x="206.0" y="420.3333333333333" type="line"/>
      <point x="206.0" y="740.0" type="line"/>
      <point x="71.33333333333333" y="740.0" type="line"/>
    </contour>
  </outline>
</glyph>
<glyph name="i" format="2">
  <advance width="302.0"/>
  <unicode hex="0069"/>
  <anchor x="151.0" y="0.0" name="bottom"/>
  <anchor x="213.66666666666666" y="0.0" name="ogonek"/>
  <anchor x="151.0" y="726.6666666666666" name="top"/>
  <outline>
    <contour>
      <point x="83.66666666666667" y="0.0" type="line"/>
      <point x="220.0" y="0.0" type="line"/>
      <point x="220.0" y="528.3333333333334" type="line"/>
      <point x="83.66666666666667" y="528.3333333333334" type="line"/>
    </contour>
    <contour>
      <point x="151.0" y="638.0" type="curve" smooth="yes"/>
      <point x="203.33333333333334" y="638.0"/>
      <point x="235.33333333333334" y="668.6666666666666"/>
      <point x="235.33333333333334" y="713.3333333333334" type="curve" smooth="yes"/>
      <point x="235.33333333333334" y="761.0"/>
      <point x="204.33333333333334" y="788.6666666666666"/>
      <point x="151.0" y="788.6666666666666" type="curve" smooth="yes"/>
      <point x="98.66666666666667" y="788.6666666666666"/>
      <point x="66.66666666666667" y="758.0"/>
      <point x="66.66666666666667" y="713.3333333333334" type="curve" smooth="yes"/>
      <point x="66.66666666666667" y="665.6666666666666"/>
      <point x="97.66666666666667" y="638.0"/>
    </contour>
  </outline>
</glyph>
<glyph name="j" format="2">
  <advance width="294.3333333333333"/>
  <unicode hex="006A"/>
  <outline>
    <contour>
      <point x="17.0" y="-204.33333333333334" type="line"/>
      <point x="144.0" y="-204.33333333333334"/>
      <point x="220.0" y="-136.33333333333334"/>
      <point x="220.0" y="-8.333333333333334" type="curve" smooth="yes"/>
      <point x="220.0" y="528.3333333333334" type="line"/>
      <point x="83.66666666666667" y="528.3333333333334" type="line"/>
      <point x="83.66666666666667" y="24.333333333333332" type="line" smooth="yes"/>
      <point x="83.66666666666667" y="-65.0"/>
      <point x="50.333333333333336" y="-99.33333333333334"/>
      <point x="-34.666666666666664" y="-99.33333333333334" type="curve"/>
    </contour>
    <contour>
      <point x="154.33333333333334" y="638.0" type="curve" smooth="yes"/>
      <point x="206.66666666666666" y="638.0"/>
      <point x="238.66666666666666" y="668.6666666666666"/>
      <point x="238.66666666666666" y="713.3333333333334" type="curve" smooth="yes"/>
      <point x="238.66666666666666" y="761.0"/>
      <point x="207.66666666666666" y="788.6666666666666"/>
      <point x="154.33333333333334" y="788.6666666666666" type="curve" smooth="yes"/>
      <point x="102.0" y="788.6666666666666"/>
      <point x="70.0" y="758.0"/>
      <point x="70.0" y="713.3333333333334" type="curve" smooth="yes"/>
      <point x="70.0" y="665.6666666666666"/>
      <point x="101.0" y="638.0"/>
    </contour>
  </outline>
</glyph>
<glyph name="k" format="2">
  <advance width="601.6666666666666"/>
  <unicode hex="006B"/>
  <anchor x="300.3333333333333" y="0.0" name="bottom"/>
  <anchor x="300.3333333333333" y="740.0" name="top"/>
  <outline>
    <contour>
      <point x="200.33333333333331" y="159.33333333333334" type="line"/>
      <point x="594.0" y="528.3333333333334" type="line"/>
      <point x="413.3333333333333" y="528.3333333333334" type="line"/>
      <point x="163.66666666666666" y="276.0" type="line"/>
    </contour>
    <contour>
      <point x="71.33333333333333" y="0.0" type="line"/>
      <point x="207.66666666666666" y="0.0" type="line"/>
      <point x="207.66666666666666" y="740.0" type="line"/>
      <point x="71.33333333333333" y="740.0" type="line"/>
    </contour>
    <contour>
      <point x="428.6666666666667" y="0.0" type="line"/>
      <point x="594.0" y="0.0" type="line"/>
      <point x="333.3333333333333" y="316.3333333333333" type="line"/>
      <point x="237.33333333333334" y="237.66666666666666" type="line"/>
    </contour>
  </outline>
</glyph>
<glyph name="l" format="2">
  <advance width="281.6666666666667"/>
  <unicode hex="006C"/>
  <anchor x="141.33333333333334" y="0.0" name="bottom"/>
  <anchor x="141.33333333333334" y="370.0" name="center"/>
  <anchor x="141.33333333333334" y="740.0" name="top"/>
  <anchor x="249.0" y="740.0" name="topright"/>
  <outline>
    <contour>
      <point x="72.66666666666667" y="0.0" type="line"/>
      <point x="209.0" y="0.0" type="line"/>
      <point x="209.0" y="740.0" type="line"/>
      <point x="72.66666666666667" y="740.0" type="line"/>
    </contour>
  </outline>
</glyph>
<glyph name="m" format="2">
  <advance width="945.0"/>
  <unicode hex="006D"/>
  <anchor x="473.0" y="0.0" name="bottom"/>
  <anchor x="473.0" y="528.3333333333334" name="top"/>
  <outline>
    <contour>
      <point x="70.0" y="0.0" type="line"/>
      <point x="207.0" y="0.0" type="line"/>
      <point x="207.0" y="316.6666666666667" type="line" smooth="yes"/>
      <point x="207.0" y="374.88866666666667"/>
      <point x="254.222" y="419.6666666666667"/>
      <point x="317.3333333333333" y="419.6666666666667" type="curve" smooth="yes"/>
      <point x="374.2223333333333" y="419.6666666666667"/>
      <point x="406.0" y="381.44466666666665"/>
      <point x="406.0" y="311.6666666666667" type="curve" smooth="yes"/>
      <point x="406.0" y="0.0" type="line"/>
      <point x="543.0" y="0.0" type="line"/>
      <point x="543.0" y="315.3333333333333" type="line" smooth="yes"/>
      <point x="543.0" y="374.44466666666665"/>
      <point x="590.0" y="419.6666666666667"/>
      <point x="654.0" y="419.6666666666667" type="curve" smooth="yes"/>
      <point x="714.4443333333334" y="419.6666666666667"/>
      <point x="744.0" y="384.55533333333335"/>
      <point x="744.0" y="310.3333333333333" type="curve" smooth="yes"/>
      <point x="744.0" y="0.0" type="line"/>
      <point x="881.0" y="0.0" type="line"/>
      <point x="881.0" y="320.0" type="line" smooth="yes"/>
      <point x="881.0" y="464.0003333333333"/>
      <point x="819.5553333333334" y="538.0"/>
      <point x="700.0" y="538.0" type="curve" smooth="yes"/>
      <point x="627.1113333333334" y="538.0"/>
      <point x="553.222" y="495.88866666666667"/>
      <point x="515.0" y="429.6666666666667" type="curve" smooth="yes"/>
      <point x="507.0" y="413.6666666666667" type="line"/>
      <point x="528.0" y="410.6666666666667" type="line"/>
      <point x="498.2223333333333" y="499.99966666666666"/>
      <point x="446.0003333333333" y="538.0"/>
      <point x="362.0" y="538.0" type="curve" smooth="yes"/>
      <point x="287.7776666666667" y="538.0"/>
      <point x="218.55566666666664" y="489.22200000000004"/>
      <point x="184.33333333333334" y="420.3333333333333" type="curve"/>
      <point x="204.66666666666666" y="425.6666666666667" type="line"/>
      <point x="202.0" y="528.3333333333334" type="line"/>
      <point x="70.0" y="528.3333333333334" type="line"/>
    </contour>
  </outline>
</glyph>
<glyph name="o" format="2">
  <advance width="630.0"/>
  <unicode hex="006F"/>
  <anchor x="315.3333333333333" y="0.0" name="bottom"/>
  <anchor x="315.3333333333333" y="264.6666666666667" name="center"/>
  <anchor x="478.6666666666667" y="0.0" name="ogonek"/>
  <anchor x="315.3333333333333" y="528.3333333333334" name="top"/>
  <anchor x="610.0" y="528.3333333333334" name="topright"/>
  <outline>
    <contour>
      <point x="315.6666666666667" y="-10.0" type="curve" smooth="yes"/>
      <point x="474.7776666666667" y="-10.0"/>
      <point x="593.3333333333334" y="106.00033333333333"/>
      <point x="593.3333333333334" y="264.6666666666667" type="curve" smooth="yes"/>
      <point x="593.3333333333334" y="423.333"/>
      <point x="474.7776666666667" y="539.3333333333334"/>
      <point x="315.6666666666667" y="539.3333333333334" type="curve" smooth="yes"/>
      <point x="155.22233333333332" y="539.3333333333334"/>
      <point x="36.666666666666664" y="423.333"/>
      <point x="36.666666666666664" y="264.6666666666667" type="curve" smooth="yes"/>
      <point x="36.666666666666664" y="106.00033333333333"/>
      <point x="155.22233333333332" y="-10.0"/>
    </contour>
    <contour>
      <point x="315.6666666666667" y="109.33333333333333" type="curve" smooth="yes"/>
      <point x="233.88866666666667" y="109.33333333333333"/>
      <point x="174.11133333333333" y="175.333"/>
      <point x="175.0" y="264.6666666666667" type="curve" smooth="yes"/>
      <point x="174.11133333333333" y="354.44466666666665"/>
      <point x="233.88866666666667" y="420.3333333333333"/>
      <point x="315.6666666666667" y="420.3333333333333" type="curve" smooth="yes"/>
      <point x="397.0003333333333" y="420.3333333333333"/>
      <point x="455.88866666666667" y="355.3333333333333"/>
      <point x="455.0" y="264.6666666666667" type="curve" smooth="yes"/>
      <point x="455.88866666666667" y="175.333"/>
      <point x="397.0003333333333" y="109.33333333333333"/>
    </contour>
  </outline>
</glyph>
<glyph name="p" format="2">
  <advance width="647.0"/>
  <unicode hex="0070"/>
  <anchor x="324.0" y="0.0" name="bottom"/>
  <anchor x="324.0" y="528.3333333333334" name="top"/>
  <outline>
    <contour>
      <point x="71.33333333333333" y="-220.0" type="line"/>
      <point x="208.66666666666666" y="-220.0" type="line"/>
      <point x="208.66666666666666" y="131.0" type="line"/>
      <point x="176.33333333333334" y="117.0" type="line"/>
      <point x="191.889" y="51.667"/>
      <point x="279.7776666666667" y="-9.0"/>
      <point x="371.3333333333333" y="-9.0" type="curve" smooth="yes"/>
      <point x="509.11133333333333" y="-9.0"/>
      <point x="610.3333333333334" y="106.889"/>
      <point x="610.3333333333334" y="264.6666666666667" type="curve" smooth="yes"/>
      <point x="610.3333333333334" y="424.22200000000004"/>
      <point x="509.22200000000004" y="538.0"/>
      <point x="371.0" y="538.0" type="curve" smooth="yes"/>
      <point x="281.2223333333333" y="538.0"/>
      <point x="195.111" y="481.111"/>
      <point x="182.66666666666666" y="418.0" type="curve"/>
      <point x="207.0" y="409.0" type="line"/>
      <point x="203.33333333333334" y="528.3333333333334" type="line"/>
      <point x="71.33333333333333" y="528.3333333333334" type="line"/>
    </contour>
    <contour>
      <point x="341.3333333333333" y="109.33333333333333" type="curve" smooth="yes"/>
      <point x="259.5556666666667" y="109.33333333333333"/>
      <point x="203.66666666666666" y="173.11133333333333"/>
      <point x="203.66666666666666" y="264.6666666666667" type="curve" smooth="yes"/>
      <point x="203.66666666666666" y="357.11133333333333"/>
      <point x="259.5556666666667" y="419.6666666666667"/>
      <point x="341.3333333333333" y="419.6666666666667" type="curve" smooth="yes"/>
      <point x="422.66633333333334" y="419.6666666666667"/>
      <point x="478.0" y="356.22200000000004"/>
      <point x="478.0" y="264.6666666666667" type="curve" smooth="yes"/>
      <point x="478.0" y="173.11133333333333"/>
      <point x="421.7776666666667" y="109.33333333333333"/>
    </contour>
  </outline>
</glyph>
<glyph name="q" format="2">
  <advance width="646.3333333333334"/>
  <unicode hex="0071"/>
  <anchor x="323.3333333333333" y="0.0" name="bottom"/>
  <anchor x="323.3333333333333" y="528.3333333333334" name="top"/>
  <outline>
    <contour>
      <point x="438.3333333333333" y="-220.0" type="line"/>
      <point x="575.0" y="-220.0" type="line"/>
      <point x="575.0" y="529.0" type="line"/>
      <point x="443.6666666666667" y="529.0" type="line"/>
      <point x="440.0" y="398.3333333333333" type="line"/>
      <point x="473.6666666666667" y="402.6666666666667" type="line"/>
      <point x="469.2223333333333" y="471.111"/>
      <point x="377.33366666666666" y="539.3333333333334"/>
      <point x="276.0" y="539.3333333333334" type="curve" smooth="yes"/>
      <point x="138.66666666666666" y="539.3333333333334"/>
      <point x="36.666666666666664" y="424.22200000000004"/>
      <point x="36.666666666666664" y="264.6666666666667" type="curve" smooth="yes"/>
      <point x="36.666666666666664" y="106.00033333333333"/>
      <point x="140.11133333333333" y="-9.666666666666666"/>
      <point x="279.6666666666667" y="-9.666666666666666" type="curve" smooth="yes"/>
      <point x="371.2223333333333" y="-9.666666666666666"/>
      <point x="460.889" y="56.111"/>
      <point x="466.6666666666667" y="122.33333333333333" type="curve"/>
      <point x="438.3333333333333" y="127.0" type="line"/>
    </contour>
    <contour>
      <point x="305.6666666666667" y="108.66666666666666" type="curve" smooth="yes"/>
      <point x="224.33366666666666" y="108.66666666666666"/>
      <point x="169.0" y="172.222"/>
      <point x="169.0" y="264.6666666666667" type="curve" smooth="yes"/>
      <point x="169.0" y="357.11133333333333"/>
      <point x="224.33366666666666" y="421.6666666666667"/>
      <point x="305.6666666666667" y="421.6666666666667" type="curve" smooth="yes"/>
      <point x="387.44433333333336" y="421.6666666666667"/>
      <point x="442.6666666666667" y="358.0"/>
      <point x="442.6666666666667" y="264.6666666666667" type="curve" smooth="yes"/>
      <point x="442.6666666666667" y="171.33333333333334"/>
      <point x="387.44433333333336" y="108.66666666666666"/>
    </contour>
  </outline>
</glyph>
<glyph name="r" format="2">
  <advance width="433.0"/>
  <unicode hex="0072"/>
  <anchor x="137.33333333333334" y="0.0" name="bottom"/>
  <anchor x="253.66666666666666" y="528.3333333333334" name="top"/>
  <outline>
    <contour>
      <point x="71.33333333333333" y="0.0" type="line"/>
      <point x="208.33333333333331" y="0.0" type="line"/>
      <point x="208.33333333333331" y="276.0" type="line" smooth="yes"/>
      <point x="208.33333333333331" y="344.0"/>
      <point x="259.2223333333333" y="394.3333333333333"/>
      <point x="323.6666666666667" y="394.3333333333333" type="curve" smooth="yes"/>
      <point x="347.2223333333333" y="394.3333333333333"/>
      <point x="371.2223333333333" y="387.55566666666664"/>
      <point x="386.3333333333333" y="380.0" type="curve"/>
      <point x="423.0" y="529.6666666666666" type="line"/>
      <point x="408.3333333333333" y="534.9996666666666"/>
      <point x="386.44466666666665" y="539.3333333333334"/>
      <point x="363.3333333333333" y="539.3333333333334" type="curve" smooth="yes"/>
      <point x="284.2223333333333" y="539.3333333333334"/>
      <point x="209.22233333333332" y="476.3333333333333"/>
      <point x="185.66666666666666" y="395.0" type="curve"/>
      <point x="207.33333333333334" y="359.0" type="line"/>
      <point x="203.33333333333334" y="528.3333333333334" type="line"/>
      <point x="71.33333333333333" y="528.3333333333334" type="line"/>
    </contour>
  </outline>
</glyph>
<glyph name="s" format="2">
  <advance width="488.3333333333333"/>
  <unicode hex="0073"/>
  <anchor x="250.66666666666666" y="0.0" name="bottom"/>
  <anchor x="244.66666666666666" y="528.3333333333334" name="top"/>
  <outline>
    <contour>
      <point x="249.0" y="-10.0" type="curve" smooth="yes"/>
      <point x="366.7776666666667" y="-10.0"/>
      <point x="457.0" y="60.111"/>
      <point x="457.0" y="157.0" type="curve" smooth="yes"/>
      <point x="457.0" y="194.66666666666666"/>
      <point x="446.6666666666667" y="225.33333333333334"/>
      <point x="423.0" y="250.0" type="curve" smooth="yes"/>
      <point x="396.3333333333333" y="277.6666666666667"/>
      <point x="352.6666666666667" y="299.0"/>
      <point x="288.6666666666667" y="316.0" type="curve" smooth="yes"/>
      <point x="239.96733333333333" y="328.89833333333337"/>
      <point x="211.33333333333334" y="339.44466666666665"/>
      <point x="198.0" y="348.6666666666667" type="curve" smooth="yes"/>
      <point x="183.66666666666666" y="358.55533333333335"/>
      <point x="176.778" y="371.3333333333333"/>
      <point x="176.33333333333334" y="387.0" type="curve" smooth="yes"/>
      <point x="176.33333333333334" y="419.66633333333334"/>
      <point x="202.11133333333333" y="437.3333333333333"/>
      <point x="247.66666666666666" y="437.3333333333333" type="curve" smooth="yes"/>
      <point x="289.77799999999996" y="437.3333333333333"/>
      <point x="343.111" y="410.77799999999996"/>
      <point x="380.0" y="375.6666666666667" type="curve"/>
      <point x="453.6666666666667" y="457.3333333333333" type="line"/>
      <point x="404.333" y="508.0"/>
      <point x="327.2223333333333" y="539.3333333333334"/>
      <point x="245.0" y="539.3333333333334" type="curve" smooth="yes"/>
      <point x="136.11133333333333" y="539.3333333333334"/>
      <point x="43.333333333333336" y="475.3636666666667"/>
      <point x="43.333333333333336" y="380.6666666666667" type="curve" smooth="yes"/>
      <point x="43.333333333333336" y="341.0"/>
      <point x="55.666666666666664" y="308.6666666666667"/>
      <point x="79.66666666666667" y="282.3333333333333" type="curve" smooth="yes"/>
      <point x="108.0" y="252.0"/>
      <point x="154.66666666666666" y="228.66666666666666"/>
      <point x="223.33333333333334" y="211.0" type="curve" smooth="yes"/>
      <point x="268.22200000000004" y="199.22233333333332"/>
      <point x="296.72200000000004" y="189.111"/>
      <point x="308.8333333333333" y="180.66666666666666" type="curve" smooth="yes"/>
      <point x="320.94466666666665" y="172.22233333333332"/>
      <point x="327.0" y="160.55533333333332"/>
      <point x="327.0" y="145.66666666666666" type="curve" smooth="yes"/>
      <point x="327.0" y="113.22233333333334"/>
      <point x="299.7776666666667" y="93.0"/>
      <point x="258.0" y="93.0" type="curve" smooth="yes"/>
      <point x="205.66033333333334" y="93.0"/>
      <point x="153.66666666666666" y="111.55533333333332"/>
      <point x="113.0" y="155.33333333333334" type="curve"/>
      <point x="27.0" y="81.66666666666667" type="line"/>
      <point x="74.277" y="23.753333333333334"/>
      <point x="151.86" y="-10.0"/>
    </contour>
  </outline>
</glyph>
<glyph name="t" format="2">
  <advance width="392.3333333333333"/>
  <unicode hex="0074"/>
  <anchor x="196.33333333333334" y="0.0" name="bottom"/>
  <anchor x="196.33333333333334" y="264.6666666666667" name="center"/>
  <anchor x="195.0" y="612.0" name="top"/>
  <anchor x="281.0" y="811.3333333333334" name="topright"/>
  <outline>
    <contour>
      <point x="124.0" y="0.0" type="line"/>
      <point x="260.3333333333333" y="0.0" type="line"/>
      <point x="260.3333333333333" y="662.6666666666666" type="line"/>
      <point x="124.0" y="662.6666666666666" type="line"/>
    </contour>
    <contour>
      <point x="23.666666666666668" y="405.0" type="line"/>
      <point x="371.0" y="405.0" type="line"/>
      <point x="371.0" y="528.3333333333334" type="line"/>
      <point x="23.666666666666668" y="528.3333333333334" type="line"/>
    </contour>
  </outline>
</glyph>
<glyph name="u" format="2">
  <advance width="626.3333333333334"/>
  <unicode hex="0075"/>
  <anchor x="313.6666666666667" y="0.0" name="bottom"/>
  <anchor x="541.0" y="0.0" name="ogonek"/>
  <anchor x="313.6666666666667" y="528.3333333333334" name="top"/>
  <anchor x="606.3333333333334" y="528.3333333333334" name="topright"/>
  <outline>
    <contour>
      <point x="253.66666666666666" y="-10.333333333333334" type="curve" smooth="yes"/>
      <point x="342.55533333333335" y="-10.333333333333334"/>
      <point x="421.2223333333333" y="46.222"/>
      <point x="444.3333333333333" y="121.33333333333333" type="curve"/>
      <point x="419.6666666666667" y="109.33333333333333" type="line"/>
      <point x="423.6666666666667" y="0.0" type="line"/>
      <point x="554.3333333333334" y="0.0" type="line"/>
      <point x="554.3333333333334" y="528.3333333333334" type="line"/>
      <point x="418.0" y="528.3333333333334" type="line"/>
      <point x="418.0" y="211.66666666666666" type="line" smooth="yes"/>
      <point x="418.0" y="149.0"/>
      <point x="371.3333333333333" y="104.66666666666666"/>
      <point x="307.3333333333333" y="104.66666666666666" type="curve" smooth="yes"/>
      <point x="242.44466666666668" y="104.66666666666666"/>
      <point x="204.33333333333334" y="150.66666666666666"/>
      <point x="204.33333333333334" y="226.66666666666666" type="curve" smooth="yes"/>
      <point x="204.33333333333334" y="528.3333333333334" type="line"/>
      <point x="68.0" y="528.3333333333334" type="line"/>
      <point x="68.0" y="202.33333333333334" type="line" smooth="yes"/>
      <point x="68.0" y="69.889"/>
      <point x="138.55566666666667" y="-10.333333333333334"/>
    </contour>
  </outline>
</glyph>
<glyph name="v" format="2">
  <advance width="591.6666666666666"/>
  <unicode hex="0076"/>
  <anchor x="296.3333333333333" y="0.0" name="bottom"/>
  <anchor x="296.3333333333333" y="528.3333333333334" name="top"/>
  <outline>
    <contour>
      <point x="238.33333333333334" y="0.0" type="line"/>
      <point x="342.3333333333333" y="0.0" type="line"/>
      <point x="575.3333333333334" y="528.3333333333334" type="line"/>
      <point x="429.3333333333333" y="528.3333333333334" type="line"/>
      <point x="278.6666666666667" y="127.33333333333333" type="line"/>
      <point x="309.3333333333333" y="133.33333333333334" type="line"/>
      <point x="165.66666666666666" y="528.3333333333334" type="line"/>
      <point x="16.333333333333336" y="528.3333333333334" type="line"/>
    </contour>
  </outline>
</glyph>
<glyph name="w" format="2">
  <advance width="819.6666666666666"/>
  <unicode hex="0077"/>
  <anchor x="410.0" y="0.0" name="bottom"/>
  <anchor x="410.0" y="528.3333333333334" name="top"/>
  <outline>
    <contour>
      <point x="193.0" y="0.0" type="line"/>
      <point x="291.0" y="0.0" type="line"/>
      <point x="414.3333333333333" y="303.3333333333333" type="line"/>
      <point x="397.6666666666667" y="305.3333333333333" type="line"/>
      <point x="525.6666666666666" y="0.0" type="line"/>
      <point x="624.3333333333334" y="0.0" type="line"/>
      <point x="803.3333333333334" y="528.3333333333334" type="line"/>
      <point x="662.0" y="528.3333333333334" type="line"/>
      <point x="550.6666666666666" y="163.66666666666666" type="line"/>
      <point x="575.3333333333334" y="166.0" type="line"/>
      <point x="449.3333333333333" y="451.3333333333333" type="line"/>
      <point x="368.6666666666667" y="451.3333333333333" type="line"/>
      <point x="246.66666666666666" y="166.66666666666666" type="line"/>
      <point x="268.6666666666667" y="164.0" type="line"/>
      <point x="157.66666666666666" y="529.0" type="line"/>
      <point x="16.333333333333336" y="528.3333333333334" type="line"/>
    </contour>
  </outline>
</glyph>
<glyph name="x" format="2">
  <advance width="587.6666666666666"/>
  <unicode hex="0078"/>
  <anchor x="294.0" y="0.0" name="bottom"/>
  <anchor x="294.0" y="528.3333333333334" name="top"/>
  <outline>
    <contour>
      <point x="407.6666666666667" y="0.0" type="line"/>
      <point x="571.0" y="0.0" type="line"/>
      <point x="359.0" y="288.0" type="line"/>
      <point x="319.0" y="342.3333333333333" type="line"/>
      <point x="185.66666666666666" y="528.3333333333334" type="line"/>
      <point x="19.666666666666664" y="528.3333333333334" type="line"/>
      <point x="234.0" y="242.33333333333334" type="line"/>
      <point x="270.6666666666667" y="192.0" type="line"/>
    </contour>
    <contour>
      <point x="17.333333333333332" y="0.0" type="line"/>
      <point x="178.0" y="0.0" type="line"/>
      <point x="304.0" y="196.0" type="line"/>
      <point x="228.33333333333334" y="286.3333333333333" type="line"/>
    </contour>
    <contour>
      <point x="354.6666666666667" y="240.66666666666666" type="line"/>
      <point x="557.3333333333334" y="528.3333333333334" type="line"/>
      <point x="396.6666666666667" y="528.3333333333334" type="line"/>
      <point x="281.6666666666667" y="330.3333333333333" type="line"/>
    </contour>
  </outline>
</glyph>
<glyph name="y" format="2">
  <advance width="603.6666666666666"/>
  <unicode hex="0079"/>
  <anchor x="493.0" y="0.0" name="bottom"/>
  <anchor x="302.3333333333333" y="528.3333333333334" name="top"/>
  <outline>
    <contour>
      <point x="147.0" y="-230.0" type="line"/>
      <point x="286.3333333333333" y="-230.0" type="line"/>
      <point x="377.0" y="0.0" type="line"/>
      <point x="598.6666666666666" y="528.3333333333334" type="line"/>
      <point x="442.0" y="528.3333333333334" type="line"/>
      <point x="327.3333333333333" y="206.66666666666666" type="line" smooth="yes"/>
      <point x="316.0" y="174.33333333333331"/>
      <point x="305.6666666666667" y="144.66666666666666"/>
      <point x="297.3333333333333" y="121.0" type="curve"/>
      <point x="321.3333333333333" y="131.0" type="line"/>
      <point x="314.6666666666667" y="158.0"/>
      <point x="303.6666666666667" y="190.33333333333331"/>
      <point x="294.3333333333333" y="211.66666666666666" type="curve" smooth="yes"/>
      <point x="160.33333333333331" y="528.3333333333334" type="line"/>
      <point x="5.0" y="528.3333333333334" type="line"/>
      <point x="263.3333333333333" y="-44.0" type="line"/>
      <point x="262.0" y="38.0" type="line"/>
    </contour>
  </outline>
</glyph>
<glyph name="z" format="2">
  <advance width="522.3333333333334"/>
  <unicode hex="007A"/>
  <anchor x="261.3333333333333" y="0.0" name="bottom"/>
  <anchor x="261.3333333333333" y="264.6666666666667" name="center"/>
  <anchor x="261.3333333333333" y="528.3333333333334" name="top"/>
  <outline>
    <contour>
      <point x="50.0" y="0.0" type="line"/>
      <point x="473.6666666666667" y="0.0" type="line"/>
      <point x="473.6666666666667" y="112.66666666666666" type="line"/>
      <point x="195.33333333333331" y="112.66666666666666" type="line"/>
      <point x="199.33333333333331" y="84.0" type="line"/>
      <point x="466.3333333333333" y="437.6666666666667" type="line"/>
      <point x="466.3333333333333" y="528.3333333333334" type="line"/>
      <point x="50.0" y="528.3333333333334" type="line"/>
      <point x="50.0" y="415.6666666666667" type="line"/>
      <point x="327.6666666666667" y="415.6666666666667" type="line"/>
      <point x="327.6666666666667" y="451.3333333333333" type="line"/>
      <point x="50.0" y="89.33333333333333" type="line"/>
    </contour>
  </outline>
</glyph>
<glyph name="braceleft" format="2">
  <advance width="420.0"/>
  <unicode hex="007B"/>
  <outline>
    <contour>
      <point x="366.0" y="-203.33333333333334" type="curve"/>
      <point x="394.0" y="-104.33333333333334" type="line"/>
      <point x="316.33933333333334" y="-78.15033333333334"/>
      <point x="293.6666666666667" y="-58.09766666666667"/>
      <point x="293.6666666666667" y="13.666666666666666" type="curve" smooth="yes"/>
      <point x="295.6666666666667" y="102.0" type="line" smooth="yes"/>
      <point x="295.6666666666667" y="178.0"/>
      <point x="254.22233333333332" y="229.99966666666666"/>
      <point x="166.66666666666666" y="255.33333333333334" type="curve"/>
      <point x="167.33333333333334" y="245.66666666666666" type="line"/>
      <point x="254.00033333333332" y="268.3333333333333"/>
      <point x="295.6666666666667" y="320.667"/>
      <point x="295.6666666666667" y="398.0" type="curve" smooth="yes"/>
      <point x="293.6666666666667" y="486.3333333333333" type="line" smooth="yes"/>
      <point x="293.6666666666667" y="561.631"/>
      <point x="317.2163333333333" y="582.3683333333333"/>
      <point x="394.0" y="607.6666666666666" type="curve"/>
      <point x="366.0" y="703.3333333333334" type="line"/>
      <point x="230.24566666666666" y="674.305"/>
      <point x="171.66666666666666" y="616.333"/>
      <point x="171.66666666666666" y="507.0" type="curve" smooth="yes"/>
      <point x="172.66666666666666" y="412.0" type="line" smooth="yes"/>
      <point x="172.66666666666666" y="339.55533333333335"/>
      <point x="142.334" y="303.9823333333334"/>
      <point x="84.33333333333333" y="302.6666666666667" type="curve" smooth="yes"/>
      <point x="41.0" y="302.6666666666667" type="line"/>
      <point x="41.0" y="197.33333333333334" type="line"/>
      <point x="82.33333333333333" y="197.33333333333334" type="line" smooth="yes"/>
      <point x="140.35133333333334" y="196.017"/>
      <point x="172.66666666666666" y="159.111"/>
      <point x="172.66666666666666" y="88.0" type="curve" smooth="yes"/>
      <point x="171.66666666666666" y="-7.0" type="line" smooth="yes"/>
      <point x="171.66666666666666" y="-120.333"/>
      <point x="231.58066666666667" y="-176.09366666666668"/>
    </contour>
  </outline>
</glyph>
<glyph name="bar" format="2">
  <advance width="281.6666666666667"/>
  <unicode hex="007C"/>
  <outline>
    <contour>
      <point x="76.33333333333333" y="-193.0" type="line"/>
      <point x="205.33333333333331" y="-193.0" type="line"/>
      <point x="205.33333333333331" y="740.0" type="line"/>
      <point x="76.33333333333333" y="740.0" type="line"/>
    </contour>
  </outline>
</glyph>
<glyph name="braceright" format="2">
  <advance width="420.0"/>
  <unicode hex="007D"/>
  <outline>
    <contour>
      <point x="54.0" y="-203.33333333333334" type="line"/>
      <point x="189.66666666666666" y="-174.33333333333334"/>
      <point x="248.33333333333334" y="-116.0"/>
      <point x="248.33333333333334" y="-7.0" type="curve" smooth="yes"/>
      <point x="247.33333333333334" y="88.0" type="line" smooth="yes"/>
      <point x="247.33333333333334" y="160.66666666666666"/>
      <point x="277.3333333333333" y="196.33333333333334"/>
      <point x="335.6666666666667" y="197.33333333333334" type="curve" smooth="yes"/>
      <point x="379.0" y="197.33333333333334" type="line"/>
      <point x="379.0" y="302.6666666666667" type="line"/>
      <point x="337.6666666666667" y="302.6666666666667" type="line" smooth="yes"/>
      <point x="279.3333333333333" y="303.6666666666667"/>
      <point x="247.33333333333334" y="341.0"/>
      <point x="247.33333333333334" y="412.0" type="curve" smooth="yes"/>
      <point x="248.33333333333334" y="507.0" type="line" smooth="yes"/>
      <point x="248.33333333333334" y="620.0"/>
      <point x="188.66666666666666" y="676.0"/>
      <point x="54.0" y="703.3333333333334" type="curve"/>
      <point x="26.0" y="604.3333333333334" type="line"/>
      <point x="104.0" y="578.3333333333334"/>
      <point x="126.33333333333333" y="558.0"/>
      <point x="126.33333333333333" y="486.3333333333333" type="curve" smooth="yes"/>
      <point x="124.33333333333333" y="398.0" type="line" smooth="yes"/>
      <point x="124.33333333333333" y="322.0"/>
      <point x="165.66666666666666" y="270.3333333333333"/>
      <point x="253.33333333333334" y="244.66666666666666" type="curve"/>
      <point x="252.66666666666666" y="254.33333333333334" type="line"/>
      <point x="165.66666666666666" y="231.66666666666666"/>
      <point x="124.33333333333333" y="179.0"/>
      <point x="124.33333333333333" y="102.0" type="curve" smooth="yes"/>
      <point x="126.33333333333333" y="13.666666666666666" type="line" smooth="yes"/>
      <point x="126.33333333333333" y="-62.0"/>
      <point x="102.66666666666667" y="-82.33333333333334"/>
      <point x="26.0" y="-107.66666666666667" type="curve"/>
    </contour>
  </outline>
</glyph>
<glyph name="asciitilde" format="2">
  <advance width="538.0"/>
  <unicode hex="007E"/>
  <outline>
    <contour>
      <point x="371.6666666666667" y="211.66666666666666" type="curve" smooth="yes"/>
      <point x="457.0003333333333" y="211.66666666666666"/>
      <point x="501.3333333333333" y="268.91766666666666"/>
      <point x="501.3333333333333" y="377.3333333333333" type="curve"/>
      <point x="403.6666666666667" y="379.3333333333333" type="line"/>
      <point x="406.33366666666666" y="348.2223333333333"/>
      <point x="390.2223333333333" y="325.0"/>
      <point x="367.6666666666667" y="325.0" type="curve" smooth="yes"/>
      <point x="348.3333333333333" y="325.0"/>
      <point x="313.0" y="340.22200000000004"/>
      <point x="286.6666666666667" y="350.6666666666667" type="curve" smooth="yes"/>
      <point x="256.6666666666667" y="363.0"/>
      <point x="208.0" y="383.6666666666667"/>
      <point x="174.66666666666666" y="383.6666666666667" type="curve" smooth="yes"/>
      <point x="81.73566666666666" y="383.6666666666667"/>
      <point x="35.333333333333336" y="321.0003333333333"/>
      <point x="35.333333333333336" y="209.0" type="curve"/>
      <point x="133.0" y="209.0" type="line"/>
      <point x="133.0" y="248.55533333333335"/>
      <point x="146.46833333333333" y="270.0"/>
      <point x="171.33333333333334" y="270.0" type="curve" smooth="yes"/>
      <point x="189.0" y="270.0"/>
      <point x="228.55533333333332" y="255.222"/>
      <point x="258.0" y="243.0" type="curve" smooth="yes"/>
      <point x="289.6666666666667" y="230.0"/>
      <point x="339.0" y="211.66666666666666"/>
    </contour>
  </outline>
</glyph>
<glyph name="cent" format="2">
  <advance width="551.0"/>
  <unicode hex="00A2"/>
  <outline>
    <contour>
      <point x="310.3333333333333" y="78.0" type="curve" smooth="yes"/>
      <point x="399.22200000000004" y="78.0"/>
      <point x="485.7776666666667" y="116.77766666666666"/>
      <point x="530.6666666666666" y="175.0" type="curve"/>
      <point x="456.3333333333333" y="265.3333333333333" type="line"/>
      <point x="420.333" y="222.22233333333332"/>
      <point x="375.66633333333334" y="198.0"/>
      <point x="323.6666666666667" y="198.0" type="curve" smooth="yes"/>
      <point x="239.22233333333332" y="198.0"/>
      <point x="175.33333333333331" y="265.44466666666665"/>
      <point x="175.33333333333331" y="353.0" type="curve" smooth="yes"/>
      <point x="175.33333333333331" y="441.889"/>
      <point x="236.77766666666668" y="507.6666666666667"/>
      <point x="323.0" y="507.6666666666667" type="curve" smooth="yes"/>
      <point x="374.111" y="507.6666666666667"/>
      <point x="427.44433333333336" y="477.11133333333333"/>
      <point x="456.3333333333333" y="438.0" type="curve"/>
      <point x="531.0" y="528.0" type="line"/>
      <point x="487.4443333333333" y="590.222"/>
      <point x="404.55533333333335" y="627.3333333333334"/>
      <point x="310.3333333333333" y="627.3333333333334" type="curve" smooth="yes"/>
      <point x="157.44466666666668" y="627.3333333333334"/>
      <point x="43.333333333333336" y="509.55566666666664"/>
      <point x="43.333333333333336" y="352.6666666666667" type="curve" smooth="yes"/>
      <point x="43.333333333333336" y="195.77766666666668"/>
      <point x="157.44466666666668" y="78.0"/>
    </contour>
    <contour>
      <point x="254.0" y="0.0" type="line"/>
      <point x="364.3333333333333" y="0.0" type="line"/>
      <point x="364.3333333333333" y="107.0" type="line"/>
      <point x="348.6666666666667" y="142.33333333333334" type="line"/>
      <point x="348.6666666666667" y="564.6666666666666" type="line"/>
      <point x="364.3333333333333" y="605.0" type="line"/>
      <point x="364.3333333333333" y="703.3333333333334" type="line"/>
      <point x="254.0" y="703.3333333333334" type="line"/>
      <point x="254.0" y="606.0" type="line"/>
      <point x="272.0" y="558.6666666666666" type="line"/>
      <point x="272.0" y="145.33333333333334" type="line"/>
      <point x="254.0" y="108.0" type="line"/>
    </contour>
  </outline>
</glyph>
<glyph name="sterling" format="2">
  <advance width="626.3333333333334"/>
  <unicode hex="00A3"/>
  <outline>
    <contour>
      <point x="190.33333333333334" y="53.0" type="line"/>
      <point x="264.99966666666666" y="113.88866666666667"/>
      <point x="294.3333333333333" y="165.77766666666668"/>
      <point x="294.3333333333333" y="226.66666666666666" type="curve" smooth="yes"/>
      <point x="294.3333333333333" y="262.2223333333333"/>
      <point x="279.6666666666667" y="309.44433333333336"/>
      <point x="265.6666666666667" y="353.0" type="curve" smooth="yes"/>
      <point x="253.0" y="392.0"/>
      <point x="237.33333333333334" y="438.3333333333333"/>
      <point x="237.33333333333334" y="479.3333333333333" type="curve" smooth="yes"/>
      <point x="237.33333333333334" y="543.7776666666666"/>
      <point x="282.22200000000004" y="590.3333333333334"/>
      <point x="346.6666666666667" y="590.3333333333334" type="curve" smooth="yes"/>
      <point x="387.11133333333333" y="590.3333333333334"/>
      <point x="419.333" y="576.4443333333334"/>
      <point x="444.6666666666667" y="546.6666666666666" type="curve"/>
      <point x="545.6666666666666" y="625.0" type="line"/>
      <point x="513.6663333333333" y="680.5553333333334"/>
      <point x="442.44433333333336" y="713.3333333333334"/>
      <point x="350.0" y="713.3333333333334" type="curve" smooth="yes"/>
      <point x="204.667" y="713.3333333333334"/>
      <point x="110.66666666666667" y="623.889"/>
      <point x="110.66666666666667" y="487.0" type="curve" smooth="yes"/>
      <point x="110.66666666666667" y="455.0"/>
      <point x="115.66666666666667" y="426.667"/>
      <point x="139.66666666666666" y="352.0" type="curve" smooth="yes"/>
      <point x="161.44466666666668" y="286.44433333333336"/>
      <point x="175.0" y="235.55533333333332"/>
      <point x="175.0" y="198.0" type="curve" smooth="yes"/>
      <point x="175.0" y="147.22233333333332"/>
      <point x="149.111" y="92.66666666666667"/>
      <point x="115.33333333333333" y="74.0" type="curve"/>
    </contour>
    <contour>
      <point x="438.6666666666667" y="-21.0" type="curve" smooth="yes"/>
      <point x="497.2223333333333" y="-21.0"/>
      <point x="563.5556666666666" y="0.3336666666666666"/>
      <point x="608.0" y="40.333333333333336" type="curve"/>
      <point x="544.0" y="128.66666666666666" type="line"/>
      <point x="504.88866666666667" y="104.66666666666666"/>
      <point x="467.44433333333336" y="93.66666666666666"/>
      <point x="434.6666666666667" y="93.66666666666666" type="curve" smooth="yes"/>
      <point x="400.6666666666667" y="93.66666666666666"/>
      <point x="366.6666666666667" y="105.66666666666666"/>
      <point x="338.6666666666667" y="115.66666666666666" type="curve" smooth="yes"/>
      <point x="281.44466666666665" y="135.66666666666666"/>
      <point x="256.88866666666667" y="140.66666666666666"/>
      <point x="217.33333333333334" y="140.66666666666666" type="curve" smooth="yes"/>
      <point x="148.99966666666666" y="140.66666666666666"/>
      <point x="80.66666666666667" y="120.889"/>
      <point x="24.666666666666668" y="86.66666666666666" type="curve"/>
      <point x="74.66666666666667" y="-9.333333333333332" type="line"/>
      <point x="123.88866666666667" y="12.333333333333334"/>
      <point x="172.55533333333332" y="26.0"/>
      <point x="216.0" y="26.0" type="curve" smooth="yes"/>
      <point x="248.66666666666666" y="26.0"/>
      <point x="291.6666666666667" y="12.0"/>
      <point x="317.6666666666667" y="4.0" type="curve" smooth="yes"/>
      <point x="346.6666666666667" y="-5.0"/>
      <point x="398.6666666666667" y="-21.0"/>
    </contour>
    <contour>
      <point x="44.0" y="311.6666666666667" type="line"/>
      <point x="462.0" y="311.6666666666667" type="line"/>
      <point x="462.0" y="401.6666666666667" type="line"/>
      <point x="44.0" y="401.6666666666667" type="line"/>
    </contour>
  </outline>
</glyph>
<glyph name="currency" format="2">
  <advance width="556.0"/>
  <unicode hex="00A4"/>
  <outline>
    <contour>
      <point x="280.6666666666667" y="114.66666666666667" type="curve" smooth="yes"/>
      <point x="390.889" y="114.66666666666667"/>
      <point x="475.6666666666667" y="196.889"/>
      <point x="475.6666666666667" y="304.0" type="curve" smooth="yes"/>
      <point x="475.6666666666667" y="410.2223333333333"/>
      <point x="389.9996666666667" y="493.3333333333333"/>
      <point x="280.6666666666667" y="493.3333333333333" type="curve" smooth="yes"/>
      <point x="169.99966666666666" y="493.3333333333333"/>
      <point x="85.0" y="411.111"/>
      <point x="85.0" y="304.0" type="curve" smooth="yes"/>
      <point x="85.0" y="196.889"/>
      <point x="169.99966666666666" y="114.66666666666667"/>
    </contour>
    <contour>
      <point x="130.0" y="69.33333333333333" type="line"/>
      <point x="218.0" y="160.66666666666666" type="line"/>
      <point x="131.66666666666666" y="249.33333333333334" type="line"/>
      <point x="42.66666666666667" y="156.33333333333334" type="line"/>
    </contour>
    <contour>
      <point x="127.33333333333334" y="365.6666666666667" type="line"/>
      <point x="215.33333333333334" y="451.0" type="line"/>
      <point x="124.0" y="538.3333333333334" type="line"/>
      <point x="37.333333333333336" y="451.6666666666667" type="line"/>
    </contour>
    <contour>
      <point x="280.6666666666667" y="220.0" type="curve" smooth="yes"/>
      <point x="236.22233333333332" y="220.0"/>
      <point x="204.0" y="255.11133333333333"/>
      <point x="204.0" y="304.0" type="curve" smooth="yes"/>
      <point x="204.0" y="353.333"/>
      <point x="236.22233333333332" y="389.0"/>
      <point x="280.6666666666667" y="389.0" type="curve" smooth="yes"/>
      <point x="325.9996666666667" y="389.0"/>
      <point x="357.3333333333333" y="353.333"/>
      <point x="357.3333333333333" y="304.0" type="curve" smooth="yes"/>
      <point x="357.3333333333333" y="255.11133333333333"/>
      <point x="325.9996666666667" y="220.0"/>
    </contour>
    <contour>
      <point x="432.0" y="74.66666666666667" type="line"/>
      <point x="518.6666666666666" y="161.66666666666666" type="line"/>
      <point x="425.6666666666667" y="250.33333333333334" type="line"/>
      <point x="340.0" y="162.66666666666666" type="line"/>
    </contour>
    <contour>
      <point x="427.6666666666667" y="362.0" type="line"/>
      <point x="520.0" y="457.6666666666667" type="line"/>
      <point x="432.6666666666667" y="544.3333333333334" type="line"/>
      <point x="341.0" y="448.3333333333333" type="line"/>
    </contour>
  </outline>
</glyph>
<glyph name="yen" format="2">
  <advance width="676.6666666666666"/>
  <unicode hex="00A5"/>
  <outline>
    <contour>
      <point x="276.0" y="0.0" type="line"/>
      <point x="420.6666666666667" y="0.0" type="line"/>
      <point x="420.6666666666667" y="357.0" type="line"/>
      <point x="405.6666666666667" y="289.0" type="line"/>
      <point x="676.6666666666666" y="700.0" type="line"/>
      <point x="516.0" y="700.0" type="line"/>
      <point x="321.0" y="393.0" type="line"/>
      <point x="382.6666666666667" y="390.0" type="line"/>
      <point x="166.66666666666666" y="700.0" type="line"/>
      <point x="0.0" y="700.0" type="line"/>
      <point x="283.0" y="300.0" type="line"/>
      <point x="276.0" y="349.0" type="line"/>
    </contour>
    <contour>
      <point x="143.66666666666666" y="109.33333333333333" type="line"/>
      <point x="569.0" y="108.0" type="line"/>
      <point x="569.0" y="185.33333333333334" type="line"/>
      <point x="143.66666666666666" y="186.66666666666666" type="line"/>
    </contour>
    <contour>
      <point x="143.66666666666666" y="239.33333333333334" type="line"/>
      <point x="569.0" y="238.0" type="line"/>
      <point x="569.0" y="315.3333333333333" type="line"/>
      <point x="143.66666666666666" y="316.6666666666667" type="line"/>
    </contour>
  </outline>
</glyph>
<glyph name="brokenbar" format="2">
  <advance width="288.3333333333333"/>
  <unicode hex="00A6"/>
  <outline>
    <contour>
      <point x="79.0" y="-202.0" type="line"/>
      <point x="209.33333333333331" y="-202.0" type="line"/>
      <point x="209.33333333333331" y="194.66666666666666" type="line"/>
      <point x="79.0" y="194.66666666666666" type="line"/>
    </contour>
    <contour>
      <point x="79.0" y="344.3333333333333" type="line"/>
      <point x="209.33333333333331" y="344.3333333333333" type="line"/>
      <point x="209.33333333333331" y="740.0" type="line"/>
      <point x="79.0" y="740.0" type="line"/>
    </contour>
  </outline>
</glyph>
<glyph name="section" format="2">
  <advance width="564.0"/>
  <unicode hex="00A7"/>
  <outline>
    <contour>
      <point x="337.6666666666667" y="130.33333333333334" type="line"/>
      <point x="452.6666666666667" y="136.66666666666666"/>
      <point x="525.0" y="188.66666666666666"/>
      <point x="529.0" y="281.3333333333333" type="curve" smooth="yes"/>
      <point x="531.6666666666666" y="356.3333333333333"/>
      <point x="483.3333333333333" y="408.0"/>
      <point x="384.3333333333333" y="441.6666666666667" type="curve" smooth="yes"/>
      <point x="296.0" y="471.3333333333333" type="line" smooth="yes"/>
      <point x="245.66666666666666" y="487.6666666666667"/>
      <point x="216.0" y="511.0"/>
      <point x="216.0" y="543.6666666666666" type="curve" smooth="yes"/>
      <point x="216.0" y="579.8886666666666"/>
      <point x="249.33333333333334" y="605.0"/>
      <point x="299.6666666666667" y="605.0" type="curve" smooth="yes"/>
      <point x="344.44466666666665" y="605.0"/>
      <point x="389.55533333333335" y="588.6666666666666"/>
      <point x="434.0" y="547.6666666666666" type="curve"/>
      <point x="506.0" y="627.6666666666666" type="line"/>
      <point x="459.77799999999996" y="682.6666666666666"/>
      <point x="389.77799999999996" y="714.0"/>
      <point x="302.6666666666667" y="714.0" type="curve" smooth="yes"/>
      <point x="155.66666666666666" y="714.0"/>
      <point x="86.0" y="637.778"/>
      <point x="86.0" y="542.3333333333334" type="curve" smooth="yes"/>
      <point x="86.0" y="429.6666666666667"/>
      <point x="177.33333333333334" y="383.3333333333333"/>
      <point x="235.66666666666666" y="360.0" type="curve" smooth="yes"/>
      <point x="339.0" y="327.0" type="line" smooth="yes"/>
      <point x="382.0" y="312.3333333333333"/>
      <point x="400.0" y="296.44466666666665"/>
      <point x="400.0" y="269.3333333333333" type="curve" smooth="yes"/>
      <point x="400.0" y="236.33333333333334"/>
      <point x="372.0" y="209.66666666666666"/>
      <point x="309.3333333333333" y="203.0" type="curve"/>
    </contour>
    <contour>
      <point x="272.0" y="-138.66666666666666" type="curve" smooth="yes"/>
      <point x="421.6666666666667" y="-138.66666666666666"/>
      <point x="490.6666666666667" y="-63.333333333333336"/>
      <point x="490.6666666666667" y="36.666666666666664" type="curve" smooth="yes"/>
      <point x="490.6666666666667" y="131.0"/>
      <point x="418.0" y="176.0"/>
      <point x="326.3333333333333" y="208.66666666666666" type="curve" smooth="yes"/>
      <point x="245.66666666666666" y="234.33333333333334" type="line" smooth="yes"/>
      <point x="196.0" y="250.33333333333334"/>
      <point x="174.66666666666666" y="270.6666666666667"/>
      <point x="174.66666666666666" y="298.6666666666667" type="curve" smooth="yes"/>
      <point x="174.66666666666666" y="333.0"/>
      <point x="201.33333333333334" y="357.6666666666667"/>
      <point x="247.33333333333334" y="363.6666666666667" type="curve"/>
      <point x="220.33333333333334" y="441.6666666666667" type="line"/>
      <point x="106.0" y="438.0"/>
      <point x="39.666666666666664" y="371.3333333333333"/>
      <point x="39.666666666666664" y="288.0" type="curve" smooth="yes"/>
      <point x="39.666666666666664" y="213.0"/>
      <point x="85.33333333333333" y="161.33333333333334"/>
      <point x="178.33333333333334" y="129.0" type="curve" smooth="yes"/>
      <point x="277.6666666666667" y="96.0" type="line" smooth="yes"/>
      <point x="323.3333333333333" y="79.66666666666667"/>
      <point x="360.6666666666667" y="59.666666666666664"/>
      <point x="360.6666666666667" y="28.0" type="curve" smooth="yes"/>
      <point x="360.6666666666667" y="-11.0"/>
      <point x="328.6666666666667" y="-31.666666666666668"/>
      <point x="271.0" y="-31.666666666666668" type="curve" smooth="yes"/>
      <point x="223.33333333333334" y="-31.666666666666668"/>
      <point x="164.0" y="-7.333333333333334"/>
      <point x="110.66666666666667" y="41.0" type="curve"/>
      <point x="43.333333333333336" y="-47.666666666666664" type="line"/>
      <point x="94.66666666666667" y="-100.66666666666667"/>
      <point x="183.33333333333334" y="-138.66666666666666"/>
    </contour>
  </outline>
</glyph>
<glyph name="copyright" format="2">
  <advance width="788.6666666666666"/>
  <unicode hex="00A9"/>
  <outline>
    <contour>
      <point x="394.0" y="-13.666666666666666" type="curve" smooth="yes"/>
      <point x="595.333" y="-13.666666666666666"/>
      <point x="757.6666666666666" y="147.333"/>
      <point x="757.6666666666666" y="350.0" type="curve" smooth="yes"/>
      <point x="757.6666666666666" y="552.667"/>
      <point x="595.333" y="713.6666666666666"/>
      <point x="394.0" y="713.6666666666666" type="curve" smooth="yes"/>
      <point x="191.333" y="713.6666666666666"/>
      <point x="30.333333333333336" y="552.667"/>
      <point x="30.333333333333336" y="350.0" type="curve" smooth="yes"/>
      <point x="30.333333333333336" y="147.333"/>
      <point x="191.333" y="-13.666666666666666"/>
    </contour>
    <contour>
      <point x="410.6666666666667" y="142.66666666666666" type="curve" smooth="yes"/>
      <point x="458.667" y="142.66666666666666"/>
      <point x="506.0" y="157.44433333333333"/>
      <point x="547.3333333333334" y="186.33333333333334" type="curve"/>
      <point x="502.6666666666667" y="280.0" type="line"/>
      <point x="472.889" y="257.33366666666666"/>
      <point x="443.889" y="247.33333333333334"/>
      <point x="417.6666666666667" y="247.33333333333334" type="curve" smooth="yes"/>
      <point x="357.667" y="247.33333333333334"/>
      <point x="313.3333333333333" y="289.66633333333334"/>
      <point x="313.3333333333333" y="349.6666666666667" type="curve" smooth="yes"/>
      <point x="313.3333333333333" y="406.55566666666664"/>
      <point x="357.667" y="451.0"/>
      <point x="417.6666666666667" y="451.0" type="curve" smooth="yes"/>
      <point x="441.2223333333333" y="451.0"/>
      <point x="465.9996666666667" y="441.6666666666667"/>
      <point x="499.3333333333333" y="417.6666666666667" type="curve"/>
      <point x="543.3333333333334" y="510.0" type="line"/>
      <point x="502.44433333333336" y="540.6663333333333"/>
      <point x="457.333" y="557.0"/>
      <point x="410.6666666666667" y="557.0" type="curve" smooth="yes"/>
      <point x="291.55566666666664" y="557.0"/>
      <point x="197.66666666666666" y="464.33366666666666"/>
      <point x="197.66666666666666" y="349.6666666666667" type="curve" smooth="yes"/>
      <point x="197.66666666666666" y="230.55566666666667"/>
      <point x="291.55566666666664" y="142.66666666666666"/>
    </contour>
    <contour>
      <point x="394.0" y="60.333333333333336" type="curve" smooth="yes"/>
      <point x="232.667" y="60.333333333333336"/>
      <point x="104.33333333333333" y="189.03833333333333"/>
      <point x="104.33333333333333" y="350.0" type="curve" smooth="yes"/>
      <point x="104.33333333333333" y="512.2223333333333"/>
      <point x="233.11133333333333" y="639.6666666666666"/>
      <point x="394.0" y="639.6666666666666" type="curve" smooth="yes"/>
      <point x="554.8886666666666" y="639.6666666666666"/>
      <point x="683.6666666666666" y="512.2223333333333"/>
      <point x="683.6666666666666" y="350.0" type="curve" smooth="yes"/>
      <point x="683.6666666666666" y="189.11133333333333"/>
      <point x="554.8886666666666" y="60.333333333333336"/>
    </contour>
  </outline>
</glyph>
<glyph name="ordfeminine" format="2">
  <advance width="380.0"/>
  <unicode hex="00AA"/>
  <outline>
    <contour>
      <point x="141.0" y="390.6666666666667" type="curve" smooth="yes"/>
      <point x="210.333" y="390.6666666666667"/>
      <point x="258.6666666666667" y="449.55566666666664"/>
      <point x="258.6666666666667" y="508.6666666666667" type="curve"/>
      <point x="240.33333333333334" y="474.0" type="line"/>
      <point x="240.33333333333334" y="401.0" type="line"/>
      <point x="346.6666666666667" y="401.0" type="line"/>
      <point x="346.6666666666667" y="715.0" type="line"/>
      <point x="240.33333333333334" y="715.0" type="line"/>
      <point x="240.33333333333334" y="648.0" type="line"/>
      <point x="258.6666666666667" y="595.3333333333334" type="line"/>
      <point x="258.6666666666667" y="676.2223333333334"/>
      <point x="223.222" y="721.3333333333334"/>
      <point x="153.0" y="721.3333333333334" type="curve" smooth="yes"/>
      <point x="72.55533333333334" y="721.3333333333334"/>
      <point x="16.666666666666668" y="654.0"/>
      <point x="16.666666666666668" y="562.0" type="curve" smooth="yes"/>
      <point x="16.666666666666668" y="459.333"/>
      <point x="64.55533333333334" y="390.6666666666667"/>
    </contour>
    <contour>
      <point x="180.0" y="471.3333333333333" type="curve" smooth="yes"/>
      <point x="143.55566666666667" y="471.3333333333333"/>
      <point x="122.33333333333333" y="505.889"/>
      <point x="122.33333333333333" y="561.0" type="curve" smooth="yes"/>
      <point x="122.33333333333333" y="605.0003333333334"/>
      <point x="147.44433333333333" y="640.6666666666666"/>
      <point x="179.0" y="640.6666666666666" type="curve" smooth="yes"/>
      <point x="219.889" y="640.6666666666666"/>
      <point x="244.33333333333334" y="608.4443333333334"/>
      <point x="244.33333333333334" y="556.0" type="curve" smooth="yes"/>
      <point x="244.33333333333334" y="504.88866666666667"/>
      <point x="218.22233333333332" y="471.3333333333333"/>
    </contour>
  </outline>
</glyph>
<glyph name="logicalnot" format="2">
  <advance width="670.0"/>
  <unicode hex="00AC"/>
  <outline>
    <contour>
      <point x="493.3333333333333" y="110.33333333333333" type="line"/>
      <point x="625.0" y="110.33333333333333" type="line"/>
      <point x="625.0" y="410.6666666666667" type="line"/>
      <point x="45.0" y="410.6666666666667" type="line"/>
      <point x="45.0" y="289.3333333333333" type="line"/>
      <point x="539.0" y="289.3333333333333" type="line"/>
      <point x="493.3333333333333" y="319.0" type="line"/>
    </contour>
  </outline>
</glyph>
<glyph name="registered" format="2">
  <advance width="507.0"/>
  <unicode hex="00AE"/>
  <outline>
    <contour>
      <point x="259.3333333333333" y="245.66666666666666" type="curve" smooth="yes"/>
      <point x="391.33366666666666" y="245.66666666666666"/>
      <point x="498.3333333333333" y="351.11133333333333"/>
      <point x="498.3333333333333" y="484.0" type="curve" smooth="yes"/>
      <point x="498.3333333333333" y="615.5556666666666"/>
      <point x="389.9996666666667" y="722.3333333333334"/>
      <point x="259.3333333333333" y="722.3333333333334" type="curve" smooth="yes"/>
      <point x="125.111" y="722.3333333333334"/>
      <point x="16.0" y="616.8886666666666"/>
      <point x="16.0" y="484.0" type="curve" smooth="yes"/>
      <point x="16.0" y="351.11133333333333"/>
      <point x="123.77766666666666" y="245.66666666666666"/>
    </contour>
    <contour>
      <point x="259.3333333333333" y="309.0" type="curve" smooth="yes"/>
      <point x="159.27433333333335" y="309.0"/>
      <point x="78.66666666666667" y="385.7776666666667"/>
      <point x="78.66666666666667" y="484.0" type="curve" smooth="yes"/>
      <point x="78.66666666666667" y="581.8616666666667"/>
      <point x="159.33366666666666" y="659.6666666666666"/>
      <point x="259.3333333333333" y="659.6666666666666" type="curve" smooth="yes"/>
      <point x="356.2223333333333" y="659.6666666666666"/>
      <point x="435.0" y="581.8616666666667"/>
      <point x="435.0" y="484.0" type="curve" smooth="yes"/>
      <point x="435.0" y="386.22200000000004"/>
      <point x="356.2703333333333" y="309.0"/>
    </contour>
    <contour>
      <point x="292.6666666666667" y="367.0" type="line"/>
      <point x="367.6666666666667" y="367.0" type="line"/>
      <point x="317.3333333333333" y="476.0" type="line"/>
      <point x="255.66666666666666" y="460.3333333333333" type="line"/>
    </contour>
    <contour>
      <point x="164.33333333333334" y="367.0" type="line"/>
      <point x="234.66666666666666" y="367.0" type="line"/>
      <point x="234.66666666666666" y="466.6666666666667" type="line"/>
      <point x="219.0" y="456.0" type="line"/>
      <point x="281.0" y="456.0" type="line" smooth="yes"/>
      <point x="325.88866666666667" y="456.0"/>
      <point x="361.6666666666667" y="487.22200000000004"/>
      <point x="361.6666666666667" y="531.6666666666666" type="curve" smooth="yes"/>
      <point x="361.6666666666667" y="575.667"/>
      <point x="329.0" y="606.0"/>
      <point x="281.0" y="606.0" type="curve" smooth="yes"/>
      <point x="164.33333333333334" y="606.0" type="line"/>
    </contour>
    <contour>
      <point x="234.66666666666666" y="495.0" type="line"/>
      <point x="234.66666666666666" y="557.3333333333334" type="line"/>
      <point x="218.33333333333334" y="549.3333333333334" type="line"/>
      <point x="263.0" y="549.3333333333334" type="line" smooth="yes"/>
      <point x="282.55566666666664" y="549.3333333333334"/>
      <point x="293.3333333333333" y="540.7776666666666"/>
      <point x="293.3333333333333" y="525.6666666666666" type="curve" smooth="yes"/>
      <point x="293.3333333333333" y="511.44433333333336"/>
      <point x="279.667" y="502.0"/>
      <point x="261.0" y="502.0" type="curve" smooth="yes"/>
      <point x="220.33333333333334" y="502.0" type="line"/>
    </contour>
  </outline>
</glyph>
<glyph name="degree" format="2">
  <advance width="532.0"/>
  <unicode hex="00B0"/>
  <outline>
    <contour>
      <point x="266.0" y="395.6666666666667" type="curve" smooth="yes"/>
      <point x="357.55566666666664" y="395.6666666666667"/>
      <point x="428.6666666666667" y="465.469"/>
      <point x="428.6666666666667" y="554.0" type="curve" smooth="yes"/>
      <point x="428.6666666666667" y="642.5310000000001"/>
      <point x="359.333" y="712.3333333333334"/>
      <point x="266.0" y="712.3333333333334" type="curve" smooth="yes"/>
      <point x="172.667" y="712.3333333333334"/>
      <point x="103.33333333333333" y="642.8803333333333"/>
      <point x="103.33333333333333" y="553.0" type="curve" smooth="yes"/>
      <point x="103.33333333333333" y="465.81966666666665"/>
      <point x="174.44433333333333" y="395.6666666666667"/>
    </contour>
    <contour>
      <point x="266.0" y="479.3333333333333" type="curve" smooth="yes"/>
      <point x="227.485" y="479.3333333333333"/>
      <point x="197.0" y="512.111"/>
      <point x="197.0" y="553.0" type="curve" smooth="yes"/>
      <point x="197.0" y="594.7776666666666"/>
      <point x="225.99966666666666" y="627.6666666666666"/>
      <point x="266.0" y="627.6666666666666" type="curve" smooth="yes"/>
      <point x="304.66633333333334" y="627.6666666666666"/>
      <point x="335.0" y="594.889"/>
      <point x="335.0" y="554.0" type="curve" smooth="yes"/>
      <point x="335.0" y="513.111"/>
      <point x="304.51500000000004" y="479.3333333333333"/>
    </contour>
  </outline>
</glyph>
<glyph name="plusminus" format="2">
  <advance width="616.0"/>
  <unicode hex="00B1"/>
  <outline>
    <contour>
      <point x="60.0" y="301.0" type="line"/>
      <point x="555.0" y="301.0" type="line"/>
      <point x="555.0" y="414.3333333333333" type="line"/>
      <point x="60.0" y="414.3333333333333" type="line"/>
    </contour>
    <contour>
      <point x="61.0" y="-4.0" type="line"/>
      <point x="556.0" y="-4.0" type="line"/>
      <point x="556.0" y="110.66666666666666" type="line"/>
      <point x="61.0" y="110.66666666666666" type="line"/>
    </contour>
    <contour>
      <point x="242.66666666666666" y="166.66666666666666" type="line"/>
      <point x="373.6666666666667" y="166.66666666666666" type="line"/>
      <point x="373.6666666666667" y="558.3333333333334" type="line"/>
      <point x="242.66666666666666" y="558.3333333333334" type="line"/>
    </contour>
  </outline>
</glyph>
<glyph name="micro" format="2">
  <advance width="617.0"/>
  <unicode hex="00B5"/>
  <outline>
    <contour>
      <point x="76.66666666666667" y="-159.66666666666666" type="line"/>
      <point x="209.0" y="-159.66666666666666" type="line"/>
      <point x="205.66666666666666" y="64.33333333333333" type="line"/>
      <point x="194.33333333333334" y="28.333333333333336" type="line"/>
      <point x="203.44433333333333" y="5.222000000000001"/>
      <point x="234.94466666666668" y="-10.944333333333333"/>
      <point x="266.3333333333333" y="-10.666666666666666" type="curve" smooth="yes"/>
      <point x="339.2223333333333" y="-8.0"/>
      <point x="394.6666666666667" y="22.555666666666667"/>
      <point x="428.0" y="94.33333333333333" type="curve"/>
      <point x="416.0" y="105.66666666666667" type="line"/>
      <point x="419.6666666666667" y="0.0" type="line"/>
      <point x="546.3333333333334" y="0.0" type="line"/>
      <point x="546.3333333333334" y="528.3333333333334" type="line"/>
      <point x="414.0" y="528.3333333333334" type="line"/>
      <point x="414.0" y="220.33333333333334" type="line" smooth="yes"/>
      <point x="414.0" y="155.88866666666667"/>
      <point x="365.3333333333333" y="104.66666666666666"/>
      <point x="301.3333333333333" y="104.66666666666666" type="curve" smooth="yes"/>
      <point x="240.88866666666667" y="104.66666666666666"/>
      <point x="209.0" y="144.222"/>
      <point x="209.0" y="222.0" type="curve" smooth="yes"/>
      <point x="209.0" y="528.3333333333334" type="line"/>
      <point x="76.66666666666667" y="528.3333333333334" type="line"/>
    </contour>
  </outline>
</glyph>
<glyph name="paragraph" format="2">
  <advance width="741.6666666666666"/>
  <unicode hex="00B6"/>
  <outline>
    <contour>
      <point x="246.66666666666666" y="0.0" type="line"/>
      <point x="388.0" y="0.0" type="line"/>
      <point x="388.0" y="652.0" type="line"/>
      <point x="324.0" y="596.0" type="line"/>
      <point x="544.3333333333334" y="596.0" type="line"/>
      <point x="508.3333333333333" y="660.0" type="line"/>
      <point x="508.3333333333333" y="0.0" type="line"/>
      <point x="649.6666666666666" y="0.0" type="line"/>
      <point x="649.6666666666666" y="700.0" type="line"/>
      <point x="270.3333333333333" y="700.0" type="line" smooth="yes"/>
      <point x="134.33333333333334" y="700.0"/>
      <point x="45.333333333333336" y="614.5553333333334"/>
      <point x="45.333333333333336" y="484.3333333333333" type="curve" smooth="yes"/>
      <point x="45.333333333333336" y="363.44433333333336"/>
      <point x="125.33333333333333" y="275.6666666666667"/>
      <point x="233.33333333333334" y="275.6666666666667" type="curve" smooth="yes"/>
      <point x="284.0" y="275.6666666666667" type="line"/>
      <point x="246.66666666666666" y="314.0" type="line"/>
    </contour>
  </outline>
</glyph>
<glyph name="ordmasculine" format="2">
  <advance width="380.6666666666667"/>
  <unicode hex="00BA"/>
  <outline>
    <contour>
      <point x="189.33333333333334" y="392.3333333333333" type="curve" smooth="yes"/>
      <point x="284.0003333333333" y="392.3333333333333"/>
      <point x="354.0" y="460.667"/>
      <point x="354.0" y="551.3333333333334" type="curve" smooth="yes"/>
      <point x="354.0" y="642.4446666666666"/>
      <point x="282.22200000000004" y="713.6666666666666"/>
      <point x="189.33333333333334" y="713.6666666666666" type="curve" smooth="yes"/>
      <point x="96.00033333333333" y="713.6666666666666"/>
      <point x="26.666666666666664" y="643.7776666666666"/>
      <point x="26.666666666666664" y="551.3333333333334" type="curve" smooth="yes"/>
      <point x="26.666666666666664" y="459.333"/>
      <point x="96.00033333333333" y="392.3333333333333"/>
    </contour>
    <contour>
      <point x="189.0" y="471.3333333333333" type="curve" smooth="yes"/>
      <point x="153.0" y="471.3333333333333"/>
      <point x="128.66666666666666" y="503.88866666666667"/>
      <point x="128.66666666666666" y="552.3333333333334" type="curve" smooth="yes"/>
      <point x="128.66666666666666" y="599.8886666666666"/>
      <point x="153.00033333333334" y="634.0"/>
      <point x="189.0" y="634.0" type="curve" smooth="yes"/>
      <point x="226.333" y="634.0"/>
      <point x="250.0" y="601.6663333333333"/>
      <point x="250.0" y="552.3333333333334" type="curve" smooth="yes"/>
      <point x="250.0" y="504.7776666666667"/>
      <point x="225.88866666666667" y="471.3333333333333"/>
    </contour>
  </outline>
</glyph>
<glyph name="AE" format="2">
  <advance width="1030.6666666666667"/>
  <unicode hex="00C6"/>
  <anchor x="515.6666666666666" y="0.0" name="bottom"/>
  <anchor x="688.3333333333334" y="700.0" name="top"/>
  <outline>
    <contour>
      <point x="-3.333333333333332" y="0.0" type="line"/>
      <point x="149.66666666666666" y="0.0" type="line"/>
      <point x="525.6666666666666" y="550.0" type="line"/>
      <point x="500.6666666666667" y="558.0" type="line"/>
      <point x="500.6666666666667" y="263.0" type="line"/>
      <point x="313.6666666666667" y="263.0" type="line"/>
      <point x="234.33333333333334" y="147.0" type="line"/>
      <point x="500.6666666666667" y="147.0" type="line"/>
      <point x="500.6666666666667" y="0.0" type="line"/>
      <point x="965.0" y="0.0" type="line"/>
      <point x="965.0" y="120.33333333333333" type="line"/>
      <point x="637.0" y="120.33333333333333" type="line"/>
      <point x="637.0" y="296.0" type="line"/>
      <point x="920.0" y="296.0" type="line"/>
      <point x="920.0" y="413.3333333333333" type="line"/>
      <point x="637.0" y="413.3333333333333" type="line"/>
      <point x="637.0" y="579.6666666666666" type="line"/>
      <point x="965.0" y="579.6666666666666" type="line"/>
      <point x="965.0" y="700.0" type="line"/>
      <point x="484.6666666666667" y="700.0" type="line"/>
    </contour>
  </outline>
</glyph>
<glyph name="Eth" format="2">
  <advance width="762.0"/>
  <unicode hex="00D0"/>
  <anchor x="381.0" y="0.0" name="bottom"/>
  <anchor x="195.0" y="350.0" name="center"/>
  <anchor x="381.0" y="700.0" name="top"/>
  <outline>
    <contour>
      <point x="41.0" y="296.6666666666667" type="line"/>
      <point x="342.3333333333333" y="296.6666666666667" type="line"/>
      <point x="342.3333333333333" y="403.3333333333333" type="line"/>
      <point x="41.0" y="403.3333333333333" type="line"/>
    </contour>
    <component base="D"/>
  </outline>
</glyph>
<glyph name="multiply" format="2">
  <advance width="512.0"/>
  <unicode hex="00D7"/>
  <outline>
    <contour>
      <point x="392.6666666666667" y="63.333333333333336" type="line"/>
      <point x="475.3333333333333" y="143.0" type="line"/>
      <point x="119.33333333333333" y="498.3333333333333" type="line"/>
      <point x="36.666666666666664" y="418.3333333333333" type="line"/>
    </contour>
    <contour>
      <point x="118.66666666666666" y="58.66666666666667" type="line"/>
      <point x="474.0" y="415.6666666666667" type="line"/>
      <point x="394.0" y="498.3333333333333" type="line"/>
      <point x="39.333333333333336" y="142.33333333333334" type="line"/>
    </contour>
  </outline>
</glyph>
<glyph name="Oslash" format="2">
  <advance width="791.3333333333334"/>
  <unicode hex="00D8"/>
  <anchor x="395.6666666666667" y="0.0" name="bottom"/>
  <anchor x="395.6666666666667" y="700.0" name="top"/>
  <anchor x="399.0" y="350.0" name="center"/>
  <anchor x="625.0" y="3.333333333333333" name="ogonek"/>
  <anchor x="19.333333333333332" y="700.0" name="topleft"/>
  <anchor x="778.6666666666666" y="700.0" name="topright"/>
  <outline>
    <contour>
      <point x="132.33333333333334" y="-33.0" type="line"/>
      <point x="726.3333333333334" y="694.0" type="line"/>
      <point x="658.3333333333334" y="741.0" type="line"/>
      <point x="69.33333333333333" y="20.0" type="line"/>
    </contour>
    <component base="O" xOffset="-0.6666666666666667"/>
  </outline>
</glyph>
<glyph name="Thorn" format="2">
  <advance width="650.3333333333334"/>
  <unicode hex="00DE"/>
  <anchor x="325.3333333333333" y="0.0" name="bottom"/>
  <anchor x="325.3333333333333" y="700.0" name="top"/>
  <outline>
    <contour>
      <point x="92.0" y="0.0" type="line"/>
      <point x="236.0" y="0.0" type="line"/>
      <point x="236.0" y="130.0" type="line"/>
      <point x="387.0" y="130.0" type="line" smooth="yes"/>
      <point x="510.55533333333335" y="130.0"/>
      <point x="607.0" y="229.77766666666668"/>
      <point x="607.0" y="358.6666666666667" type="curve" smooth="yes"/>
      <point x="607.0" y="485.3333333333333"/>
      <point x="510.55533333333335" y="582.0"/>
      <point x="387.0" y="582.0" type="curve" smooth="yes"/>
      <point x="236.0" y="582.0" type="line"/>
      <point x="236.0" y="700.0" type="line"/>
      <point x="92.0" y="700.0" type="line"/>
    </contour>
    <contour>
      <point x="236.0" y="260.6666666666667" type="line"/>
      <point x="236.0" y="451.3333333333333" type="line"/>
      <point x="372.3333333333333" y="451.3333333333333" type="line" smooth="yes"/>
      <point x="420.7776666666667" y="451.3333333333333"/>
      <point x="459.6666666666667" y="411.9996666666667"/>
      <point x="459.6666666666667" y="357.3333333333333" type="curve" smooth="yes"/>
      <point x="459.6666666666667" y="302.667"/>
      <point x="420.7776666666667" y="260.6666666666667"/>
      <point x="372.3333333333333" y="260.6666666666667" type="curve" smooth="yes"/>
    </contour>
  </outline>
</glyph>
<glyph name="germandbls" format="2">
  <advance width="666.0"/>
  <unicode hex="00DF"/>
  <anchor x="333.0" y="0.0" name="bottom"/>
  <anchor x="333.0" y="528.3333333333334" name="top"/>
  <outline>
    <contour>
      <point x="424.6666666666667" y="-10.0" type="curve" smooth="yes"/>
      <point x="546.4443333333334" y="-10.0"/>
      <point x="634.6666666666666" y="81.667"/>
      <point x="634.6666666666666" y="203.0" type="curve" smooth="yes"/>
      <point x="634.6666666666666" y="319.0003333333333"/>
      <point x="561.0" y="405.11133333333333"/>
      <point x="453.0" y="439.3333333333333" type="curve"/>
      <point x="455.0" y="417.0" type="line"/>
      <point x="521.667" y="446.3333333333333"/>
      <point x="563.6666666666666" y="508.5553333333333"/>
      <point x="563.6666666666666" y="569.0" type="curve" smooth="yes"/>
      <point x="563.6666666666666" y="670.3336666666667"/>
      <point x="475.7776666666667" y="734.0"/>
      <point x="351.3333333333333" y="734.0" type="curve" smooth="yes"/>
      <point x="204.22233333333332" y="734.0"/>
      <point x="114.66666666666667" y="639.0"/>
      <point x="114.66666666666667" y="499.0" type="curve" smooth="yes"/>
      <point x="114.66666666666667" y="0.0" type="line"/>
      <point x="247.0" y="0.0" type="line"/>
      <point x="247.0" y="499.6666666666667" type="line" smooth="yes"/>
      <point x="247.0" y="567.6663333333333"/>
      <point x="283.3333333333333" y="612.3333333333334"/>
      <point x="346.0" y="612.3333333333334" type="curve" smooth="yes"/>
      <point x="402.0003333333333" y="612.3333333333334"/>
      <point x="436.3333333333333" y="586.5553333333334"/>
      <point x="436.3333333333333" y="541.6666666666666" type="curve" smooth="yes"/>
      <point x="436.3333333333333" y="500.3333333333333"/>
      <point x="407.7776666666667" y="469.111"/>
      <point x="343.3333333333333" y="440.6666666666667" type="curve"/>
      <point x="343.3333333333333" y="364.0" type="line"/>
      <point x="442.88866666666667" y="334.88866666666667"/>
      <point x="504.3333333333333" y="283.6666666666667"/>
      <point x="504.3333333333333" y="196.33333333333334" type="curve" smooth="yes"/>
      <point x="504.3333333333333" y="138.99966666666666"/>
      <point x="472.44433333333336" y="101.0"/>
      <point x="422.6666666666667" y="101.0" type="curve" smooth="yes"/>
      <point x="396.889" y="101.0"/>
      <point x="374.3333333333333" y="109.77766666666666"/>
      <point x="345.0" y="134.66666666666666" type="curve"/>
      <point x="286.6666666666667" y="47.66666666666667" type="line"/>
      <point x="320.889" y="9.000333333333334"/>
      <point x="365.55566666666664" y="-10.0"/>
    </contour>
    <contour>
      <point x="34.333333333333336" y="381.0" type="line"/>
      <point x="178.66666666666666" y="381.0" type="line"/>
      <point x="178.66666666666666" y="499.6666666666667" type="line"/>
      <point x="34.333333333333336" y="499.6666666666667" type="line"/>
    </contour>
  </outline>
</glyph>
<glyph name="ae" format="2">
  <advance width="899.6666666666666"/>
  <unicode hex="00E6"/>
  <anchor x="450.3333333333333" y="0.0" name="bottom"/>
  <anchor x="454.0" y="528.3333333333334" name="top"/>
  <outline>
    <contour>
      <point x="215.0" y="-10.0" type="curve" smooth="yes"/>
      <point x="300.333" y="-10.0"/>
      <point x="384.66633333333334" y="33.22233333333333"/>
      <point x="428.6666666666667" y="100.33333333333333" type="curve"/>
      <point x="379.6666666666667" y="176.0" type="line"/>
      <point x="354.7776666666667" y="127.99966666666667"/>
      <point x="299.889" y="94.66666666666666"/>
      <point x="239.0" y="94.66666666666666" type="curve" smooth="yes"/>
      <point x="197.22233333333332" y="94.66666666666666"/>
      <point x="167.33333333333331" y="120.111"/>
      <point x="167.33333333333331" y="157.0" type="curve" smooth="yes"/>
      <point x="167.33333333333331" y="203.22233333333332"/>
      <point x="203.778" y="230.33333333333334"/>
      <point x="270.0" y="230.33333333333334" type="curve" smooth="yes"/>
      <point x="864.0" y="230.33333333333334" type="line"/>
      <point x="865.0" y="276.6666666666667" type="line" smooth="yes"/>
      <point x="866.0" y="428.11133333333333"/>
      <point x="763.2223333333334" y="538.4446666666666"/>
      <point x="621.0" y="539.3333333333334" type="curve" smooth="yes"/>
      <point x="475.2223333333333" y="539.3333333333334"/>
      <point x="365.3333333333333" y="422.889"/>
      <point x="365.3333333333333" y="260.6666666666667" type="curve" smooth="yes"/>
      <point x="365.3333333333333" y="101.111"/>
      <point x="475.889" y="-10.0"/>
      <point x="645.6666666666666" y="-10.0" type="curve" smooth="yes"/>
      <point x="718.5553333333334" y="-10.0"/>
      <point x="796.4443333333334" y="17.444333333333333"/>
      <point x="853.3333333333334" y="67.66666666666667" type="curve"/>
      <point x="792.3333333333334" y="161.33333333333334" type="line"/>
      <point x="746.111" y="123.11133333333333"/>
      <point x="709.3333333333334" y="110.66666666666666"/>
      <point x="660.0" y="110.66666666666666" type="curve" smooth="yes"/>
      <point x="556.4443333333334" y="110.66666666666666"/>
      <point x="485.6666666666667" y="176.44466666666668"/>
      <point x="485.6666666666667" y="270.6666666666667" type="curve" smooth="yes"/>
      <point x="485.6666666666667" y="368.44433333333336"/>
      <point x="533.889" y="421.6666666666667"/>
      <point x="622.3333333333334" y="421.6666666666667" type="curve" smooth="yes"/>
      <point x="682.3333333333334" y="421.6666666666667"/>
      <point x="730.222" y="380.111"/>
      <point x="734.6666666666666" y="323.6666666666667" type="curve"/>
      <point x="734.6666666666666" y="301.6666666666667" type="line"/>
      <point x="746.3333333333334" y="315.6666666666667" type="line"/>
      <point x="273.0" y="315.6666666666667" type="line" smooth="yes"/>
      <point x="116.99966666666667" y="316.55533333333335"/>
      <point x="35.333333333333336" y="258.7776666666667"/>
      <point x="35.333333333333336" y="149.0" type="curve" smooth="yes"/>
      <point x="35.333333333333336" y="53.0"/>
      <point x="112.778" y="-10.0"/>
    </contour>
    <contour>
      <point x="363.6666666666667" y="252.0" type="line"/>
      <point x="484.3333333333333" y="256.0" type="line"/>
      <point x="484.3333333333333" y="376.0" type="line" smooth="yes"/>
      <point x="484.3333333333333" y="484.44466666666665"/>
      <point x="404.55566666666664" y="539.3333333333334"/>
      <point x="278.3333333333333" y="539.3333333333334" type="curve" smooth="yes"/>
      <point x="184.99966666666666" y="539.3333333333334"/>
      <point x="104.99966666666667" y="500.22200000000004"/>
      <point x="51.666666666666664" y="436.6666666666667" type="curve"/>
      <point x="134.66666666666666" y="354.3333333333333" type="line"/>
      <point x="169.33366666666666" y="400.9996666666667"/>
      <point x="209.222" y="421.3333333333333"/>
      <point x="264.3333333333333" y="421.3333333333333" type="curve" smooth="yes"/>
      <point x="321.667" y="421.3333333333333"/>
      <point x="363.6666666666667" y="392.9996666666667"/>
      <point x="363.6666666666667" y="342.3333333333333" type="curve" smooth="yes"/>
    </contour>
  </outline>
</glyph>
<glyph name="eth" format="2">
  <advance width="587.3333333333334"/>
  <unicode hex="00F0"/>
  <outline>
    <contour>
      <point x="293.0" y="-7.0" type="curve" smooth="yes"/>
      <point x="445.40433333333334" y="-7.0"/>
      <point x="550.6666666666666" y="111.91166666666666"/>
      <point x="550.6666666666666" y="285.0" type="curve" smooth="yes"/>
      <point x="550.6666666666666" y="528.563"/>
      <point x="419.59833333333336" y="693.572"/>
      <point x="214.33333333333334" y="743.3333333333334" type="curve"/>
      <point x="169.0" y="652.0" type="line"/>
      <point x="328.55566666666664" y="604.0"/>
      <point x="390.44433333333336" y="528.3336666666667"/>
      <point x="398.0" y="379.0" type="curve"/>
      <point x="474.6666666666667" y="348.0" type="line"/>
      <point x="454.2223333333333" y="454.667"/>
      <point x="381.6666666666667" y="521.3333333333334"/>
      <point x="281.6666666666667" y="521.3333333333334" type="curve" smooth="yes"/>
      <point x="152.33333333333334" y="521.3333333333334"/>
      <point x="36.666666666666664" y="400.889"/>
      <point x="36.666666666666664" y="258.6666666666667" type="curve" smooth="yes"/>
      <point x="36.666666666666664" y="109.77766666666666"/>
      <point x="146.29033333333334" y="-7.0"/>
    </contour>
    <contour>
      <point x="293.6666666666667" y="112.33333333333333" type="curve" smooth="yes"/>
      <point x="220.77766666666668" y="112.33333333333333"/>
      <point x="163.66666666666666" y="177.55566666666667"/>
      <point x="163.66666666666666" y="262.0" type="curve" smooth="yes"/>
      <point x="163.66666666666666" y="345.111"/>
      <point x="220.77766666666668" y="408.6666666666667"/>
      <point x="293.6666666666667" y="408.6666666666667" type="curve" smooth="yes"/>
      <point x="366.55566666666664" y="408.6666666666667"/>
      <point x="423.6666666666667" y="343.77799999999996"/>
      <point x="423.6666666666667" y="262.0" type="curve" smooth="yes"/>
      <point x="423.6666666666667" y="177.55566666666667"/>
      <point x="366.55566666666664" y="112.33333333333333"/>
    </contour>
    <contour>
      <point x="152.66666666666666" y="521.6666666666666" type="line"/>
      <point x="358.0" y="570.0" type="line"/>
      <point x="400.3333333333333" y="591.0" type="line"/>
      <point x="513.3333333333334" y="617.0" type="line"/>
      <point x="495.3333333333333" y="683.0" type="line"/>
      <point x="349.3333333333333" y="650.0" type="line"/>
      <point x="293.0" y="626.0" type="line"/>
      <point x="139.66666666666666" y="586.6666666666666" type="line"/>
    </contour>
  </outline>
</glyph>
<glyph name="divide" format="2">
  <advance width="597.0"/>
  <unicode hex="00F7"/>
  <outline>
    <contour>
      <point x="46.0" y="206.0" type="line"/>
      <point x="551.3333333333334" y="206.0" type="line"/>
      <point x="551.3333333333334" y="319.3333333333333" type="line"/>
      <point x="46.0" y="319.3333333333333" type="line"/>
    </contour>
    <contour>
      <point x="295.0" y="-7.333333333333332" type="curve" smooth="yes"/>
      <point x="341.39033333333333" y="-7.333333333333332"/>
      <point x="374.6666666666667" y="25.77766666666667"/>
      <point x="374.6666666666667" y="69.33333333333333" type="curve" smooth="yes"/>
      <point x="374.6666666666667" y="114.66666666666667"/>
      <point x="341.7973333333333" y="146.0"/>
      <point x="295.0" y="146.0" type="curve" smooth="yes"/>
      <point x="248.60966666666667" y="146.0"/>
      <point x="214.66666666666666" y="112.889"/>
      <point x="214.66666666666666" y="69.33333333333333" type="curve" smooth="yes"/>
      <point x="214.66666666666666" y="24.0"/>
      <point x="248.20266666666666" y="-7.333333333333332"/>
    </contour>
    <contour>
      <point x="295.0" y="377.3333333333333" type="curve" smooth="yes"/>
      <point x="340.50166666666667" y="377.3333333333333"/>
      <point x="374.6666666666667" y="410.66633333333334"/>
      <point x="374.6666666666667" y="453.3333333333333" type="curve" smooth="yes"/>
      <point x="374.6666666666667" y="498.6666666666667"/>
      <point x="341.7973333333333" y="530.6666666666666"/>
      <point x="295.0" y="530.6666666666666" type="curve" smooth="yes"/>
      <point x="248.60966666666667" y="530.6666666666666"/>
      <point x="214.66666666666666" y="496.889"/>
      <point x="214.66666666666666" y="453.3333333333333" type="curve" smooth="yes"/>
      <point x="214.66666666666666" y="408.88866666666667"/>
      <point x="248.20266666666666" y="377.3333333333333"/>
    </contour>
  </outline>
</glyph>
<glyph name="oslash" format="2">
  <advance width="630.0"/>
  <unicode hex="00F8"/>
  <anchor x="315.3333333333333" y="528.3333333333334" name="top"/>
  <anchor x="315.3333333333333" y="0.0" name="bottom"/>
  <anchor x="315.3333333333333" y="264.6666666666667" name="center"/>
  <anchor x="478.6666666666667" y="0.0" name="ogonek"/>
  <anchor x="610.0" y="528.3333333333334" name="topright"/>
  <outline>
    <contour>
      <point x="114.66666666666667" y="-35.0" type="line"/>
      <point x="574.0" y="504.6666666666667" type="line"/>
      <point x="507.0" y="553.6666666666666" type="line"/>
      <point x="48.666666666666664" y="13.0" type="line"/>
    </contour>
    <component base="o"/>
  </outline>
</glyph>
<glyph name="dcroat" format="2">
  <advance width="645.6666666666666"/>
  <unicode hex="0111"/>
  <anchor x="488.3333333333333" y="634.0" name="_center"/>
  <anchor x="323.0" y="0.0" name="bottom"/>
  <anchor x="488.3333333333333" y="634.0" name="center"/>
  <anchor x="323.0" y="740.0" name="top"/>
  <anchor x="612.3333333333334" y="740.0" name="topright"/>
  <outline>
    <contour>
      <point x="337.6666666666667" y="580.6666666666666" type="line"/>
      <point x="639.0" y="580.6666666666666" type="line"/>
      <point x="639.0" y="687.3333333333334" type="line"/>
      <point x="337.6666666666667" y="687.3333333333334" type="line"/>
    </contour>
    <component base="d"/>
  </outline>
</glyph>
<glyph name="eogonek" format="2">
  <advance width="586.0"/>
  <unicode hex="0119"/>
  <anchor x="293.0" y="528.3333333333334" name="top"/>
  <anchor x="321.0" y="0.0" name="bottom"/>
  <anchor x="508.3333333333333" y="3.333333333333333" name="ogonek"/>
  <outline>
    <contour>
      <point x="386.6666666666667" y="-203.0" type="curve" smooth="yes"/>
      <point x="446.0" y="-203.0"/>
      <point x="489.3333333333333" y="-168.0"/>
      <point x="509.3333333333333" y="-132.66666666666666" type="curve"/>
      <point x="445.3333333333333" y="-86.33333333333333" type="line"/>
      <point x="433.6666666666667" y="-102.33333333333333"/>
      <point x="424.0" y="-110.66666666666667"/>
      <point x="408.0" y="-110.66666666666667" type="curve" smooth="yes"/>
      <point x="389.0" y="-110.66666666666667"/>
      <point x="375.0" y="-96.33333333333333"/>
      <point x="375.0" y="-74.0" type="curve" smooth="yes"/>
      <point x="375.0" y="-34.333333333333336"/>
      <point x="416.3333333333333" y="-0.6666666666666667"/>
      <point x="495.0" y="43.0" type="curve"/>
      <point x="470.0" y="86.0" type="line"/>
      <point x="356.3333333333333" y="34.333333333333336"/>
      <point x="272.6666666666667" y="-13.666666666666666"/>
      <point x="272.6666666666667" y="-99.66666666666667" type="curve" smooth="yes"/>
      <point x="272.6666666666667" y="-156.33333333333334"/>
      <point x="315.0" y="-203.0"/>
    </contour>
    <component base="e"/>
  </outline>
</glyph>
<glyph name="Hbar" format="2">
  <advance width="835.6666666666666"/>
  <unicode hex="0126"/>
  <anchor x="419.0" y="0.0" name="bottom"/>
  <anchor x="419.0" y="350.0" name="center"/>
  <anchor x="419.0" y="700.0" name="top"/>
  <anchor x="52.66666666666667" y="700.0" name="topleft"/>
  <outline>
    <contour>
      <point x="43.66666666666667" y="474.6666666666667" type="line"/>
      <point x="138.66666666666666" y="474.6666666666667" type="line"/>
      <point x="199.0" y="484.6666666666667" type="line"/>
      <point x="615.0" y="484.6666666666667" type="line"/>
      <point x="671.6666666666666" y="474.6666666666667" type="line"/>
      <point x="793.3333333333334" y="474.6666666666667" type="line"/>
      <point x="793.3333333333334" y="598.6666666666666" type="line"/>
      <point x="667.0" y="598.6666666666666" type="line"/>
      <point x="603.0" y="588.6666666666666" type="line"/>
      <point x="209.0" y="588.6666666666666" type="line"/>
      <point x="145.33333333333334" y="598.6666666666666" type="line"/>
      <point x="43.66666666666667" y="598.6666666666666" type="line"/>
    </contour>
    <component base="H" xOffset="32.66666666666667"/>
  </outline>
</glyph>
<glyph name="hbar" format="2">
  <advance width="618.3333333333334"/>
  <unicode hex="0127"/>
  <anchor x="309.6666666666667" y="0.0" name="bottom"/>
  <anchor x="163.33333333333334" y="637.6666666666666" name="center"/>
  <anchor x="309.6666666666667" y="740.0" name="top"/>
  <outline>
    <contour>
      <point x="12.666666666666666" y="584.3333333333334" type="line"/>
      <point x="314.0" y="584.3333333333334" type="line"/>
      <point x="314.0" y="691.0" type="line"/>
      <point x="12.666666666666666" y="691.0" type="line"/>
    </contour>
    <component base="h"/>
  </outline>
</glyph>
<glyph name="idotless" format="2">
  <advance width="269.6666666666667"/>
  <unicode hex="0131"/>
  <anchor x="135.33333333333334" y="0.0" name="bottom"/>
  <anchor x="198.0" y="0.0" name="ogonek"/>
  <anchor x="135.33333333333334" y="528.3333333333334" name="top"/>
  <outline>
    <contour>
      <point x="68.0" y="0.0" type="line"/>
      <point x="204.33333333333334" y="0.0" type="line"/>
      <point x="204.33333333333334" y="528.3333333333334" type="line"/>
      <point x="68.0" y="528.3333333333334" type="line"/>
    </contour>
  </outline>
</glyph>
<glyph name="kgreenlandic" format="2">
  <advance width="597.6666666666666"/>
  <unicode hex="0138"/>
  <anchor x="298.3333333333333" y="0.0" name="bottom"/>
  <anchor x="298.3333333333333" y="528.3333333333334" name="top"/>
  <outline>
    <contour>
      <point x="196.33333333333331" y="142.66666666666666" type="line"/>
      <point x="578.0" y="528.3333333333334" type="line"/>
      <point x="409.3333333333333" y="528.3333333333334" type="line"/>
      <point x="159.66666666666666" y="252.66666666666666" type="line"/>
    </contour>
    <contour>
      <point x="71.33333333333333" y="0.0" type="line"/>
      <point x="203.66666666666666" y="0.0" type="line"/>
      <point x="203.66666666666666" y="528.3333333333334" type="line"/>
      <point x="71.33333333333333" y="528.3333333333334" type="line"/>
    </contour>
    <contour>
      <point x="417.3333333333333" y="0.0" type="line"/>
      <point x="576.6666666666666" y="-0.6666666666666667" type="line"/>
      <point x="326.0" y="330.3333333333333" type="line"/>
      <point x="232.66666666666666" y="265.0" type="line"/>
    </contour>
  </outline>
</glyph>
<glyph name="Lslash" format="2">
  <advance width="630.6666666666666"/>
  <unicode hex="0141"/>
  <anchor x="328.6666666666667" y="0.0" name="bottom"/>
  <anchor x="191.66666666666666" y="350.0" name="center"/>
  <anchor x="191.33333333333334" y="700.0" name="top"/>
  <anchor x="344.3333333333333" y="700.0" name="topright"/>
  <outline>
    <contour>
      <point x="52.0" y="245.33333333333334" type="line"/>
      <point x="383.6666666666667" y="388.3333333333333" type="line"/>
      <point x="341.6666666666667" y="494.0" type="line"/>
      <point x="12.0" y="347.6666666666667" type="line"/>
    </contour>
    <component base="L" xOffset="26.0"/>
  </outline>
</glyph>
<glyph name="lslash" format="2">
  <advance width="325.0"/>
  <unicode hex="0142"/>
  <anchor x="161.33333333333331" y="0.0" name="bottom"/>
  <anchor x="161.33333333333331" y="370.0" name="center"/>
  <anchor x="161.33333333333331" y="740.0" name="top"/>
  <anchor x="269.0" y="740.0" name="topright"/>
  <outline>
    <contour>
      <point x="41.33333333333333" y="269.3333333333333" type="line"/>
      <point x="327.0" y="396.3333333333333" type="line"/>
      <point x="282.3333333333333" y="500.0" type="line"/>
      <point x="-2.0" y="375.0" type="line"/>
    </contour>
    <component base="l" xOffset="20.0"/>
  </outline>
</glyph>
<glyph name="Eng" format="2">
  <advance width="801.0"/>
  <unicode hex="014A"/>
  <outline>
    <contour>
      <point x="500.6666666666667" y="-200.33333333333334" type="line"/>
      <point x="628.667" y="-200.33333333333334"/>
      <point x="709.0" y="-136.0"/>
      <point x="709.0" y="-16.0" type="curve" smooth="yes"/>
      <point x="709.0" y="700.0" type="line"/>
      <point x="567.6666666666666" y="700.0" type="line"/>
      <point x="567.6666666666666" y="503.3333333333333" type="line" smooth="yes"/>
      <point x="567.2223333333334" y="368.66633333333334"/>
      <point x="572.4446666666666" y="275.778"/>
      <point x="586.6666666666666" y="178.0" type="curve"/>
      <point x="602.0" y="186.0" type="line"/>
      <point x="221.0" y="700.0" type="line"/>
      <point x="92.0" y="700.0" type="line"/>
      <point x="92.0" y="0.0" type="line"/>
      <point x="233.33333333333334" y="0.0" type="line"/>
      <point x="233.33333333333334" y="271.8333333333333" type="line" smooth="yes"/>
      <point x="233.33333333333334" y="319.3333333333333"/>
      <point x="225.33333333333334" y="419.0"/>
      <point x="216.66666666666666" y="507.3333333333333" type="curve"/>
      <point x="204.33333333333334" y="496.0" type="line"/>
      <point x="579.0" y="-1.0" type="line"/>
      <point x="570.3333333333334" y="67.0" type="line"/>
      <point x="570.3333333333334" y="0.6666666666666667" type="line" smooth="yes"/>
      <point x="570.3333333333334" y="-63.33366666666667"/>
      <point x="515.9996666666666" y="-94.66666666666667"/>
      <point x="445.3333333333333" y="-94.66666666666667" type="curve"/>
    </contour>
  </outline>
</glyph>
<glyph name="eng" format="2">
  <advance width="618.3333333333334"/>
  <unicode hex="014B"/>
  <outline>
    <contour>
      <point x="348.0" y="-200.33333333333334" type="line"/>
      <point x="476.00033333333334" y="-200.33333333333334"/>
      <point x="553.0" y="-132.889"/>
      <point x="553.0" y="-16.0" type="curve" smooth="yes"/>
      <point x="553.0" y="323.3333333333333" type="line" smooth="yes"/>
      <point x="553.0" y="466.44433333333336"/>
      <point x="490.6666666666667" y="539.3333333333334"/>
      <point x="370.6666666666667" y="539.3333333333334" type="curve" smooth="yes"/>
      <point x="304.889" y="539.3333333333334"/>
      <point x="239.889" y="503.6666666666667"/>
      <point x="204.33333333333334" y="455.6666666666667" type="curve"/>
      <point x="202.66666666666666" y="528.3333333333334" type="line"/>
      <point x="71.33333333333333" y="528.3333333333334" type="line"/>
      <point x="71.33333333333333" y="0.0" type="line"/>
      <point x="207.66666666666666" y="0.0" type="line"/>
      <point x="207.66666666666666" y="318.0" type="line" smooth="yes"/>
      <point x="207.66666666666666" y="376.22200000000004"/>
      <point x="256.55533333333335" y="421.6666666666667"/>
      <point x="322.3333333333333" y="421.6666666666667" type="curve" smooth="yes"/>
      <point x="385.0003333333333" y="424.3333333333333"/>
      <point x="416.6666666666667" y="388.11133333333333"/>
      <point x="416.6666666666667" y="313.0" type="curve" smooth="yes"/>
      <point x="416.6666666666667" y="20.666666666666664" type="line" smooth="yes"/>
      <point x="414.889" y="-55.333"/>
      <point x="377.55566666666664" y="-94.66666666666667"/>
      <point x="296.6666666666667" y="-94.66666666666667" type="curve"/>
    </contour>
  </outline>
</glyph>
<glyph name="OE" format="2">
  <advance width="1057.0"/>
  <unicode hex="0152"/>
  <anchor x="529.0" y="0.0" name="bottom"/>
  <anchor x="529.0" y="700.0" name="top"/>
  <outline>
    <contour>
      <point x="375.0" y="0.0" type="curve" smooth="yes"/>
      <point x="991.3333333333334" y="0.0" type="line"/>
      <point x="991.3333333333334" y="127.66666666666666" type="line"/>
      <point x="658.3333333333334" y="127.66666666666666" type="line"/>
      <point x="658.3333333333334" y="297.0" type="line"/>
      <point x="936.3333333333334" y="297.0" type="line"/>
      <point x="936.3333333333334" y="421.0" type="line"/>
      <point x="658.3333333333334" y="421.0" type="line"/>
      <point x="658.3333333333334" y="572.3333333333334" type="line"/>
      <point x="991.3333333333334" y="572.3333333333334" type="line"/>
      <point x="991.3333333333334" y="700.0" type="line"/>
      <point x="395.0" y="700.0" type="line" smooth="yes"/>
      <point x="182.55533333333332" y="700.0"/>
      <point x="45.333333333333336" y="558.0"/>
      <point x="45.333333333333336" y="350.0" type="curve" smooth="yes"/>
      <point x="45.333333333333336" y="140.667"/>
      <point x="173.22233333333332" y="0.0"/>
    </contour>
    <contour>
      <point x="191.33333333333331" y="350.0" type="curve" smooth="yes"/>
      <point x="191.33333333333331" y="485.55566666666664"/>
      <point x="268.111" y="569.3333333333334"/>
      <point x="401.0" y="569.3333333333334" type="curve" smooth="yes"/>
      <point x="517.3333333333334" y="569.3333333333334" type="line"/>
      <point x="517.3333333333334" y="130.66666666666666" type="line"/>
      <point x="387.6666666666667" y="130.66666666666666" type="line" smooth="yes"/>
      <point x="262.7776666666667" y="130.66666666666666"/>
      <point x="191.33333333333331" y="213.11133333333333"/>
    </contour>
  </outline>
</glyph>
<glyph name="oe" format="2">
  <advance width="1008.6666666666666"/>
  <unicode hex="0153"/>
  <anchor x="515.6666666666666" y="0.0" name="bottom"/>
  <anchor x="516.6666666666666" y="526.6666666666666" name="top"/>
  <outline>
    <contour>
      <point x="315.6666666666667" y="-10.0" type="curve" smooth="yes"/>
      <point x="412.3333333333333" y="-10.0"/>
      <point x="494.0" y="33.666666666666664"/>
      <point x="539.3333333333334" y="108.0" type="curve"/>
      <point x="507.3333333333333" y="107.33333333333333" type="line"/>
      <point x="555.3333333333334" y="33.0"/>
      <point x="639.0" y="-10.0"/>
      <point x="743.6666666666666" y="-10.0" type="curve" smooth="yes"/>
      <point x="817.0" y="-10.0"/>
      <point x="895.0" y="18.666666666666668"/>
      <point x="952.6666666666666" y="69.0" type="curve"/>
      <point x="887.0" y="161.33333333333334" type="line"/>
      <point x="840.3333333333334" y="123.66666666666666"/>
      <point x="803.6666666666666" y="110.66666666666666"/>
      <point x="754.3333333333334" y="110.66666666666666" type="curve" smooth="yes"/>
      <point x="641.0" y="110.66666666666666"/>
      <point x="590.0" y="179.0"/>
      <point x="590.0" y="273.0" type="curve" smooth="yes"/>
      <point x="590.0" y="361.3333333333333"/>
      <point x="634.6666666666666" y="422.3333333333333"/>
      <point x="722.0" y="422.3333333333333" type="curve" smooth="yes"/>
      <point x="790.3333333333334" y="422.3333333333333"/>
      <point x="843.6666666666666" y="380.6666666666667"/>
      <point x="843.6666666666666" y="318.3333333333333" type="curve" smooth="yes"/>
      <point x="843.6666666666666" y="279.0" type="line"/>
      <point x="888.6666666666666" y="320.3333333333333" type="line"/>
      <point x="578.0" y="320.3333333333333" type="line"/>
      <point x="578.0" y="234.0" type="line"/>
      <point x="973.0" y="234.0" type="line"/>
      <point x="974.0" y="277.3333333333333" type="line" smooth="yes"/>
      <point x="977.3333333333334" y="429.0"/>
      <point x="871.3333333333334" y="539.3333333333334"/>
      <point x="724.3333333333334" y="539.3333333333334" type="curve" smooth="yes"/>
      <point x="632.6666666666666" y="539.3333333333334"/>
      <point x="558.3333333333334" y="495.6666666666667"/>
      <point x="510.0" y="422.3333333333333" type="curve"/>
      <point x="542.3333333333334" y="422.3333333333333" type="line"/>
      <point x="494.0" y="495.0"/>
      <point x="412.6666666666667" y="539.3333333333334"/>
      <point x="315.6666666666667" y="539.3333333333334" type="curve" smooth="yes"/>
      <point x="155.22233333333332" y="539.3333333333334"/>
      <point x="36.666666666666664" y="423.333"/>
      <point x="36.666666666666664" y="264.6666666666667" type="curve" smooth="yes"/>
      <point x="36.666666666666664" y="106.00033333333333"/>
      <point x="155.22233333333332" y="-10.0"/>
    </contour>
    <contour>
      <point x="315.6666666666667" y="109.33333333333333" type="curve" smooth="yes"/>
      <point x="233.88866666666667" y="109.33333333333333"/>
      <point x="174.11133333333333" y="175.333"/>
      <point x="175.0" y="264.6666666666667" type="curve" smooth="yes"/>
      <point x="174.11133333333333" y="354.44466666666665"/>
      <point x="233.88866666666667" y="420.3333333333333"/>
      <point x="315.6666666666667" y="420.3333333333333" type="curve" smooth="yes"/>
      <point x="397.0003333333333" y="420.3333333333333"/>
      <point x="455.88866666666667" y="355.3333333333333"/>
      <point x="455.0" y="264.6666666666667" type="curve" smooth="yes"/>
      <point x="455.88866666666667" y="175.333"/>
      <point x="397.0003333333333" y="109.33333333333333"/>
    </contour>
  </outline>
</glyph>
<glyph name="Tbar" format="2">
  <advance width="622.0"/>
  <unicode hex="0166"/>
  <anchor x="311.0" y="0.0" name="bottom"/>
  <anchor x="311.0" y="350.0" name="center"/>
  <anchor x="311.0" y="700.0" name="top"/>
  <outline>
    <contour>
      <point x="162.66666666666666" y="298.3333333333333" type="line"/>
      <point x="464.0" y="298.3333333333333" type="line"/>
      <point x="464.0" y="405.0" type="line"/>
      <point x="162.66666666666666" y="405.0" type="line"/>
    </contour>
    <component base="T"/>
  </outline>
</glyph>
<glyph name="tbar" format="2">
  <advance width="392.3333333333333"/>
  <unicode hex="0167"/>
  <anchor x="196.33333333333334" y="0.0" name="bottom"/>
  <anchor x="196.33333333333334" y="264.6666666666667" name="center"/>
  <anchor x="195.0" y="612.0" name="top"/>
  <anchor x="281.0" y="811.3333333333334" name="topright"/>
  <outline>
    <contour>
      <point x="44.66666666666667" y="204.66666666666666" type="line"/>
      <point x="346.0" y="204.66666666666666" type="line"/>
      <point x="346.0" y="311.3333333333333" type="line"/>
      <point x="44.66666666666667" y="311.3333333333333" type="line"/>
    </contour>
    <component base="t"/>
  </outline>
</glyph>
